{
.appVersion = "939";
copyright = "Copyright 2016 Google Inc. All Rights Reserved.";
customParameters = (
{
name = description;
value = "Designed by Monotype design team.";
},
{
name = license;
value = "This Font Software is licensed under the SIL Open Font License, Version 1.1. This Font Software is distributed on an \"AS IS\" BASIS, WITHOUT WARRANTIES OR CONDITIONS OF ANY KIND, either express or implied. See the SIL Open Font License for the specific language, permissions and limitations governing your use of this Font Software.";
},
{
name = licenseURL;
value = "http://scripts.sil.org/OFL";
},
{
name = vendorID;
value = GOOG;
},
{
name = trademark;
value = "Noto is a trademark of Google Inc.";
},
{
name = fsType;
value = (
);
},
{
name = panose;
value = (
2,
11,
5,
2,
4,
5,
4,
2,
2,
4
);
},
{
name = unicodeRanges;
value = (
83
);
},
{
name = codePageRanges;
value = (
1252
);
},
{
name = glyphOrder;
value = (
.notdef,
null,
uni000D,
space,
uniA000,
uniA001,
uniA002,
uniA003,
uniA004,
uniA005,
uniA006,
uniA007,
uniA008,
uniA009,
uniA00A,
uniA00B,
uniA00C,
uniA00D,
uniA00E,
uniA00F,
uniA010,
uniA011,
uniA012,
uniA013,
uniA014,
uniA015,
uniA016,
uniA017,
uniA018,
uniA019,
uniA01A,
uniA01B,
uniA01C,
uniA01D,
uniA01E,
uniA01F,
uniA020,
uniA021,
uniA022,
uniA023,
uniA024,
uniA025,
uniA026,
uniA027,
uniA028,
uniA029,
uniA02A,
uniA02B,
uniA02C,
uniA02D,
uniA02E,
uniA02F,
uniA030,
uniA031,
uniA032,
uniA033,
uniA034,
uniA035,
uniA036,
uniA037,
uniA038,
uniA039,
uniA03A,
uniA03B,
uniA03C,
uniA03D,
uniA03E,
uniA03F,
uniA040,
uniA041,
uniA042,
uniA043,
uniA044,
uniA045,
uniA046,
uniA047,
uniA048,
uniA049,
uniA04A,
uniA04B,
uniA04C,
uniA04D,
uniA04E,
uniA04F,
uniA050,
uniA051,
uniA052,
uniA053,
uniA054,
uniA055,
uniA056,
uniA057,
uniA058,
uniA059,
uniA05A,
uniA05B,
uniA05C,
uniA05D,
uniA05E,
uniA05F,
uniA060,
uniA061,
uniA062,
uniA063,
uniA064,
uniA065,
uniA066,
uniA067,
uniA068,
uniA069,
uniA06A,
uniA06B,
uniA06C,
uniA06D,
uniA06E,
uniA06F,
uniA070,
uniA071,
uniA072,

glyphs = (
{
glyphname = .notdef;
lastChange = "2016-11-10 14:40:56 +0000";
layers = (
{
layerId = "7EC89B61-8520-4E3C-9660-9B6BD7352386";
paths = (
{
closed = 1;
nodes = (
"1156 0 LINE",
"1156 1398 LINE",
"166 1398 LINE",
"166 0 LINE"
);
},
{
closed = 1;
nodes = (
"314 1250 LINE",
"1008 1250 LINE",
"1008 148 LINE",
"314 148 LINE"
);
}
);
width = 1322;
}
);
note = .notdef;
},
{
glyphname = yi_mark;
lastChange = "2016-11-10 14:40:56 +0000";
layers = (
{
layerId = "7EC89B61-8520-4E3C-9660-9B6BD7352386";
paths = (
{
closed = 1;
nodes = (
"239 1653 OFFCURVE",
"336 1687 OFFCURVE",
"446 1687 CURVE SMOOTH",
"556 1687 OFFCURVE",
"653 1653 OFFCURVE",
"737 1585 CURVE",
"815 1665 LINE",
"709 1756 OFFCURVE",
"586 1802 OFFCURVE",
"446 1802 CURVE SMOOTH",
"317 1802 OFFCURVE",
"199 1765 OFFCURVE",
"78 1665 CURVE",
"155 1585 LINE"
);
}
);
width = 0;
}
);
note = yi_mark;
},
{
glyphname = "a-yi";
lastChange = "2016-11-10 14:40:56 +0000";
layers = (
{
layerId = "7EC89B61-8520-4E3C-9660-9B6BD7352386";
paths = (
{
closed = 1;
nodes = (
"582 1218 LINE",
"792 1050 LINE",
"792 0 LINE",
"932 0 LINE",
"932 1462 LINE",
"792 1462 LINE",
"792 1208 LINE",
"442 1488 LINE",
"442 813 LINE",
"162 1040 LINE",
"85 939 LINE",
"442 654 LINE",
"442 198 LINE",
"141 347 LINE",
"80 235 LINE",
"582 -26 LINE"
);
}
);
width = 1112;
}
);
note = uniA00A;
unicode = A00A;
},
{
glyphname = "ap-yi";
lastChange = "2016-11-10 14:40:56 +0000";
layers = (
{
layerId = "7EC89B61-8520-4E3C-9660-9B6BD7352386";
paths = (
{
closed = 1;
nodes = (
"582 1277 LINE",
"756 1185 LINE",
"749 1154 OFFCURVE",
"746 1119 OFFCURVE",
"746 1082 CURVE SMOOTH",
"746 917 OFFCURVE",
"839 753 OFFCURVE",
"963 677 CURVE",
"1051 781 LINE",
"950 842 OFFCURVE",
"886 969 OFFCURVE",
"886 1082 CURVE SMOOTH",
"886 1206 OFFCURVE",
"952 1338 OFFCURVE",
"1048 1399 CURVE",
"964 1498 LINE",
"893 1456 OFFCURVE",
"837 1392 OFFCURVE",
"796 1307 CURVE",
"442 1488 LINE",
"442 813 LINE",
"162 1040 LINE",
"85 939 LINE",
"442 654 LINE",
"442 198 LINE",
"141 347 LINE",
"80 235 LINE",
"582 -26 LINE"
);
}
);
width = 1151;
}
);
note = uniA00B;
unicode = A00B;
},
{
glyphname = "at-yi";
lastChange = "2016-11-10 14:40:56 +0000";
layers = (
{
layerId = "7EC89B61-8520-4E3C-9660-9B6BD7352386";
paths = (
{
closed = 1;
nodes = (
"618 0 LINE",
"618 1092 LINE",
"956 875 LINE",
"956 1462 LINE",
"826 1462 LINE",
"826 1095 LINE",
"478 1313 LINE",
"478 756 LINE",
"166 1065 LINE",
"80 972 LINE",
"478 585 LINE",
"478 0 LINE"
);
}
);
width = 1076;
}
);
note = uniA008;
unicode = A008;
},
{
glyphname = "ba-yi";
lastChange = "2016-11-10 14:40:56 +0000";
layers = (
{
layerId = "7EC89B61-8520-4E3C-9660-9B6BD7352386";
paths = (
{
closed = 1;
nodes = (
"520 -26 OFFCURVE",
"597 15 OFFCURVE",
"652 96 CURVE",
"705 15 OFFCURVE",
"782 -26 OFFCURVE",
"883 -26 CURVE SMOOTH",
"934 -26 OFFCURVE",
"976 -17 OFFCURVE",
"1011 0 CURVE SMOOTH",
"1080 35 OFFCURVE",
"1123 95 OFFCURVE",
"1147 205 CURVE SMOOTH",
"1158 260 OFFCURVE",
"1164 342 OFFCURVE",
"1164 451 CURVE SMOOTH",
"1164 582 LINE",
"1024 582 LINE",
"1024 471 LINE SMOOTH",
"1024 356 OFFCURVE",
"1020 275 OFFCURVE",
"1011 227 CURVE SMOOTH",
"994 131 OFFCURVE",
"954 94 OFFCURVE",
"873 94 CURVE SMOOTH",
"772 94 OFFCURVE",
"722 174 OFFCURVE",
"722 335 CURVE SMOOTH",
"722 582 LINE",
"582 582 LINE",
"582 335 LINE SMOOTH",
"582 174 OFFCURVE",
"532 94 OFFCURVE",
"431 94 CURVE SMOOTH",
"348 94 OFFCURVE",
"310 131 OFFCURVE",
"293 226 CURVE SMOOTH",
"284 273 OFFCURVE",
"280 355 OFFCURVE",
"280 471 CURVE SMOOTH",
"280 582 LINE",
"140 582 LINE",
"140 451 LINE SMOOTH",
"140 342 OFFCURVE",
"146 260 OFFCURVE",
"158 205 CURVE SMOOTH",
"169 150 OFFCURVE",
"186 106 OFFCURVE",
"209 74 CURVE SMOOTH",
"253 10 OFFCURVE",
"322 -26 OFFCURVE",
"421 -26 CURVE SMOOTH"
);
},
{
closed = 1;
nodes = (
"440 665 LINE",
"440 1015 LINE",
"864 1015 LINE",
"864 665 LINE",
"1004 665 LINE",
"1004 1462 LINE",
"864 1462 LINE",
"864 1135 LINE",
"440 1135 LINE",
"440 1462 LINE",
"300 1462 LINE",
"300 665 LINE"
);
}
);
width = 1304;
}
);
note = uniA020;
unicode = A020;
},
{
glyphname = "bap-yi";
lastChange = "2016-11-10 14:40:56 +0000";
layers = (
{
layerId = "7EC89B61-8520-4E3C-9660-9B6BD7352386";
paths = (
{
closed = 1;
nodes = (
"408 665 LINE",
"408 1015 LINE",
"832 1015 LINE",
"832 665 LINE",
"972 665 LINE",
"972 1462 LINE",
"832 1462 LINE",
"832 1135 LINE",
"408 1135 LINE",
"408 1462 LINE",
"268 1462 LINE",
"268 665 LINE"
);
},
{
closed = 1;
nodes = (
"558 489 LINE",
"449 559 LINE",
"120 45 LINE",
"229 -25 LINE"
);
},
{
closed = 1;
nodes = (
"1120 45 LINE",
"791 559 LINE",
"682 489 LINE",
"1011 -25 LINE"
);
}
);
width = 1240;
}
);
note = uniA021;
unicode = A021;
},
{
glyphname = "bat-yi";
lastChange = "2016-11-10 14:40:56 +0000";
layers = (
{
layerId = "7EC89B61-8520-4E3C-9660-9B6BD7352386";
paths = (
{
closed = 1;
nodes = (
"294 740 LINE",
"294 1050 LINE",
"758 1050 LINE",
"758 740 LINE",
"898 740 LINE",
"898 1462 LINE",
"758 1462 LINE",
"758 1170 LINE",
"294 1170 LINE",
"294 1462 LINE",
"154 1462 LINE",
"154 740 LINE"
);
},
{
closed = 1;
nodes = (
"748 -26 OFFCURVE",
"882 115 OFFCURVE",
"882 338 CURVE SMOOTH",
"882 562 OFFCURVE",
"751 722 OFFCURVE",
"527 722 CURVE SMOOTH",
"451 722 OFFCURVE",
"387 705 OFFCURVE",
"334 672 CURVE SMOOTH",
"229 604 OFFCURVE",
"170 482 OFFCURVE",
"170 338 CURVE SMOOTH",
"170 267 OFFCURVE",
"184 204 OFFCURVE",
"213 149 CURVE SMOOTH",
"269 37 OFFCURVE",
"376 -26 OFFCURVE",
"527 -26 CURVE SMOOTH"
);
},
{
closed = 1;
nodes = (
"382 85 OFFCURVE",
"300 170 OFFCURVE",
"300 338 CURVE SMOOTH",
"300 513 OFFCURVE",
"386 612 OFFCURVE",
"527 612 CURVE SMOOTH",
"670 612 OFFCURVE",
"752 519 OFFCURVE",
"752 338 CURVE SMOOTH",
"752 170 OFFCURVE",
"671 85 OFFCURVE",
"527 85 CURVE SMOOTH"
);
}
);
width = 1052;
}
);
note = uniA01E;
unicode = A01E;
},
{
glyphname = "bba-yi";
lastChange = "2016-11-10 14:40:56 +0000";
layers = (
{
layerId = "7EC89B61-8520-4E3C-9660-9B6BD7352386";
paths = (
{
closed = 1;
nodes = (
"1076 599 LINE",
"1415 -16 LINE",
"1460 -16 LINE",
"1460 1473 LINE",
"1415 1473 LINE",
"1076 857 LINE",
"745 1473 LINE",
"632 1407 LINE",
"1005 728 LINE",
"632 50 LINE",
"745 -16 LINE"
);
},
{
closed = 1;
nodes = (
"345 609 LINE",
"511 282 LINE",
"662 332 LINE",
"662 1133 LINE",
"520 1183 LINE",
"345 846 LINE",
"170 1183 LINE",
"80 1133 LINE",
"284 729 LINE",
"80 337 LINE",
"179 282 LINE"
);
},
{
closed = 1;
nodes = (
"406 729 LINE",
"558 1030 LINE",
"558 437 LINE"
);
},
{
closed = 1;
nodes = (
"1146 728 LINE",
"1320 1051 LINE",
"1320 406 LINE"
);
}
);
width = 1640;
}
);
note = uniA060;
unicode = A060;
},
{
glyphname = "bbap-yi";
lastChange = "2016-11-10 14:40:56 +0000";
layers = (
{
layerId = "7EC89B61-8520-4E3C-9660-9B6BD7352386";
paths = (
{
closed = 1;
nodes = (
"520 754 OFFCURVE",
"597 795 OFFCURVE",
"652 876 CURVE",
"705 795 OFFCURVE",
"782 754 OFFCURVE",
"883 754 CURVE SMOOTH",
"934 754 OFFCURVE",
"976 763 OFFCURVE",
"1011 780 CURVE SMOOTH",
"1080 815 OFFCURVE",
"1123 875 OFFCURVE",
"1147 985 CURVE SMOOTH",
"1158 1040 OFFCURVE",
"1164 1122 OFFCURVE",
"1164 1231 CURVE SMOOTH",
"1164 1462 LINE",
"1024 1462 LINE",
"1024 1251 LINE SMOOTH",
"1024 1136 OFFCURVE",
"1020 1055 OFFCURVE",
"1011 1007 CURVE SMOOTH",
"994 911 OFFCURVE",
"954 874 OFFCURVE",
"873 874 CURVE SMOOTH",
"772 874 OFFCURVE",
"722 954 OFFCURVE",
"722 1115 CURVE SMOOTH",
"722 1462 LINE",
"582 1462 LINE",
"582 1115 LINE SMOOTH",
"582 954 OFFCURVE",
"532 874 OFFCURVE",
"431 874 CURVE SMOOTH",
"348 874 OFFCURVE",
"310 911 OFFCURVE",
"293 1006 CURVE SMOOTH",
"284 1053 OFFCURVE",
"280 1135 OFFCURVE",
"280 1251 CURVE SMOOTH",
"280 1462 LINE",
"140 1462 LINE",
"140 1231 LINE SMOOTH",
"140 1122 OFFCURVE",
"146 1040 OFFCURVE",
"158 985 CURVE SMOOTH",
"169 930 OFFCURVE",
"186 886 OFFCURVE",
"209 854 CURVE SMOOTH",
"253 790 OFFCURVE",
"322 754 OFFCURVE",
"421 754 CURVE SMOOTH"
);
},
{
closed = 1;
nodes = (
"1093 0 LINE",
"1093 120 LINE",
"233 120 LINE",
"233 0 LINE"
);
},
{
closed = 1;
nodes = (
"1073 380 LINE",
"1073 500 LINE",
"253 500 LINE",
"253 380 LINE"
);
}
);
width = 1304;
}
);
note = uniA061;
unicode = A061;
},
{
glyphname = "bbat-yi";
lastChange = "2016-11-10 14:40:56 +0000";
layers = (
{
layerId = "7EC89B61-8520-4E3C-9660-9B6BD7352386";
paths = (
{
closed = 1;
nodes = (
"308 71 OFFCURVE",
"399 174 OFFCURVE",
"456 299 CURVE",
"833 299 LINE",
"890 172 OFFCURVE",
"981 69 OFFCURVE",
"1106 -10 CURVE",
"1179 98 LINE",
"975 234 OFFCURVE",
"895 401 OFFCURVE",
"895 732 CURVE SMOOTH",
"895 1057 OFFCURVE",
"978 1239 OFFCURVE",
"1179 1366 CURVE",
"1106 1474 LINE",
"981 1389 OFFCURVE",
"890 1284 OFFCURVE",
"833 1159 CURVE",
"455 1159 LINE",
"399 1283 OFFCURVE",
"308 1388 OFFCURVE",
"183 1474 CURVE",
"110 1366 LINE",
"310 1241 OFFCURVE",
"394 1059 OFFCURVE",
"394 732 CURVE SMOOTH",
"394 404 OFFCURVE",
"315 235 OFFCURVE",
"110 98 CURVE",
"183 -10 LINE"
);
},
{
closed = 1;
nodes = (
"517 494 OFFCURVE",
"529 577 OFFCURVE",
"533 669 CURVE",
"756 669 LINE",
"759 577 OFFCURVE",
"770 494 OFFCURVE",
"791 419 CURVE",
"498 419 LINE"
);
},
{
closed = 1;
nodes = (
"530 880 OFFCURVE",
"519 963 OFFCURVE",
"498 1039 CURVE",
"791 1039 LINE",
"770 963 OFFCURVE",
"759 880 OFFCURVE",
"756 789 CURVE",
"533 789 LINE"
);
}
);
width = 1289;
}
);
note = uniA05E;
unicode = A05E;
},
{
glyphname = "bbe-yi";
lastChange = "2016-11-10 14:40:56 +0000";
layers = (
{
layerId = "7EC89B61-8520-4E3C-9660-9B6BD7352386";
paths = (
{
closed = 1;
nodes = (
"1050 1022 LINE",
"920 1022 LINE",
"920 658 LINE",
"130 1092 LINE",
"130 488 LINE",
"260 488 LINE",
"260 886 LINE",
"1050 468 LINE"
);
},
{
closed = 1;
nodes = (
"950 0 LINE",
"950 120 LINE",
"230 120 LINE",
"230 0 LINE"
);
},
{
closed = 1;
nodes = (
"900 290 LINE",
"900 410 LINE",
"280 410 LINE",
"280 290 LINE"
);
},
{
closed = 1;
nodes = (
"880 1462 LINE",
"750 1462 LINE",
"750 1235 LINE",
"290 1482 LINE",
"290 1088 LINE",
"420 1088 LINE",
"420 1279 LINE",
"880 1038 LINE"
);
}
);
width = 1180;
}
);
note = uniA06A;
unicode = A06A;
},
{
glyphname = "bbep-yi";
lastChange = "2016-11-10 14:40:56 +0000";
layers = (
{
layerId = "7EC89B61-8520-4E3C-9660-9B6BD7352386";
paths = (
{
closed = 1;
nodes = (
"852 749 LINE",
"1165 1169 LINE",
"1065 1248 LINE",
"852 957 LINE",
"852 1462 LINE",
"712 1462 LINE",
"712 175 LINE",
"280 373 LINE",
"235 263 LINE",
"852 -30 LINE"
);
},
{
closed = 1;
nodes = (
"600 598 LINE",
"600 718 LINE",
"130 718 LINE",
"130 598 LINE"
);
},
{
closed = 1;
nodes = (
"600 1392 LINE",
"470 1392 LINE",
"470 1111 LINE",
"130 1412 LINE",
"130 860 LINE",
"260 860 LINE",
"260 1147 LINE",
"600 840 LINE"
);
}
);
width = 1245;
}
);
note = uniA06B;
unicode = A06B;
},
{
glyphname = "bbi-yi";
lastChange = "2016-11-10 14:40:56 +0000";
layers = (
{
layerId = "7EC89B61-8520-4E3C-9660-9B6BD7352386";
paths = (
{
closed = 1;
nodes = (
"665 0 LINE",
"665 626 LINE",
"1030 287 LINE",
"1112 374 LINE",
"684 772 LINE",
"1112 1170 LINE",
"1032 1259 LINE",
"665 918 LINE",
"665 1462 LINE",
"525 1462 LINE",
"525 920 LINE",
"160 1259 LINE",
"80 1170 LINE",
"508 772 LINE",
"80 374 LINE",
"162 287 LINE",
"525 624 LINE",
"525 0 LINE"
);
}
);
width = 1192;
}
);
note = uniA058;
unicode = A058;
},
{
glyphname = "bbie-yi";
lastChange = "2016-11-10 14:40:56 +0000";
layers = (
{
layerId = "7EC89B61-8520-4E3C-9660-9B6BD7352386";
paths = (
{
closed = 1;
nodes = (
"424 897 LINE",
"524 812 LINE",
"522 772 LINE",
"522 732 LINE SMOOTH",
"522 405 OFFCURVE",
"652 157 OFFCURVE",
"913 -10 CURVE",
"986 98 LINE",
"758 251 OFFCURVE",
"662 439 OFFCURVE",
"662 732 CURVE SMOOTH",
"662 1025 OFFCURVE",
"765 1227 OFFCURVE",
"986 1366 CURVE",
"913 1474 LINE",
"706 1337 OFFCURVE",
"590 1169 OFFCURVE",
"545 958 CURVE",
"294 1171 LINE",
"294 211 LINE",
"144 314 LINE",
"80 214 LINE",
"424 -30 LINE"
);
},
{
closed = 1;
nodes = (
"1050 388 LINE",
"977 472 OFFCURVE",
"931 561 OFFCURVE",
"922 682 CURVE",
"1019 682 LINE",
"1019 802 LINE",
"924 802 LINE",
"935 899 OFFCURVE",
"963 976 OFFCURVE",
"1050 1077 CURVE",
"961 1163 LINE",
"850 1052 OFFCURVE",
"801 938 OFFCURVE",
"788 802 CURVE",
"709 802 LINE",
"709 682 LINE",
"786 682 LINE",
"795 536 OFFCURVE",
"854 409 OFFCURVE",
"961 302 CURVE"
);
}
);
width = 1170;
}
);
note = uniA05C;
unicode = A05C;
},
{
glyphname = "bbiep-yi";
lastChange = "2016-11-10 14:40:56 +0000";
layers = (
{
layerId = "7EC89B61-8520-4E3C-9660-9B6BD7352386";
paths = (
{
closed = 1;
nodes = (
"438 153 OFFCURVE",
"568 393 OFFCURVE",
"574 709 CURVE",
"684 709 LINE",
"690 393 OFFCURVE",
"820 153 OFFCURVE",
"1075 -10 CURVE",
"1148 98 LINE",
"924 246 OFFCURVE",
"829 429 OFFCURVE",
"824 709 CURVE",
"1087 709 LINE",
"1087 829 LINE",
"828 829 LINE",
"848 1066 OFFCURVE",
"947 1238 OFFCURVE",
"1148 1366 CURVE",
"1075 1474 LINE",
"828 1310 OFFCURVE",
"709 1098 OFFCURVE",
"688 829 CURVE",
"570 829 LINE",
"549 1104 OFFCURVE",
"426 1313 OFFCURVE",
"183 1474 CURVE",
"110 1366 LINE",
"309 1239 OFFCURVE",
"410 1065 OFFCURVE",
"430 829 CURVE",
"171 829 LINE",
"171 709 LINE",
"434 709 LINE",
"429 428 OFFCURVE",
"333 247 OFFCURVE",
"110 98 CURVE",
"183 -10 LINE"
);
}
);
width = 1258;
}
);
note = uniA05D;
unicode = A05D;
},
{
glyphname = "bbiet-yi";
lastChange = "2016-11-10 14:40:56 +0000";
layers = (
{
layerId = "7EC89B61-8520-4E3C-9660-9B6BD7352386";
paths = (
{
closed = 1;
nodes = (
"510 454 OFFCURVE",
"587 495 OFFCURVE",
"642 576 CURVE",
"695 495 OFFCURVE",
"772 454 OFFCURVE",
"873 454 CURVE SMOOTH",
"924 454 OFFCURVE",
"966 463 OFFCURVE",
"1001 480 CURVE SMOOTH",
"1070 515 OFFCURVE",
"1113 575 OFFCURVE",
"1137 685 CURVE SMOOTH",
"1148 740 OFFCURVE",
"1154 822 OFFCURVE",
"1154 931 CURVE SMOOTH",
"1154 958 LINE",
"1014 958 LINE",
"1014 951 LINE SMOOTH",
"1014 836 OFFCURVE",
"1010 755 OFFCURVE",
"1001 707 CURVE SMOOTH",
"984 611 OFFCURVE",
"944 574 OFFCURVE",
"863 574 CURVE SMOOTH",
"762 574 OFFCURVE",
"712 654 OFFCURVE",
"712 815 CURVE SMOOTH",
"712 880 LINE",
"883 907 OFFCURVE",
"1004 1032 OFFCURVE",
"1004 1181 CURVE SMOOTH",
"1004 1236 OFFCURVE",
"988 1288 OFFCURVE",
"956 1336 CURVE SMOOTH",
"892 1431 OFFCURVE",
"774 1488 OFFCURVE",
"639 1488 CURVE SMOOTH",
"431 1488 OFFCURVE",
"280 1353 OFFCURVE",
"280 1181 CURVE SMOOTH",
"280 1028 OFFCURVE",
"400 907 OFFCURVE",
"572 880 CURVE",
"572 815 LINE SMOOTH",
"572 654 OFFCURVE",
"522 574 OFFCURVE",
"421 574 CURVE SMOOTH",
"338 574 OFFCURVE",
"300 611 OFFCURVE",
"283 706 CURVE SMOOTH",
"274 753 OFFCURVE",
"270 835 OFFCURVE",
"270 951 CURVE SMOOTH",
"270 958 LINE",
"130 958 LINE",
"130 931 LINE SMOOTH",
"130 822 OFFCURVE",
"136 740 OFFCURVE",
"148 685 CURVE SMOOTH",
"159 630 OFFCURVE",
"176 586 OFFCURVE",
"199 554 CURVE SMOOTH",
"243 490 OFFCURVE",
"312 454 OFFCURVE",
"411 454 CURVE SMOOTH"
);
},
{
closed = 1;
nodes = (
"722 0 LINE",
"722 398 LINE",
"582 398 LINE",
"582 0 LINE"
);
},
{
closed = 1;
nodes = (
"504 985 OFFCURVE",
"410 1067 OFFCURVE",
"410 1183 CURVE SMOOTH",
"410 1295 OFFCURVE",
"500 1378 OFFCURVE",
"639 1378 CURVE SMOOTH",
"779 1378 OFFCURVE",
"874 1299 OFFCURVE",
"874 1183 CURVE SMOOTH",
"874 1070 OFFCURVE",
"782 985 OFFCURVE",
"639 985 CURVE SMOOTH"
);
}
);
width = 1284;
}
);
note = uniA05A;
unicode = A05A;
},
{
glyphname = "bbip-yi";
lastChange = "2016-11-10 14:40:56 +0000";
layers = (
{
layerId = "7EC89B61-8520-4E3C-9660-9B6BD7352386";
paths = (
{
closed = 1;
nodes = (
"728 -26 OFFCURVE",
"826 17 OFFCURVE",
"901 104 CURVE",
"944 63 OFFCURVE",
"988 28 OFFCURVE",
"1033 1 CURVE",
"1096 109 LINE",
"1049 140 OFFCURVE",
"1007 174 OFFCURVE",
"972 211 CURVE",
"1039 343 OFFCURVE",
"1073 517 OFFCURVE",
"1073 733 CURVE SMOOTH",
"1073 955 OFFCURVE",
"1038 1131 OFFCURVE",
"967 1262 CURVE",
"1003 1300 OFFCURVE",
"1046 1335 OFFCURVE",
"1096 1367 CURVE",
"1033 1475 LINE",
"984 1443 OFFCURVE",
"938 1406 OFFCURVE",
"895 1365 CURVE",
"820 1447 OFFCURVE",
"724 1488 OFFCURVE",
"607 1488 CURVE SMOOTH",
"494 1488 OFFCURVE",
"400 1449 OFFCURVE",
"325 1371 CURVE",
"283 1410 OFFCURVE",
"240 1445 OFFCURVE",
"195 1475 CURVE",
"132 1367 LINE",
"179 1336 OFFCURVE",
"219 1304 OFFCURVE",
"252 1271 CURVE",
"177 1141 OFFCURVE",
"140 964 OFFCURVE",
"140 741 CURVE SMOOTH",
"140 515 OFFCURVE",
"176 335 OFFCURVE",
"247 202 CURVE",
"214 169 OFFCURVE",
"175 138 OFFCURVE",
"132 109 CURVE",
"195 1 LINE",
"242 32 OFFCURVE",
"283 64 OFFCURVE",
"320 98 CURVE",
"395 15 OFFCURVE",
"490 -26 OFFCURVE",
"607 -26 CURVE SMOOTH"
);
},
{
closed = 1;
nodes = (
"299 427 OFFCURVE",
"280 568 OFFCURVE",
"280 741 CURVE SMOOTH",
"280 911 OFFCURVE",
"301 1048 OFFCURVE",
"342 1151 CURVE",
"398 1050 OFFCURVE",
"426 914 OFFCURVE",
"426 743 CURVE SMOOTH",
"426 564 OFFCURVE",
"401 431 OFFCURVE",
"337 319 CURVE"
);
},
{
closed = 1;
nodes = (
"522 94 OFFCURVE",
"455 127 OFFCURVE",
"404 193 CURVE",
"505 332 OFFCURVE",
"556 515 OFFCURVE",
"556 743 CURVE SMOOTH",
"556 952 OFFCURVE",
"518 1126 OFFCURVE",
"411 1273 CURVE",
"463 1336 OFFCURVE",
"528 1368 OFFCURVE",
"605 1368 CURVE SMOOTH",
"690 1368 OFFCURVE",
"758 1334 OFFCURVE",
"810 1265 CURVE",
"707 1120 OFFCURVE",
"672 950 OFFCURVE",
"672 743 CURVE SMOOTH",
"672 521 OFFCURVE",
"720 342 OFFCURVE",
"815 205 CURVE",
"763 131 OFFCURVE",
"693 94 OFFCURVE",
"605 94 CURVE SMOOTH"
);
},
{
closed = 1;
nodes = (
"828 439 OFFCURVE",
"802 574 OFFCURVE",
"802 743 CURVE SMOOTH",
"802 908 OFFCURVE",
"827 1039 OFFCURVE",
"878 1136 CURVE",
"915 1033 OFFCURVE",
"933 899 OFFCURVE",
"933 733 CURVE SMOOTH",
"933 576 OFFCURVE",
"916 445 OFFCURVE",
"881 338 CURVE"
);
}
);
width = 1213;
}
);
note = uniA059;
unicode = A059;
},
{
glyphname = "bbit-yi";
lastChange = "2016-11-10 14:40:56 +0000";
layers = (
{
layerId = "7EC89B61-8520-4E3C-9660-9B6BD7352386";
paths = (
{
closed = 1;
nodes = (
"495 -26 OFFCURVE",
"572 15 OFFCURVE",
"627 96 CURVE",
"680 15 OFFCURVE",
"757 -26 OFFCURVE",
"858 -26 CURVE SMOOTH",
"919 -26 OFFCURVE",
"970 -11 OFFCURVE",
"1011 18 CURVE SMOOTH",
"1094 77 OFFCURVE",
"1134 193 OFFCURVE",
"1134 432 CURVE",
"999 432 LINE",
"999 340 OFFCURVE",
"995 271 OFFCURVE",
"986 224 CURVE SMOOTH",
"968 130 OFFCURVE",
"933 94 OFFCURVE",
"848 94 CURVE SMOOTH",
"747 94 OFFCURVE",
"697 174 OFFCURVE",
"697 335 CURVE SMOOTH",
"697 394 LINE",
"930 427 OFFCURVE",
"1064 630 OFFCURVE",
"1064 941 CURVE SMOOTH",
"1064 1282 OFFCURVE",
"898 1488 OFFCURVE",
"627 1488 CURVE SMOOTH",
"355 1488 OFFCURVE",
"190 1283 OFFCURVE",
"190 944 CURVE SMOOTH",
"190 631 OFFCURVE",
"324 429 OFFCURVE",
"557 394 CURVE",
"557 335 LINE SMOOTH",
"557 174 OFFCURVE",
"507 94 OFFCURVE",
"406 94 CURVE SMOOTH",
"321 94 OFFCURVE",
"287 129 OFFCURVE",
"269 225 CURVE SMOOTH",
"260 273 OFFCURVE",
"255 342 OFFCURVE",
"255 432 CURVE",
"120 432 LINE",
"120 311 OFFCURVE",
"130 219 OFFCURVE",
"151 156 CURVE SMOOTH",
"191 29 OFFCURVE",
"273 -26 OFFCURVE",
"396 -26 CURVE SMOOTH"
);
},
{
closed = 1;
nodes = (
"492 509 OFFCURVE",
"401 585 OFFCURVE",
"358 724 CURVE",
"896 724 LINE",
"849 572 OFFCURVE",
"749 509 OFFCURVE",
"625 509 CURVE SMOOTH"
);
},
{
closed = 1;
nodes = (
"332 867 OFFCURVE",
"330 903 OFFCURVE",
"330 944 CURVE",
"333 1027 LINE",
"920 1027 LINE",
"923 999 OFFCURVE",
"924 969 OFFCURVE",
"924 938 CURVE SMOOTH",
"924 901 OFFCURVE",
"922 866 OFFCURVE",
"918 834 CURVE",
"336 834 LINE"
);
},
{
closed = 1;
nodes = (
"395 1292 OFFCURVE",
"493 1368 OFFCURVE",
"625 1368 CURVE SMOOTH",
"766 1368 OFFCURVE",
"858 1291 OFFCURVE",
"901 1137 CURVE",
"352 1137 LINE"
);
}
);
width = 1254;
}
);
note = uniA056;
unicode = A056;
},
{
glyphname = "bbo-yi";
lastChange = "2016-11-10 14:40:56 +0000";
layers = (
{
layerId = "7EC89B61-8520-4E3C-9660-9B6BD7352386";
paths = (
{
closed = 1;
nodes = (
"896 0 LINE",
"896 120 LINE",
"586 120 LINE",
"586 320 LINE",
"856 320 LINE",
"856 440 LINE",
"586 440 LINE",
"586 831 LINE",
"838 599 LINE",
"920 681 LINE",
"600 975 LINE",
"920 1271 LINE",
"836 1350 LINE",
"586 1119 LINE",
"586 1462 LINE",
"446 1462 LINE",
"446 1117 LINE",
"194 1350 LINE",
"110 1271 LINE",
"430 975 LINE",
"110 681 LINE",
"192 599 LINE",
"446 833 LINE",
"446 440 LINE",
"176 440 LINE",
"176 320 LINE",
"446 320 LINE",
"446 120 LINE",
"136 120 LINE",
"136 0 LINE"
);
}
);
width = 1030;
}
);
note = uniA067;
unicode = A067;
},
{
glyphname = "bbop-yi";
lastChange = "2016-11-10 14:40:56 +0000";
layers = (
{
layerId = "7EC89B61-8520-4E3C-9660-9B6BD7352386";
paths = (
{
closed = 1;
nodes = (
"280 479 LINE",
"303 668 OFFCURVE",
"416 774 OFFCURVE",
"616 774 CURVE SMOOTH",
"832 774 OFFCURVE",
"936 676 OFFCURVE",
"973 479 CURVE",
"1114 479 LINE",
"1075 710 OFFCURVE",
"918 860 OFFCURVE",
"697 889 CURVE",
"697 1127 LINE SMOOTH",
"697 1288 OFFCURVE",
"747 1368 OFFCURVE",
"848 1368 CURVE SMOOTH",
"933 1368 OFFCURVE",
"968 1333 OFFCURVE",
"986 1237 CURVE SMOOTH",
"995 1189 OFFCURVE",
"999 1120 OFFCURVE",
"999 1030 CURVE",
"1134 1030 LINE",
"1134 1151 OFFCURVE",
"1124 1243 OFFCURVE",
"1104 1306 CURVE SMOOTH",
"1063 1433 OFFCURVE",
"981 1488 OFFCURVE",
"858 1488 CURVE SMOOTH",
"757 1488 OFFCURVE",
"680 1447 OFFCURVE",
"627 1366 CURVE",
"572 1447 OFFCURVE",
"495 1488 OFFCURVE",
"396 1488 CURVE SMOOTH",
"335 1488 OFFCURVE",
"284 1473 OFFCURVE",
"243 1444 CURVE SMOOTH",
"160 1385 OFFCURVE",
"120 1269 OFFCURVE",
"120 1030 CURVE",
"255 1030 LINE",
"255 1122 OFFCURVE",
"260 1192 OFFCURVE",
"269 1239 CURVE SMOOTH",
"287 1333 OFFCURVE",
"321 1368 OFFCURVE",
"406 1368 CURVE SMOOTH",
"507 1368 OFFCURVE",
"557 1288 OFFCURVE",
"557 1127 CURVE SMOOTH",
"557 890 LINE",
"329 867 OFFCURVE",
"176 719 OFFCURVE",
"140 479 CURVE"
);
},
{
closed = 1;
nodes = (
"827 -26 OFFCURVE",
"964 119 OFFCURVE",
"1003 375 CURVE",
"866 375 LINE",
"842 192 OFFCURVE",
"753 94 OFFCURVE",
"625 94 CURVE SMOOTH",
"500 94 OFFCURVE",
"412 192 OFFCURVE",
"388 375 CURVE",
"255 375 LINE",
"288 127 OFFCURVE",
"432 -26 OFFCURVE",
"627 -26 CURVE SMOOTH"
);
},
{
closed = 1;
nodes = (
"692 346 LINE",
"692 624 LINE",
"562 624 LINE",
"562 346 LINE"
);
}
);
width = 1254;
}
);
note = uniA068;
unicode = A068;
},
{
glyphname = "bbot-yi";
lastChange = "2016-11-10 14:40:56 +0000";
layers = (
{
layerId = "7EC89B61-8520-4E3C-9660-9B6BD7352386";
paths = (
{
closed = 1;
nodes = (
"834 0 LINE",
"834 1462 LINE",
"694 1462 LINE",
"694 1243 LINE",
"585 1240 OFFCURVE",
"486 1220 OFFCURVE",
"398 1183 CURVE SMOOTH",
"222 1107 OFFCURVE",
"120 966 OFFCURVE",
"120 790 CURVE SMOOTH",
"120 521 OFFCURVE",
"329 362 OFFCURVE",
"694 347 CURVE",
"694 0 LINE"
);
},
{
closed = 1;
nodes = (
"410 470 OFFCURVE",
"260 587 OFFCURVE",
"260 790 CURVE SMOOTH",
"260 995 OFFCURVE",
"417 1121 OFFCURVE",
"694 1124 CURVE",
"694 466 LINE"
);
},
{
closed = 1;
nodes = (
"1107 297 LINE",
"1107 1283 LINE",
"977 1283 LINE",
"977 297 LINE"
);
}
);
width = 1247;
}
);
note = uniA065;
unicode = A065;
},
{
glyphname = "bbu-yi";
lastChange = "2016-11-10 14:40:56 +0000";
layers = (
{
layerId = "7EC89B61-8520-4E3C-9660-9B6BD7352386";
paths = (
{
closed = 1;
nodes = (
"742 0 LINE",
"742 1178 LINE",
"1070 1023 LINE",
"1070 1462 LINE",
"940 1462 LINE",
"940 1218 LINE",
"602 1394 LINE",
"602 968 LINE",
"294 1191 LINE",
"294 461 LINE",
"144 564 LINE",
"80 464 LINE",
"424 220 LINE",
"424 952 LINE",
"602 826 LINE",
"602 0 LINE"
);
},
{
closed = 1;
nodes = (
"1070 305 LINE",
"1070 865 LINE",
"940 865 LINE",
"940 305 LINE"
);
}
);
width = 1210;
}
);
note = uniA06E;
unicode = A06E;
},
{
glyphname = "bbuo-yi";
lastChange = "2016-11-10 14:40:56 +0000";
layers = (
{
layerId = "7EC89B61-8520-4E3C-9660-9B6BD7352386";
paths = (
{
closed = 1;
nodes = (
"995 1462 LINE",
"855 1462 LINE",
"855 143 LINE",
"228 339 LINE",
"187 216 LINE",
"995 -30 LINE"
);
},
{
closed = 1;
nodes = (
"730 446 LINE",
"730 556 LINE",
"150 556 LINE",
"150 446 LINE"
);
},
{
closed = 1;
nodes = (
"730 676 LINE",
"730 786 LINE",
"150 786 LINE",
"150 676 LINE"
);
},
{
closed = 1;
nodes = (
"740 1422 LINE",
"610 1422 LINE",
"610 1111 LINE",
"130 1442 LINE",
"130 890 LINE",
"260 890 LINE",
"260 1207 LINE",
"740 870 LINE"
);
}
);
width = 1175;
}
);
note = uniA063;
unicode = A063;
},
{
glyphname = "bbuop-yi";
lastChange = "2016-11-10 14:40:56 +0000";
layers = (
{
layerId = "7EC89B61-8520-4E3C-9660-9B6BD7352386";
paths = (
{
closed = 1;
nodes = (
"671 -26 OFFCURVE",
"714 -15 OFFCURVE",
"750 8 CURVE SMOOTH",
"822 53 OFFCURVE",
"865 136 OFFCURVE",
"887 288 CURVE SMOOTH",
"898 364 OFFCURVE",
"903 494 OFFCURVE",
"903 678 CURVE SMOOTH",
"903 806 LINE SMOOTH",
"903 975 OFFCURVE",
"898 1097 OFFCURVE",
"888 1174 CURVE SMOOTH",
"878 1250 OFFCURVE",
"862 1310 OFFCURVE",
"841 1355 CURVE SMOOTH",
"798 1444 OFFCURVE",
"727 1488 OFFCURVE",
"622 1488 CURVE SMOOTH",
"569 1488 OFFCURVE",
"525 1477 OFFCURVE",
"489 1456 CURVE SMOOTH",
"417 1412 OFFCURVE",
"375 1329 OFFCURVE",
"355 1179 CURVE SMOOTH",
"345 1104 OFFCURVE",
"340 982 OFFCURVE",
"340 813 CURVE SMOOTH",
"340 668 LINE SMOOTH",
"340 493 OFFCURVE",
"345 367 OFFCURVE",
"356 289 CURVE SMOOTH",
"367 211 OFFCURVE",
"383 150 OFFCURVE",
"405 107 CURVE SMOOTH",
"448 19 OFFCURVE",
"516 -26 OFFCURVE",
"620 -26 CURVE SMOOTH"
);
},
{
closed = 1;
nodes = (
"250 135 LINE",
"250 463 LINE",
"120 463 LINE",
"120 135 LINE"
);
},
{
closed = 1;
nodes = (
"549 94 OFFCURVE",
"512 143 OFFCURVE",
"494 240 CURVE SMOOTH",
"485 288 OFFCURVE",
"480 368 OFFCURVE",
"480 480 CURVE SMOOTH",
"480 1001 LINE SMOOTH",
"480 1110 OFFCURVE",
"485 1188 OFFCURVE",
"494 1233 CURVE SMOOTH",
"512 1324 OFFCURVE",
"551 1368 OFFCURVE",
"620 1368 CURVE SMOOTH",
"691 1368 OFFCURVE",
"730 1322 OFFCURVE",
"749 1229 CURVE SMOOTH",
"758 1182 OFFCURVE",
"763 1103 OFFCURVE",
"763 991 CURVE SMOOTH",
"763 475 LINE SMOOTH",
"763 363 OFFCURVE",
"758 283 OFFCURVE",
"749 236 CURVE SMOOTH",
"730 141 OFFCURVE",
"692 94 OFFCURVE",
"620 94 CURVE SMOOTH"
);
},
{
closed = 1;
nodes = (
"1123 135 LINE",
"1123 463 LINE",
"993 463 LINE",
"993 135 LINE"
);
},
{
closed = 1;
nodes = (
"250 1062 LINE",
"250 1390 LINE",
"120 1390 LINE",
"120 1062 LINE"
);
},
{
closed = 1;
nodes = (
"1123 1062 LINE",
"1123 1390 LINE",
"993 1390 LINE",
"993 1062 LINE"
);
}
);
width = 1243;
}
);
note = uniA064;
unicode = A064;
},
{
glyphname = "bbup-yi";
lastChange = "2016-11-10 14:40:56 +0000";
layers = (
{
layerId = "7EC89B61-8520-4E3C-9660-9B6BD7352386";
paths = (
{
closed = 1;
nodes = (
"280 0 LINE",
"280 381 LINE",
"707 177 LINE",
"707 1276 LINE",
"953 1148 LINE",
"1014 1260 LINE",
"567 1488 LINE",
"567 1042 LINE",
"140 1331 LINE",
"140 820 LINE",
"270 820 LINE",
"270 1092 LINE",
"567 900 LINE",
"567 378 LINE",
"140 600 LINE",
"140 0 LINE"
);
},
{
closed = 1;
nodes = (
"975 547 LINE",
"975 964 LINE",
"845 964 LINE",
"845 547 LINE"
);
}
);
width = 1134;
}
);
note = uniA06F;
unicode = A06F;
},
{
glyphname = "bbur-yi";
lastChange = "2016-11-10 14:40:56 +0000";
layers = (
{
layerId = "7EC89B61-8520-4E3C-9660-9B6BD7352386";
paths = (
{
closed = 1;
nodes = (
"261 30 LINE",
"296 349 OFFCURVE",
"409 522 OFFCURVE",
"588 522 CURVE SMOOTH",
"773 522 OFFCURVE",
"884 358 OFFCURVE",
"919 30 CURVE",
"1049 30 LINE",
"1014 378 OFFCURVE",
"884 591 OFFCURVE",
"673 634 CURVE",
"1011 1437 LINE",
"895 1482 LINE",
"598 763 LINE",
"149 1435 LINE",
"149 652 LINE",
"279 652 LINE",
"279 1029 LINE",
"542 639 LINE",
"313 612 OFFCURVE",
"167 397 OFFCURVE",
"130 30 CURVE"
);
},
{
closed = 1;
nodes = (
"655 0 LINE",
"655 316 LINE",
"525 316 LINE",
"525 0 LINE"
);
}
);
width = 1179;
}
);
note = uniA071;
unicode = A071;
},
{
glyphname = "bbut-yi";
lastChange = "2016-11-10 14:40:56 +0000";
layers = (
{
layerId = "7EC89B61-8520-4E3C-9660-9B6BD7352386";
paths = (
{
closed = 1;
nodes = (
"581 0 LINE",
"581 687 LINE",
"821 573 LINE",
"821 1462 LINE",
"681 1462 LINE",
"681 772 LINE",
"441 891 LINE",
"441 0 LINE"
);
},
{
closed = 1;
nodes = (
"239 132 OFFCURVE",
"341 233 OFFCURVE",
"341 369 CURVE SMOOTH",
"341 498 OFFCURVE",
"257 598 OFFCURVE",
"80 634 CURVE",
"80 517 LINE",
"164 493 OFFCURVE",
"216 454 OFFCURVE",
"216 369 CURVE SMOOTH",
"216 296 OFFCURVE",
"176 249 OFFCURVE",
"80 220 CURVE",
"80 100 LINE"
);
},
{
closed = 1;
nodes = (
"942 107 LINE",
"858 131 OFFCURVE",
"806 170 OFFCURVE",
"806 255 CURVE SMOOTH",
"806 327 OFFCURVE",
"845 373 OFFCURVE",
"942 404 CURVE",
"942 524 LINE",
"783 492 OFFCURVE",
"681 391 OFFCURVE",
"681 255 CURVE SMOOTH",
"681 124 OFFCURVE",
"765 26 OFFCURVE",
"942 -10 CURVE"
);
},
{
closed = 1;
nodes = (
"479 959 OFFCURVE",
"581 1060 OFFCURVE",
"581 1196 CURVE SMOOTH",
"581 1325 OFFCURVE",
"497 1425 OFFCURVE",
"320 1461 CURVE",
"320 1344 LINE",
"404 1320 OFFCURVE",
"456 1281 OFFCURVE",
"456 1196 CURVE SMOOTH",
"456 1123 OFFCURVE",
"416 1076 OFFCURVE",
"320 1047 CURVE",
"320 927 LINE"
);
},
{
closed = 1;
nodes = (
"1182 1044 LINE",
"1098 1068 OFFCURVE",
"1046 1107 OFFCURVE",
"1046 1192 CURVE SMOOTH",
"1046 1264 OFFCURVE",
"1085 1310 OFFCURVE",
"1182 1341 CURVE",
"1182 1461 LINE",
"1023 1429 OFFCURVE",
"921 1328 OFFCURVE",
"921 1192 CURVE SMOOTH",
"921 1061 OFFCURVE",
"1005 963 OFFCURVE",
"1182 927 CURVE"
);
}
);
width = 1262;
}
);
note = uniA06C;
unicode = A06C;
},
{
glyphname = "bby-yi";
lastChange = "2016-11-10 14:40:56 +0000";
layers = (
{
layerId = "7EC89B61-8520-4E3C-9660-9B6BD7352386";
paths = (
{
closed = 1;
nodes = (
"250 0 LINE",
"250 237 LINE",
"613 30 LINE",
"613 1204 LINE",
"836 1086 LINE",
"836 852 LINE",
"966 852 LINE",
"966 1462 LINE",
"836 1462 LINE",
"836 1225 LINE",
"473 1432 LINE",
"473 258 LINE",
"250 375 LINE",
"250 610 LINE",
"120 610 LINE",
"120 0 LINE"
);
}
);
width = 1086;
}
);
note = uniA074;
unicode = A074;
},
{
glyphname = "bbyp-yi";
lastChange = "2016-11-10 14:40:56 +0000";
layers = (
{
layerId = "7EC89B61-8520-4E3C-9660-9B6BD7352386";
paths = (
{
closed = 1;
nodes = (
"593 501 LINE",
"903 324 LINE",
"964 439 LINE",
"593 651 LINE",
"593 1267 LINE",
"903 1092 LINE",
"964 1204 LINE",
"453 1488 LINE",
"453 1030 LINE",
"149 1204 LINE",
"88 1089 LINE",
"453 880 LINE",
"453 202 LINE",
"141 370 LINE",
"80 258 LINE",
"593 -26 LINE"
);
}
);
width = 1044;
}
);
note = uniA075;
unicode = A075;
},
{
glyphname = "bbyt-yi";
lastChange = "2016-11-10 14:40:56 +0000";
layers = (
{
layerId = "7EC89B61-8520-4E3C-9660-9B6BD7352386";
paths = (
{
closed = 1;
nodes = (
"421 454 LINE",
"721 454 LINE",
"721 231 LINE",
"578 332 LINE",
"520 228 LINE",
"861 -20 LINE",
"861 1237 LINE",
"1004 1136 LINE",
"1062 1240 LINE",
"721 1488 LINE",
"721 1248 LINE",
"281 1492 LINE",
"281 231 LINE",
"138 332 LINE",
"80 228 LINE",
"421 -20 LINE"
);
},
{
closed = 1;
nodes = (
"629 756 LINE",
"629 953 LINE",
"522 953 LINE",
"522 756 LINE"
);
},
{
closed = 1;
nodes = (
"421 1265 LINE",
"721 1103 LINE",
"721 564 LINE",
"421 564 LINE"
);
}
);
width = 1142;
}
);
note = uniA072;
unicode = A072;
},
{
glyphname = "be-yi";
lastChange = "2016-11-10 14:40:56 +0000";
layers = (
{
layerId = "7EC89B61-8520-4E3C-9660-9B6BD7352386";
paths = (
{
closed = 1;
nodes = (
"697 850 LINE",
"697 1127 LINE SMOOTH",
"697 1288 OFFCURVE",
"747 1368 OFFCURVE",
"848 1368 CURVE SMOOTH",
"933 1368 OFFCURVE",
"968 1333 OFFCURVE",
"986 1237 CURVE SMOOTH",
"995 1189 OFFCURVE",
"999 1120 OFFCURVE",
"999 1030 CURVE",
"1134 1030 LINE",
"1134 1151 OFFCURVE",
"1124 1243 OFFCURVE",
"1104 1306 CURVE SMOOTH",
"1063 1433 OFFCURVE",
"981 1488 OFFCURVE",
"858 1488 CURVE SMOOTH",
"757 1488 OFFCURVE",
"680 1447 OFFCURVE",
"627 1366 CURVE",
"572 1447 OFFCURVE",
"495 1488 OFFCURVE",
"396 1488 CURVE SMOOTH",
"335 1488 OFFCURVE",
"284 1473 OFFCURVE",
"243 1444 CURVE SMOOTH",
"160 1385 OFFCURVE",
"120 1269 OFFCURVE",
"120 1030 CURVE",
"255 1030 LINE",
"255 1122 OFFCURVE",
"260 1192 OFFCURVE",
"269 1239 CURVE SMOOTH",
"287 1333 OFFCURVE",
"321 1368 OFFCURVE",
"406 1368 CURVE SMOOTH",
"507 1368 OFFCURVE",
"557 1288 OFFCURVE",
"557 1127 CURVE SMOOTH",
"557 850 LINE"
);
},
{
closed = 1;
nodes = (
"840 -26 OFFCURVE",
"980 156 OFFCURVE",
"1012 500 CURVE",
"875 500 LINE",
"858 240 OFFCURVE",
"765 94 OFFCURVE",
"618 94 CURVE SMOOTH",
"474 94 OFFCURVE",
"382 245 OFFCURVE",
"365 500 CURVE",
"229 500 LINE",
"265 159 OFFCURVE",
"408 -26 OFFCURVE",
"620 -26 CURVE SMOOTH"
);
},
{
closed = 1;
nodes = (
"692 396 LINE",
"692 724 LINE",
"562 724 LINE",
"562 396 LINE"
);
}
);
width = 1254;
}
);
note = uniA02A;
unicode = A02A;
},
{
glyphname = "bep-yi";
lastChange = "2016-11-10 14:40:56 +0000";
layers = (
{
layerId = "7EC89B61-8520-4E3C-9660-9B6BD7352386";
paths = (
{
closed = 1;
nodes = (
"800 0 LINE",
"800 120 LINE",
"530 120 LINE",
"530 611 LINE",
"728 410 LINE",
"810 492 LINE",
"541 766 LINE",
"810 1040 LINE",
"726 1119 LINE",
"530 919 LINE",
"530 1342 LINE",
"800 1342 LINE",
"800 1462 LINE",
"120 1462 LINE",
"120 1342 LINE",
"390 1342 LINE",
"390 919 LINE",
"194 1119 LINE",
"110 1040 LINE",
"379 766 LINE",
"110 492 LINE",
"192 410 LINE",
"390 611 LINE",
"390 120 LINE",
"120 120 LINE",
"120 0 LINE"
);
}
);
width = 920;
}
);
note = uniA02B;
unicode = A02B;
},
{
glyphname = "bi-yi";
lastChange = "2016-11-10 14:40:56 +0000";
layers = (
{
layerId = "7EC89B61-8520-4E3C-9660-9B6BD7352386";
paths = (
{
closed = 1;
nodes = (
"320 0 LINE",
"320 694 LINE",
"464 694 LINE",
"479 399 OFFCURVE",
"663 163 OFFCURVE",
"955 58 CURVE",
"1010 168 LINE",
"777 251 OFFCURVE",
"620 446 OFFCURVE",
"604 694 CURVE",
"954 694 LINE",
"954 814 LINE",
"608 814 LINE",
"633 1031 OFFCURVE",
"775 1206 OFFCURVE",
"998 1290 CURVE",
"954 1404 LINE",
"678 1304 OFFCURVE",
"498 1089 OFFCURVE",
"467 814 CURVE",
"320 814 LINE",
"320 1462 LINE",
"180 1462 LINE",
"180 0 LINE"
);
}
);
width = 1090;
}
);
note = uniA018;
unicode = A018;
},
{
glyphname = "bie-yi";
lastChange = "2016-11-10 14:40:56 +0000";
layers = (
{
layerId = "7EC89B61-8520-4E3C-9660-9B6BD7352386";
paths = (
{
closed = 1;
nodes = (
"769 -26 OFFCURVE",
"884 147 OFFCURVE",
"884 535 CURVE SMOOTH",
"884 937 LINE SMOOTH",
"884 992 OFFCURVE",
"881 1043 OFFCURVE",
"876 1090 CURVE",
"1117 1385 LINE",
"1025 1462 LINE",
"847 1244 LINE",
"798 1405 OFFCURVE",
"695 1488 OFFCURVE",
"512 1488 CURVE SMOOTH",
"252 1488 OFFCURVE",
"140 1321 OFFCURVE",
"140 937 CURVE SMOOTH",
"140 535 LINE SMOOTH",
"140 146 OFFCURVE",
"255 -26 OFFCURVE",
"512 -26 CURVE SMOOTH"
);
},
{
closed = 1;
nodes = (
"372 94 OFFCURVE",
"306 169 OFFCURVE",
"286 365 CURVE",
"744 927 LINE",
"744 515 LINE SMOOTH",
"744 206 OFFCURVE",
"681 94 OFFCURVE",
"512 94 CURVE SMOOTH"
);
},
{
closed = 1;
nodes = (
"280 947 LINE SMOOTH",
"280 1256 OFFCURVE",
"343 1368 OFFCURVE",
"512 1368 CURVE SMOOTH",
"651 1368 OFFCURVE",
"716 1292 OFFCURVE",
"736 1107 CURVE",
"280 547 LINE"
);
}
);
width = 1197;
}
);
note = uniA01C;
unicode = A01C;
},
{
glyphname = "biep-yi";
lastChange = "2016-11-10 14:40:56 +0000";
layers = (
{
layerId = "7EC89B61-8520-4E3C-9660-9B6BD7352386";
paths = (
{
closed = 1;
nodes = (
"544 -26 OFFCURVE",
"605 -2 OFFCURVE",
"654 45 CURVE SMOOTH",
"750 139 OFFCURVE",
"798 324 OFFCURVE",
"802 688 CURVE",
"812 688 LINE SMOOTH",
"925 688 OFFCURVE",
"1014 586 OFFCURVE",
"1014 451 CURVE SMOOTH",
"1014 324 OFFCURVE",
"976 251 OFFCURVE",
"888 183 CURVE",
"967 93 LINE",
"1092 189 OFFCURVE",
"1155 302 OFFCURVE",
"1155 451 CURVE SMOOTH",
"1155 564 OFFCURVE",
"1092 682 OFFCURVE",
"999 742 CURVE",
"1094 806 OFFCURVE",
"1155 917 OFFCURVE",
"1155 1030 CURVE SMOOTH",
"1155 1190 OFFCURVE",
"1095 1297 OFFCURVE",
"982 1389 CURVE",
"891 1303 LINE",
"974 1241 OFFCURVE",
"1015 1151 OFFCURVE",
"1015 1034 CURVE SMOOTH",
"1015 903 OFFCURVE",
"931 798 OFFCURVE",
"812 798 CURVE SMOOTH",
"802 798 LINE",
"800 978 OFFCURVE",
"787 1116 OFFCURVE",
"763 1212 CURVE SMOOTH",
"714 1404 OFFCURVE",
"620 1488 OFFCURVE",
"472 1488 CURVE SMOOTH",
"312 1488 OFFCURVE",
"218 1383 OFFCURVE",
"174 1180 CURVE SMOOTH",
"151 1078 OFFCURVE",
"140 932 OFFCURVE",
"140 741 CURVE SMOOTH",
"140 545 OFFCURVE",
"152 393 OFFCURVE",
"175 286 CURVE SMOOTH",
"221 70 OFFCURVE",
"319 -26 OFFCURVE",
"470 -26 CURVE SMOOTH"
);
},
{
closed = 1;
nodes = (
"377 94 OFFCURVE",
"323 179 OFFCURVE",
"299 350 CURVE SMOOTH",
"286 435 OFFCURVE",
"280 566 OFFCURVE",
"280 741 CURVE SMOOTH",
"280 914 OFFCURVE",
"286 1041 OFFCURVE",
"299 1124 CURVE SMOOTH",
"323 1288 OFFCURVE",
"375 1368 OFFCURVE",
"470 1368 CURVE SMOOTH",
"565 1368 OFFCURVE",
"619 1286 OFFCURVE",
"644 1121 CURVE SMOOTH",
"657 1038 OFFCURVE",
"663 909 OFFCURVE",
"663 733 CURVE SMOOTH",
"663 554 OFFCURVE",
"657 424 OFFCURVE",
"644 342 CURVE SMOOTH",
"619 177 OFFCURVE",
"565 94 OFFCURVE",
"470 94 CURVE SMOOTH"
);
}
);
width = 1285;
}
);
note = uniA01D;
unicode = A01D;
},
{
glyphname = "biet-yi";
lastChange = "2016-11-10 14:40:56 +0000";
layers = (
{
layerId = "7EC89B61-8520-4E3C-9660-9B6BD7352386";
paths = (
{
closed = 1;
nodes = (
"544 -26 OFFCURVE",
"605 -2 OFFCURVE",
"654 46 CURVE SMOOTH",
"751 141 OFFCURVE",
"799 326 OFFCURVE",
"803 694 CURVE",
"885 694 LINE",
"901 443 OFFCURVE",
"1031 236 OFFCURVE",
"1239 121 CURVE",
"1302 229 LINE",
"1130 331 OFFCURVE",
"1038 486 OFFCURVE",
"1025 694 CURVE",
"1175 694 LINE",
"1175 814 LINE",
"1027 814 LINE",
"1044 1017 OFFCURVE",
"1137 1154 OFFCURVE",
"1302 1257 CURVE",
"1239 1365 LINE",
"1024 1240 OFFCURVE",
"907 1042 OFFCURVE",
"887 814 CURVE",
"802 814 LINE",
"800 983 OFFCURVE",
"787 1114 OFFCURVE",
"764 1207 CURVE SMOOTH",
"717 1393 OFFCURVE",
"627 1488 OFFCURVE",
"472 1488 CURVE SMOOTH",
"312 1488 OFFCURVE",
"218 1383 OFFCURVE",
"174 1180 CURVE SMOOTH",
"151 1078 OFFCURVE",
"140 932 OFFCURVE",
"140 741 CURVE SMOOTH",
"140 545 OFFCURVE",
"152 393 OFFCURVE",
"175 286 CURVE SMOOTH",
"221 70 OFFCURVE",
"319 -26 OFFCURVE",
"470 -26 CURVE SMOOTH"
);
},
{
closed = 1;
nodes = (
"377 94 OFFCURVE",
"323 179 OFFCURVE",
"299 350 CURVE SMOOTH",
"286 435 OFFCURVE",
"280 566 OFFCURVE",
"280 741 CURVE SMOOTH",
"280 914 OFFCURVE",
"286 1041 OFFCURVE",
"299 1124 CURVE SMOOTH",
"323 1288 OFFCURVE",
"375 1368 OFFCURVE",
"470 1368 CURVE SMOOTH",
"565 1368 OFFCURVE",
"619 1286 OFFCURVE",
"644 1121 CURVE SMOOTH",
"657 1038 OFFCURVE",
"663 909 OFFCURVE",
"663 733 CURVE SMOOTH",
"663 554 OFFCURVE",
"657 424 OFFCURVE",
"644 342 CURVE SMOOTH",
"619 177 OFFCURVE",
"565 94 OFFCURVE",
"470 94 CURVE SMOOTH"
);
}
);
width = 1382;
}
);
note = uniA01A;
unicode = A01A;
},
{
glyphname = "bip-yi";
lastChange = "2016-11-10 14:40:56 +0000";
layers = (
{
layerId = "7EC89B61-8520-4E3C-9660-9B6BD7352386";
paths = (
{
closed = 1;
nodes = (
"320 0 LINE",
"320 487 LINE",
"395 487 LINE",
"432 296 OFFCURVE",
"655 169 OFFCURVE",
"950 166 CURVE",
"950 285 LINE",
"719 285 OFFCURVE",
"564 362 OFFCURVE",
"528 487 CURVE",
"970 487 LINE",
"970 607 LINE",
"528 607 LINE",
"560 722 OFFCURVE",
"689 789 OFFCURVE",
"950 801 CURVE",
"950 920 LINE",
"641 913 OFFCURVE",
"430 798 OFFCURVE",
"395 607 CURVE",
"320 607 LINE",
"320 1215 LINE",
"887 994 LINE",
"887 1462 LINE",
"747 1462 LINE",
"747 1176 LINE",
"180 1402 LINE",
"180 0 LINE"
);
}
);
width = 1090;
}
);
note = uniA019;
unicode = A019;
},
{
glyphname = "bit-yi";
lastChange = "2016-11-10 14:40:56 +0000";
layers = (
{
layerId = "7EC89B61-8520-4E3C-9660-9B6BD7352386";
paths = (
{
closed = 1;
nodes = (
"769 -26 OFFCURVE",
"884 147 OFFCURVE",
"884 535 CURVE SMOOTH",
"884 623 LINE",
"1117 387 LINE",
"1202 466 LINE",
"893 777 LINE",
"1202 1090 LINE",
"1119 1169 LINE",
"884 931 LINE",
"884 937 LINE SMOOTH",
"884 1322 OFFCURVE",
"772 1488 OFFCURVE",
"512 1488 CURVE SMOOTH",
"252 1488 OFFCURVE",
"140 1321 OFFCURVE",
"140 937 CURVE SMOOTH",
"140 535 LINE SMOOTH",
"140 146 OFFCURVE",
"255 -26 OFFCURVE",
"512 -26 CURVE SMOOTH"
);
},
{
closed = 1;
nodes = (
"343 94 OFFCURVE",
"280 203 OFFCURVE",
"280 515 CURVE SMOOTH",
"280 947 LINE SMOOTH",
"280 1256 OFFCURVE",
"343 1368 OFFCURVE",
"512 1368 CURVE SMOOTH",
"681 1368 OFFCURVE",
"744 1259 OFFCURVE",
"744 947 CURVE SMOOTH",
"744 928 LINE",
"506 1169 LINE",
"423 1090 LINE",
"731 777 LINE",
"423 466 LINE",
"508 387 LINE",
"744 626 LINE",
"744 515 LINE SMOOTH",
"744 206 OFFCURVE",
"681 94 OFFCURVE",
"512 94 CURVE SMOOTH"
);
}
);
width = 1282;
}
);
note = uniA016;
unicode = A016;
},
{
glyphname = "bo-yi";
lastChange = "2016-11-10 14:40:56 +0000";
layers = (
{
layerId = "7EC89B61-8520-4E3C-9660-9B6BD7352386";
paths = (
{
closed = 1;
nodes = (
"783 -26 OFFCURVE",
"924 202 OFFCURVE",
"924 605 CURVE SMOOTH",
"924 857 LINE SMOOTH",
"924 1260 OFFCURVE",
"783 1488 OFFCURVE",
"532 1488 CURVE SMOOTH",
"280 1488 OFFCURVE",
"140 1258 OFFCURVE",
"140 857 CURVE SMOOTH",
"140 605 LINE SMOOTH",
"140 202 OFFCURVE",
"281 -26 OFFCURVE",
"532 -26 CURVE SMOOTH"
);
},
{
closed = 1;
nodes = (
"369 94 OFFCURVE",
"280 268 OFFCURVE",
"280 595 CURVE SMOOTH",
"280 867 LINE SMOOTH",
"280 1191 OFFCURVE",
"368 1368 OFFCURVE",
"532 1368 CURVE SMOOTH",
"695 1368 OFFCURVE",
"784 1194 OFFCURVE",
"784 867 CURVE SMOOTH",
"784 595 LINE SMOOTH",
"784 271 OFFCURVE",
"696 94 OFFCURVE",
"532 94 CURVE SMOOTH"
);
},
{
closed = 1;
nodes = (
"707 370 LINE",
"707 480 LINE",
"597 480 LINE",
"597 1020 LINE",
"707 1020 LINE",
"707 1130 LINE",
"357 1130 LINE",
"357 1020 LINE",
"467 1020 LINE",
"467 480 LINE",
"357 480 LINE",
"357 370 LINE"
);
}
);
width = 1064;
}
);
note = uniA027;
unicode = A027;
},
{
glyphname = "bop-yi";
lastChange = "2016-11-10 14:40:56 +0000";
layers = (
{
layerId = "7EC89B61-8520-4E3C-9660-9B6BD7352386";
paths = (
{
closed = 1;
nodes = (
"960 812 LINE",
"960 932 LINE",
"600 932 LINE",
"600 1342 LINE",
"920 1342 LINE",
"920 1462 LINE",
"140 1462 LINE",
"140 1342 LINE",
"460 1342 LINE",
"460 932 LINE",
"100 932 LINE",
"100 812 LINE"
);
},
{
closed = 1;
nodes = (
"960 0 LINE",
"960 120 LINE",
"600 120 LINE",
"600 530 LINE",
"920 530 LINE",
"920 650 LINE",
"140 650 LINE",
"140 530 LINE",
"460 530 LINE",
"460 120 LINE",
"100 120 LINE",
"100 0 LINE"
);
}
);
width = 1060;
}
);
note = uniA028;
unicode = A028;
},
{
glyphname = "bot-yi";
lastChange = "2016-11-10 14:40:56 +0000";
layers = (
{
layerId = "7EC89B61-8520-4E3C-9660-9B6BD7352386";
paths = (
{
closed = 1;
nodes = (
"1109 119 LINE",
"857 119 OFFCURVE",
"719 212 OFFCURVE",
"719 387 CURVE SMOOTH",
"719 448 OFFCURVE",
"736 501 OFFCURVE",
"769 544 CURVE SMOOTH",
"836 631 OFFCURVE",
"958 677 OFFCURVE",
"1109 680 CURVE",
"1109 782 LINE",
"1034 783 OFFCURVE",
"968 796 OFFCURVE",
"909 819 CURVE SMOOTH",
"791 865 OFFCURVE",
"719 952 OFFCURVE",
"719 1075 CURVE SMOOTH",
"719 1250 OFFCURVE",
"858 1343 OFFCURVE",
"1109 1343 CURVE",
"1109 1462 LINE",
"850 1459 OFFCURVE",
"660 1365 OFFCURVE",
"600 1200 CURVE",
"491 1173 OFFCURVE",
"404 1127 OFFCURVE",
"338 1061 CURVE",
"165 1236 LINE",
"80 1157 LINE",
"267 968 LINE",
"226 897 OFFCURVE",
"206 816 OFFCURVE",
"206 727 CURVE SMOOTH",
"206 638 OFFCURVE",
"227 559 OFFCURVE",
"269 489 CURVE",
"80 299 LINE",
"165 220 LINE",
"342 399 LINE",
"409 335 OFFCURVE",
"494 290 OFFCURVE",
"599 265 CURVE",
"655 101 OFFCURVE",
"838 3 OFFCURVE",
"1109 0 CURVE"
);
},
{
closed = 1;
nodes = (
"522 422 OFFCURVE",
"474 453 OFFCURVE",
"435 494 CURVE",
"528 588 LINE",
"445 667 LINE",
"371 592 LINE",
"354 633 OFFCURVE",
"346 678 OFFCURVE",
"346 727 CURVE SMOOTH",
"346 774 OFFCURVE",
"354 820 OFFCURVE",
"371 863 CURVE",
"445 789 LINE",
"528 868 LINE",
"434 963 LINE",
"473 1005 OFFCURVE",
"522 1038 OFFCURVE",
"579 1061 CURVE",
"584 903 OFFCURVE",
"668 793 OFFCURVE",
"831 731 CURVE",
"671 670 OFFCURVE",
"584 558 OFFCURVE",
"579 399 CURVE"
);
}
);
width = 1231;
}
);
note = uniA025;
unicode = A025;
},
{
glyphname = "bu-yi";
lastChange = "2016-11-10 14:40:56 +0000";
layers = (
{
layerId = "7EC89B61-8520-4E3C-9660-9B6BD7352386";
paths = (
{
closed = 1;
nodes = (
"592 1462 LINE",
"452 1462 LINE",
"452 202 LINE",
"136 371 LINE",
"80 258 LINE",
"592 -26 LINE"
);
},
{
closed = 1;
nodes = (
"934 109 LINE",
"934 869 LINE",
"804 869 LINE",
"804 109 LINE"
);
}
);
width = 1074;
}
);
note = uniA02E;
unicode = A02E;
},
{
glyphname = "buo-yi";
lastChange = "2016-11-10 14:40:56 +0000";
layers = (
{
layerId = "7EC89B61-8520-4E3C-9660-9B6BD7352386";
paths = (
{
closed = 1;
nodes = (
"297 0 LINE",
"297 327 LINE",
"435 275 LINE SMOOTH",
"602 207 OFFCURVE",
"673 187 OFFCURVE",
"741 187 CURVE SMOOTH",
"816 187 OFFCURVE",
"872 198 OFFCURVE",
"909 219 CURVE SMOOTH",
"984 262 OFFCURVE",
"1013 349 OFFCURVE",
"1013 541 CURVE SMOOTH",
"1013 1072 LINE SMOOTH",
"1013 1351 OFFCURVE",
"891 1488 OFFCURVE",
"638 1488 CURVE SMOOTH",
"459 1488 OFFCURVE",
"264 1404 OFFCURVE",
"100 1259 CURVE",
"170 1168 LINE",
"311 1292 OFFCURVE",
"481 1368 OFFCURVE",
"638 1368 CURVE SMOOTH",
"809 1368 OFFCURVE",
"873 1267 OFFCURVE",
"873 1058 CURVE SMOOTH",
"873 604 LINE SMOOTH",
"873 489 OFFCURVE",
"870 416 OFFCURVE",
"865 385 CURVE SMOOTH",
"854 323 OFFCURVE",
"834 307 OFFCURVE",
"741 307 CURVE SMOOTH",
"665 307 OFFCURVE",
"481 378 OFFCURVE",
"190 520 CURVE",
"157 520 LINE",
"157 0 LINE"
);
},
{
closed = 1;
nodes = (
"729 602 LINE",
"729 712 LINE",
"579 712 LINE",
"579 1012 LINE",
"729 1012 LINE",
"729 1122 LINE",
"299 1122 LINE",
"299 1012 LINE",
"449 1012 LINE",
"449 712 LINE",
"299 712 LINE",
"299 602 LINE"
);
}
);
width = 1193;
}
);
note = uniA023;
unicode = A023;
},
{
glyphname = "buop-yi";
lastChange = "2016-11-10 14:40:56 +0000";
layers = (
{
layerId = "7EC89B61-8520-4E3C-9660-9B6BD7352386";
paths = (
{
closed = 1;
nodes = (
"800 0 LINE",
"800 120 LINE",
"530 120 LINE",
"530 1342 LINE",
"800 1342 LINE",
"800 1462 LINE",
"120 1462 LINE",
"120 1342 LINE",
"390 1342 LINE",
"390 120 LINE",
"120 120 LINE",
"120 0 LINE"
);
}
);
width = 920;
}
);
note = uniA024;
unicode = A024;
},
{
glyphname = "bup-yi";
lastChange = "2016-11-10 14:40:56 +0000";
layers = (
{
layerId = "7EC89B61-8520-4E3C-9660-9B6BD7352386";
paths = (
{
closed = 1;
nodes = (
"892 120 LINE",
"790 120 OFFCURVE",
"689 149 OFFCURVE",
"589 207 CURVE SMOOTH",
"388 323 OFFCURVE",
"280 512 OFFCURVE",
"280 741 CURVE SMOOTH",
"280 856 OFFCURVE",
"306 957 OFFCURVE",
"358 1046 CURVE SMOOTH",
"461 1222 OFFCURVE",
"679 1342 OFFCURVE",
"892 1342 CURVE",
"892 1462 LINE",
"756 1454 OFFCURVE",
"628 1417 OFFCURVE",
"508 1350 CURVE SMOOTH",
"268 1216 OFFCURVE",
"140 1002 OFFCURVE",
"140 741 CURVE SMOOTH",
"140 612 OFFCURVE",
"171 495 OFFCURVE",
"234 388 CURVE SMOOTH",
"358 175 OFFCURVE",
"623 17 OFFCURVE",
"894 0 CURVE"
);
},
{
closed = 1;
nodes = (
"836 475 LINE",
"685 475 OFFCURVE",
"589 578 OFFCURVE",
"589 738 CURVE SMOOTH",
"589 789 OFFCURVE",
"599 837 OFFCURVE",
"619 881 CURVE SMOOTH",
"659 969 OFFCURVE",
"735 1022 OFFCURVE",
"836 1022 CURVE",
"836 1132 LINE",
"759 1132 OFFCURVE",
"693 1114 OFFCURVE",
"637 1078 CURVE SMOOTH",
"524 1006 OFFCURVE",
"459 877 OFFCURVE",
"459 738 CURVE SMOOTH",
"459 667 OFFCURVE",
"476 602 OFFCURVE",
"510 543 CURVE SMOOTH",
"577 425 OFFCURVE",
"692 364 OFFCURVE",
"836 364 CURVE"
);
}
);
width = 1014;
}
);
note = uniA02F;
unicode = A02F;
},
{
glyphname = "bur-yi";
lastChange = "2016-11-10 14:40:56 +0000";
layers = (
{
layerId = "7EC89B61-8520-4E3C-9660-9B6BD7352386";
paths = (
{
closed = 1;
nodes = (
"602 -26 OFFCURVE",
"664 -6 OFFCURVE",
"716 35 CURVE SMOOTH",
"819 116 OFFCURVE",
"876 288 OFFCURVE",
"883 517 CURVE",
"1084 517 LINE",
"1084 637 LINE",
"884 637 LINE",
"884 867 LINE",
"1084 867 LINE",
"1084 987 LINE",
"884 987 LINE",
"884 1155 LINE SMOOTH",
"884 1209 OFFCURVE",
"887 1250 OFFCURVE",
"894 1278 CURVE SMOOTH",
"906 1333 OFFCURVE",
"935 1368 OFFCURVE",
"987 1368 CURVE SMOOTH",
"1034 1368 OFFCURVE",
"1060 1348 OFFCURVE",
"1095 1321 CURVE",
"1141 1429 LINE",
"1094 1468 OFFCURVE",
"1042 1488 OFFCURVE",
"985 1488 CURVE SMOOTH",
"824 1488 OFFCURVE",
"744 1378 OFFCURVE",
"744 1159 CURVE SMOOTH",
"744 987 LINE",
"544 987 LINE",
"544 867 LINE",
"744 867 LINE",
"744 637 LINE",
"544 637 LINE",
"544 517 LINE",
"743 517 LINE",
"738 378 OFFCURVE",
"717 272 OFFCURVE",
"682 201 CURVE SMOOTH",
"647 130 OFFCURVE",
"597 94 OFFCURVE",
"533 94 CURVE SMOOTH",
"466 94 OFFCURVE",
"414 136 OFFCURVE",
"377 221 CURVE SMOOTH",
"339 306 OFFCURVE",
"320 422 OFFCURVE",
"320 571 CURVE SMOOTH",
"320 1462 LINE",
"180 1462 LINE",
"180 582 LINE SMOOTH",
"180 182 OFFCURVE",
"299 -26 OFFCURVE",
"531 -26 CURVE SMOOTH"
);
}
);
width = 1241;
}
);
note = uniA031;
unicode = A031;
},
{
glyphname = "but-yi";
lastChange = "2016-11-10 14:40:56 +0000";
layers = (
{
layerId = "7EC89B61-8520-4E3C-9660-9B6BD7352386";
paths = (
{
closed = 1;
nodes = (
"657 0 LINE",
"657 683 LINE",
"736 691 OFFCURVE",
"805 714 OFFCURVE",
"866 751 CURVE SMOOTH",
"986 825 OFFCURVE",
"1052 945 OFFCURVE",
"1052 1084 CURVE SMOOTH",
"1052 1163 OFFCURVE",
"1034 1234 OFFCURVE",
"998 1295 CURVE SMOOTH",
"925 1417 OFFCURVE",
"783 1488 OFFCURVE",
"587 1488 CURVE SMOOTH",
"488 1488 OFFCURVE",
"404 1471 OFFCURVE",
"335 1436 CURVE SMOOTH",
"195 1367 OFFCURVE",
"120 1240 OFFCURVE",
"120 1084 CURVE SMOOTH",
"120 1017 OFFCURVE",
"136 954 OFFCURVE",
"168 895 CURVE SMOOTH",
"232 777 OFFCURVE",
"357 699 OFFCURVE",
"517 683 CURVE",
"517 0 LINE"
);
},
{
closed = 1;
nodes = (
"949 309 LINE",
"949 637 LINE",
"819 637 LINE",
"819 309 LINE"
);
},
{
closed = 1;
nodes = (
"383 801 OFFCURVE",
"260 905 OFFCURVE",
"260 1084 CURVE SMOOTH",
"260 1259 OFFCURVE",
"380 1368 OFFCURVE",
"587 1368 CURVE SMOOTH",
"795 1368 OFFCURVE",
"912 1268 OFFCURVE",
"912 1084 CURVE SMOOTH",
"912 903 OFFCURVE",
"795 801 OFFCURVE",
"587 801 CURVE SMOOTH"
);
}
);
width = 1172;
}
);
note = uniA02C;
unicode = A02C;
},
{
glyphname = "by-yi";
lastChange = "2016-11-10 14:40:56 +0000";
layers = (
{
layerId = "7EC89B61-8520-4E3C-9660-9B6BD7352386";
paths = (
{
closed = 1;
nodes = (
"567 449 LINE",
"931 238 LINE",
"984 342 LINE",
"703 501 LINE",
"984 661 LINE",
"984 701 LINE",
"703 861 LINE",
"984 1020 LINE",
"931 1124 LINE",
"567 913 LINE",
"567 1293 LINE",
"917 1176 LINE",
"961 1299 LINE",
"427 1488 LINE",
"427 202 LINE",
"181 334 LINE",
"120 222 LINE",
"567 -26 LINE"
);
},
{
closed = 1;
nodes = (
"567 812 LINE",
"795 681 LINE",
"567 549 LINE"
);
}
);
width = 1104;
}
);
note = uniA034;
unicode = A034;
},
{
glyphname = "byp-yi";
lastChange = "2016-11-10 14:40:56 +0000";
layers = (
{
layerId = "7EC89B61-8520-4E3C-9660-9B6BD7352386";
paths = (
{
closed = 1;
nodes = (
"887 0 LINE",
"887 1268 LINE",
"1101 1156 LINE",
"1152 1272 LINE",
"747 1492 LINE",
"747 1256 LINE",
"327 1422 LINE",
"327 867 LINE",
"127 867 LINE",
"127 747 LINE",
"327 747 LINE",
"327 389 LINE",
"467 389 LINE",
"467 747 LINE",
"667 747 LINE",
"667 867 LINE",
"467 867 LINE",
"467 1228 LINE",
"747 1113 LINE",
"747 0 LINE"
);
},
{
closed = 1;
nodes = (
"583 -26 OFFCURVE",
"682 119 OFFCURVE",
"694 410 CURVE",
"577 410 LINE",
"562 182 OFFCURVE",
"520 94 OFFCURVE",
"397 94 CURVE SMOOTH",
"318 94 OFFCURVE",
"275 130 OFFCURVE",
"251 201 CURVE SMOOTH",
"238 236 OFFCURVE",
"227 306 OFFCURVE",
"217 410 CURVE",
"100 410 LINE",
"115 109 OFFCURVE",
"213 -26 OFFCURVE",
"397 -26 CURVE SMOOTH"
);
}
);
width = 1232;
}
);
note = uniA035;
unicode = A035;
},
{
glyphname = "byr-yi";
lastChange = "2016-11-10 14:40:56 +0000";
layers = (
{
layerId = "7EC89B61-8520-4E3C-9660-9B6BD7352386";
paths = (
{
closed = 1;
nodes = (
"1091 0 LINE",
"1091 1268 LINE",
"1322 1146 LINE",
"1363 1267 LINE",
"951 1492 LINE",
"951 958 LINE",
"723 958 LINE SMOOTH",
"604 958 OFFCURVE",
"499 938 OFFCURVE",
"407 899 CURVE SMOOTH",
"223 820 OFFCURVE",
"120 671 OFFCURVE",
"120 474 CURVE SMOOTH",
"120 170 OFFCURVE",
"346 0 OFFCURVE",
"747 0 CURVE SMOOTH"
);
},
{
closed = 1;
nodes = (
"479 301 LINE",
"479 418 LINE",
"372 418 LINE",
"372 301 LINE"
);
},
{
closed = 1;
nodes = (
"366 180 OFFCURVE",
"260 305 OFFCURVE",
"260 474 CURVE SMOOTH",
"260 645 OFFCURVE",
"367 772 OFFCURVE",
"555 820 CURVE",
"555 136 LINE"
);
},
{
closed = 1;
nodes = (
"479 534 LINE",
"479 651 LINE",
"372 651 LINE",
"372 534 LINE"
);
},
{
closed = 1;
nodes = (
"874 221 LINE",
"874 418 LINE",
"767 418 LINE",
"767 221 LINE"
);
},
{
closed = 1;
nodes = (
"682 838 LINE",
"951 838 LINE",
"951 120 LINE",
"682 120 LINE"
);
},
{
closed = 1;
nodes = (
"874 534 LINE",
"874 731 LINE",
"767 731 LINE",
"767 534 LINE"
);
}
);
width = 1443;
}
);
note = uniA037;
unicode = A037;
},
{
glyphname = "byt-yi";
lastChange = "2016-11-10 14:40:56 +0000";
layers = (
{
layerId = "7EC89B61-8520-4E3C-9660-9B6BD7352386";
paths = (
{
closed = 1;
nodes = (
"567 356 LINE",
"672 404 OFFCURVE",
"761 474 OFFCURVE",
"834 567 CURVE",
"855 495 OFFCURVE",
"866 417 OFFCURVE",
"866 332 CURVE",
"1001 348 LINE",
"1000 475 OFFCURVE",
"972 593 OFFCURVE",
"919 704 CURVE",
"972 815 OFFCURVE",
"1000 933 OFFCURVE",
"1001 1060 CURVE",
"866 1076 LINE",
"866 991 OFFCURVE",
"855 912 OFFCURVE",
"834 840 CURVE",
"760 934 OFFCURVE",
"671 1005 OFFCURVE",
"567 1052 CURVE",
"567 1293 LINE",
"860 1181 LINE",
"904 1304 LINE",
"427 1488 LINE",
"427 202 LINE",
"181 334 LINE",
"120 222 LINE",
"567 -26 LINE"
);
},
{
closed = 1;
nodes = (
"567 914 LINE",
"657 859 OFFCURVE",
"727 789 OFFCURVE",
"776 704 CURVE",
"727 620 OFFCURVE",
"658 550 OFFCURVE",
"567 493 CURVE"
);
}
);
width = 1121;
}
);
note = uniA032;
unicode = A032;
},
{
glyphname = "ca-yi";
lastChange = "2016-11-10 14:40:56 +0000";
layers = (
{
layerId = "7EC89B61-8520-4E3C-9660-9B6BD7352386";
paths = (
{
closed = 1;
nodes = (
"904 -26 OFFCURVE",
"1073 253 OFFCURVE",
"1073 733 CURVE SMOOTH",
"1073 1210 OFFCURVE",
"906 1488 OFFCURVE",
"607 1488 CURVE SMOOTH",
"311 1488 OFFCURVE",
"140 1208 OFFCURVE",
"140 741 CURVE SMOOTH",
"140 257 OFFCURVE",
"310 -26 OFFCURVE",
"607 -26 CURVE SMOOTH"
);
},
{
closed = 1;
nodes = (
"393 94 OFFCURVE",
"280 314 OFFCURVE",
"280 741 CURVE SMOOTH",
"280 1140 OFFCURVE",
"400 1368 OFFCURVE",
"605 1368 CURVE SMOOTH",
"817 1368 OFFCURVE",
"933 1145 OFFCURVE",
"933 733 CURVE SMOOTH",
"933 320 OFFCURVE",
"816 94 OFFCURVE",
"605 94 CURVE SMOOTH"
);
},
{
closed = 1;
nodes = (
"663 965 LINE",
"798 867 LINE",
"859 974 LINE",
"543 1203 LINE",
"543 512 LINE",
"418 610 LINE",
"357 503 LINE",
"663 274 LINE"
);
}
);
width = 1213;
}
);
note = uniA2B8;
unicode = A2B8;
},
{
glyphname = "cap-yi";
lastChange = "2016-11-10 14:40:56 +0000";
layers = (
{
layerId = "7EC89B61-8520-4E3C-9660-9B6BD7352386";
paths = (
{
closed = 1;
nodes = (
"297 0 LINE",
"297 327 LINE",
"435 275 LINE SMOOTH",
"602 207 OFFCURVE",
"673 187 OFFCURVE",
"741 187 CURVE SMOOTH",
"816 187 OFFCURVE",
"872 198 OFFCURVE",
"909 219 CURVE SMOOTH",
"984 262 OFFCURVE",
"1013 349 OFFCURVE",
"1013 541 CURVE SMOOTH",
"1013 651 LINE",
"1076 658 OFFCURVE",
"1126 677 OFFCURVE",
"1162 709 CURVE SMOOTH",
"1233 773 OFFCURVE",
"1263 859 OFFCURVE",
"1263 1096 CURVE SMOOTH",
"1263 1227 LINE",
"1133 1227 LINE",
"1133 1066 LINE SMOOTH",
"1133 991 OFFCURVE",
"1130 934 OFFCURVE",
"1124 895 CURVE SMOOTH",
"1111 818 OFFCURVE",
"1088 787 OFFCURVE",
"1013 780 CURVE",
"1013 1072 LINE SMOOTH",
"1013 1351 OFFCURVE",
"891 1488 OFFCURVE",
"638 1488 CURVE SMOOTH",
"459 1488 OFFCURVE",
"264 1404 OFFCURVE",
"100 1259 CURVE",
"170 1168 LINE",
"311 1292 OFFCURVE",
"481 1368 OFFCURVE",
"638 1368 CURVE SMOOTH",
"809 1368 OFFCURVE",
"873 1267 OFFCURVE",
"873 1058 CURVE SMOOTH",
"873 604 LINE SMOOTH",
"873 489 OFFCURVE",
"870 416 OFFCURVE",
"865 385 CURVE SMOOTH",
"854 323 OFFCURVE",
"834 307 OFFCURVE",
"741 307 CURVE SMOOTH",
"665 307 OFFCURVE",
"481 378 OFFCURVE",
"190 520 CURVE",
"157 520 LINE",
"157 0 LINE"
);
},
{
closed = 1;
nodes = (
"585 966 LINE",
"716 890 LINE",
"777 1002 LINE",
"455 1164 LINE",
"455 733 LINE",
"324 809 LINE",
"263 697 LINE",
"585 535 LINE"
);
}
);
width = 1383;
}
);
note = uniA2B9;
unicode = A2B9;
},
{
glyphname = "cat-yi";
lastChange = "2016-11-10 14:40:56 +0000";
layers = (
{
layerId = "7EC89B61-8520-4E3C-9660-9B6BD7352386";
paths = (
{
closed = 1;
nodes = (
"904 -26 OFFCURVE",
"1073 253 OFFCURVE",
"1073 733 CURVE SMOOTH",
"1073 1210 OFFCURVE",
"906 1488 OFFCURVE",
"607 1488 CURVE SMOOTH",
"311 1488 OFFCURVE",
"140 1208 OFFCURVE",
"140 741 CURVE SMOOTH",
"140 257 OFFCURVE",
"310 -26 OFFCURVE",
"607 -26 CURVE SMOOTH"
);
},
{
closed = 1;
nodes = (
"763 1179 LINE",
"633 1179 LINE",
"633 895 LINE",
"466 1033 LINE",
"394 928 LINE",
"633 738 LINE",
"633 502 LINE",
"427 640 LINE",
"366 528 LINE",
"763 274 LINE"
);
},
{
closed = 1;
nodes = (
"393 94 OFFCURVE",
"280 314 OFFCURVE",
"280 741 CURVE SMOOTH",
"280 1140 OFFCURVE",
"400 1368 OFFCURVE",
"605 1368 CURVE SMOOTH",
"817 1368 OFFCURVE",
"933 1145 OFFCURVE",
"933 733 CURVE SMOOTH",
"933 320 OFFCURVE",
"816 94 OFFCURVE",
"605 94 CURVE SMOOTH"
);
}
);
width = 1213;
}
);
note = uniA2B6;
unicode = A2B6;
},
{
glyphname = "ce-yi";
lastChange = "2016-11-10 14:40:56 +0000";
layers = (
{
layerId = "7EC89B61-8520-4E3C-9660-9B6BD7352386";
paths = (
{
closed = 1;
nodes = (
"904 -26 OFFCURVE",
"1073 253 OFFCURVE",
"1073 733 CURVE SMOOTH",
"1073 1210 OFFCURVE",
"906 1488 OFFCURVE",
"607 1488 CURVE SMOOTH",
"311 1488 OFFCURVE",
"140 1208 OFFCURVE",
"140 741 CURVE SMOOTH",
"140 257 OFFCURVE",
"310 -26 OFFCURVE",
"607 -26 CURVE SMOOTH"
);
},
{
closed = 1;
nodes = (
"393 94 OFFCURVE",
"280 314 OFFCURVE",
"280 741 CURVE SMOOTH",
"280 1140 OFFCURVE",
"400 1368 OFFCURVE",
"605 1368 CURVE SMOOTH",
"817 1368 OFFCURVE",
"933 1145 OFFCURVE",
"933 733 CURVE SMOOTH",
"933 320 OFFCURVE",
"816 94 OFFCURVE",
"605 94 CURVE SMOOTH"
);
},
{
closed = 1;
nodes = (
"742 320 OFFCURVE",
"845 431 OFFCURVE",
"845 567 CURVE SMOOTH",
"845 691 OFFCURVE",
"798 760 OFFCURVE",
"695 793 CURVE",
"768 832 OFFCURVE",
"815 913 OFFCURVE",
"815 1002 CURVE SMOOTH",
"815 1134 OFFCURVE",
"731 1214 OFFCURVE",
"598 1214 CURVE SMOOTH",
"535 1214 OFFCURVE",
"455 1184 OFFCURVE",
"392 1108 CURVE",
"472 1026 LINE",
"501 1075 OFFCURVE",
"544 1100 OFFCURVE",
"599 1100 CURVE SMOOTH",
"656 1100 OFFCURVE",
"685 1062 OFFCURVE",
"685 986 CURVE SMOOTH",
"685 898 OFFCURVE",
"627 848 OFFCURVE",
"526 848 CURVE SMOOTH",
"483 848 LINE",
"483 738 LINE",
"542 738 LINE SMOOTH",
"651 738 OFFCURVE",
"715 682 OFFCURVE",
"715 577 CURVE SMOOTH",
"715 484 OFFCURVE",
"672 434 OFFCURVE",
"599 434 CURVE SMOOTH",
"544 434 OFFCURVE",
"501 459 OFFCURVE",
"472 508 CURVE",
"392 426 LINE",
"455 350 OFFCURVE",
"535 320 OFFCURVE",
"598 320 CURVE SMOOTH"
);
}
);
width = 1213;
}
);
note = uniA2C2;
unicode = A2C2;
},
{
glyphname = "cep-yi";
lastChange = "2016-11-10 14:40:56 +0000";
layers = (
{
layerId = "7EC89B61-8520-4E3C-9660-9B6BD7352386";
paths = (
{
closed = 1;
nodes = (
"520 -26 OFFCURVE",
"597 15 OFFCURVE",
"652 96 CURVE",
"705 15 OFFCURVE",
"782 -26 OFFCURVE",
"883 -26 CURVE SMOOTH",
"934 -26 OFFCURVE",
"976 -17 OFFCURVE",
"1011 0 CURVE SMOOTH",
"1080 35 OFFCURVE",
"1123 95 OFFCURVE",
"1147 205 CURVE SMOOTH",
"1158 260 OFFCURVE",
"1164 342 OFFCURVE",
"1164 451 CURVE SMOOTH",
"1164 582 LINE",
"1024 582 LINE",
"1024 471 LINE SMOOTH",
"1024 356 OFFCURVE",
"1020 275 OFFCURVE",
"1011 227 CURVE SMOOTH",
"994 131 OFFCURVE",
"954 94 OFFCURVE",
"873 94 CURVE SMOOTH",
"772 94 OFFCURVE",
"722 174 OFFCURVE",
"722 335 CURVE SMOOTH",
"722 582 LINE",
"582 582 LINE",
"582 335 LINE SMOOTH",
"582 174 OFFCURVE",
"532 94 OFFCURVE",
"431 94 CURVE SMOOTH",
"348 94 OFFCURVE",
"310 131 OFFCURVE",
"293 226 CURVE SMOOTH",
"284 273 OFFCURVE",
"280 355 OFFCURVE",
"280 471 CURVE SMOOTH",
"280 582 LINE",
"140 582 LINE",
"140 451 LINE SMOOTH",
"140 342 OFFCURVE",
"146 260 OFFCURVE",
"158 205 CURVE SMOOTH",
"169 150 OFFCURVE",
"186 106 OFFCURVE",
"209 74 CURVE SMOOTH",
"253 10 OFFCURVE",
"322 -26 OFFCURVE",
"421 -26 CURVE SMOOTH"
);
},
{
closed = 1;
nodes = (
"480 525 LINE",
"480 762 LINE",
"350 762 LINE",
"350 525 LINE"
);
},
{
closed = 1;
nodes = (
"954 525 LINE",
"954 762 LINE",
"824 762 LINE",
"824 525 LINE"
);
},
{
closed = 1;
nodes = (
"520 874 OFFCURVE",
"597 915 OFFCURVE",
"652 996 CURVE",
"705 915 OFFCURVE",
"782 874 OFFCURVE",
"883 874 CURVE SMOOTH",
"934 874 OFFCURVE",
"976 883 OFFCURVE",
"1011 900 CURVE SMOOTH",
"1080 935 OFFCURVE",
"1123 995 OFFCURVE",
"1147 1105 CURVE SMOOTH",
"1158 1160 OFFCURVE",
"1164 1242 OFFCURVE",
"1164 1351 CURVE SMOOTH",
"1164 1462 LINE",
"1024 1462 LINE",
"1024 1371 LINE SMOOTH",
"1024 1256 OFFCURVE",
"1020 1175 OFFCURVE",
"1011 1127 CURVE SMOOTH",
"994 1031 OFFCURVE",
"954 994 OFFCURVE",
"873 994 CURVE SMOOTH",
"772 994 OFFCURVE",
"722 1074 OFFCURVE",
"722 1235 CURVE SMOOTH",
"722 1462 LINE",
"582 1462 LINE",
"582 1235 LINE SMOOTH",
"582 1074 OFFCURVE",
"532 994 OFFCURVE",
"431 994 CURVE SMOOTH",
"348 994 OFFCURVE",
"310 1031 OFFCURVE",
"293 1126 CURVE SMOOTH",
"284 1173 OFFCURVE",
"280 1255 OFFCURVE",
"280 1371 CURVE SMOOTH",
"280 1462 LINE",
"140 1462 LINE",
"140 1351 LINE SMOOTH",
"140 1242 OFFCURVE",
"146 1160 OFFCURVE",
"158 1105 CURVE SMOOTH",
"169 1050 OFFCURVE",
"186 1006 OFFCURVE",
"209 974 CURVE SMOOTH",
"253 910 OFFCURVE",
"322 874 OFFCURVE",
"421 874 CURVE SMOOTH"
);
}
);
width = 1304;
}
);
note = uniA2C3;
unicode = A2C3;
},
{
glyphname = "cha-yi";
lastChange = "2016-11-10 14:40:56 +0000";
layers = (
{
layerId = "7EC89B61-8520-4E3C-9660-9B6BD7352386";
paths = (
{
closed = 1;
nodes = (
"668 0 LINE",
"668 399 LINE",
"829 371 OFFCURVE",
"939 235 OFFCURVE",
"984 6 CURVE",
"1107 44 LINE",
"1050 308 OFFCURVE",
"880 491 OFFCURVE",
"668 520 CURVE",
"668 600 LINE",
"921 617 OFFCURVE",
"1073 729 OFFCURVE",
"1073 894 CURVE SMOOTH",
"1073 1059 OFFCURVE",
"921 1171 OFFCURVE",
"668 1188 CURVE",
"668 1337 LINE",
"1082 1211 LINE",
"1121 1319 LINE",
"528 1492 LINE",
"528 1188 LINE",
"276 1172 OFFCURVE",
"121 1061 OFFCURVE",
"121 894 CURVE SMOOTH",
"121 722 OFFCURVE",
"269 615 OFFCURVE",
"528 600 CURVE",
"528 518 LINE",
"317 479 OFFCURVE",
"156 297 OFFCURVE",
"100 45 CURVE",
"224 6 LINE",
"267 221 OFFCURVE",
"369 364 OFFCURVE",
"528 397 CURVE",
"528 0 LINE"
);
},
{
closed = 1;
nodes = (
"350 722 OFFCURVE",
"261 783 OFFCURVE",
"261 894 CURVE SMOOTH",
"261 1002 OFFCURVE",
"341 1065 OFFCURVE",
"528 1078 CURVE",
"528 711 LINE"
);
},
{
closed = 1;
nodes = (
"668 1078 LINE",
"845 1065 OFFCURVE",
"933 1004 OFFCURVE",
"933 894 CURVE SMOOTH",
"933 783 OFFCURVE",
"845 722 OFFCURVE",
"668 711 CURVE"
);
}
);
width = 1221;
}
);
note = uniA363;
unicode = A363;
},
{
glyphname = "chap-yi";
lastChange = "2016-11-10 14:40:56 +0000";
layers = (
{
layerId = "7EC89B61-8520-4E3C-9660-9B6BD7352386";
paths = (
{
closed = 1;
nodes = (
"644 0 LINE",
"644 337 LINE",
"799 317 OFFCURVE",
"888 214 OFFCURVE",
"924 23 CURVE",
"1047 61 LINE",
"986 305 OFFCURVE",
"856 435 OFFCURVE",
"644 458 CURVE",
"644 533 LINE",
"723 541 OFFCURVE",
"792 564 OFFCURVE",
"853 601 CURVE SMOOTH",
"973 675 OFFCURVE",
"1039 795 OFFCURVE",
"1039 934 CURVE SMOOTH",
"1039 1006 OFFCURVE",
"1023 1071 OFFCURVE",
"992 1129 CURVE SMOOTH",
"929 1245 OFFCURVE",
"807 1322 OFFCURVE",
"639 1335 CURVE",
"639 1462 LINE",
"509 1462 LINE",
"509 1335 LINE",
"425 1328 OFFCURVE",
"353 1307 OFFCURVE",
"293 1271 CURVE SMOOTH",
"172 1198 OFFCURVE",
"107 1078 OFFCURVE",
"107 934 CURVE SMOOTH",
"107 867 OFFCURVE",
"123 804 OFFCURVE",
"155 745 CURVE SMOOTH",
"219 627 OFFCURVE",
"344 549 OFFCURVE",
"504 533 CURVE",
"504 458 LINE",
"297 436 OFFCURVE",
"163 304 OFFCURVE",
"100 62 CURVE",
"224 23 LINE",
"263 214 OFFCURVE",
"351 316 OFFCURVE",
"504 337 CURVE",
"504 0 LINE"
);
},
{
closed = 1;
nodes = (
"341 676 OFFCURVE",
"247 779 OFFCURVE",
"247 934 CURVE SMOOTH",
"247 1087 OFFCURVE",
"342 1193 OFFCURVE",
"509 1214 CURVE",
"509 1047 LINE",
"639 1047 LINE",
"639 1214 LINE",
"804 1194 OFFCURVE",
"899 1097 OFFCURVE",
"899 934 CURVE SMOOTH",
"899 777 OFFCURVE",
"809 675 OFFCURVE",
"644 655 CURVE",
"644 872 LINE",
"504 872 LINE",
"504 655 LINE"
);
}
);
width = 1147;
}
);
note = uniA364;
unicode = A364;
},
{
glyphname = "chat-yi";
lastChange = "2016-11-10 14:40:56 +0000";
layers = (
{
layerId = "7EC89B61-8520-4E3C-9660-9B6BD7352386";
paths = (
{
closed = 1;
nodes = (
"621 0 LINE",
"621 408 LINE",
"920 84 LINE",
"1014 163 LINE",
"629 571 LINE",
"994 963 LINE",
"994 1002 LINE",
"621 1002 LINE",
"621 1267 LINE",
"931 1092 LINE",
"992 1204 LINE",
"481 1488 LINE",
"481 1002 LINE",
"110 1002 LINE",
"110 963 LINE",
"470 571 LINE",
"80 163 LINE",
"174 84 LINE",
"481 412 LINE",
"481 0 LINE"
);
},
{
closed = 1;
nodes = (
"327 892 LINE",
"481 892 LINE",
"481 728 LINE"
);
},
{
closed = 1;
nodes = (
"621 892 LINE",
"777 892 LINE",
"621 729 LINE"
);
}
);
width = 1094;
}
);
note = uniA361;
unicode = A361;
},
{
glyphname = "che-yi";
lastChange = "2016-11-10 14:40:56 +0000";
layers = (
{
layerId = "7EC89B61-8520-4E3C-9660-9B6BD7352386";
paths = (
{
closed = 1;
nodes = (
"582 774 LINE",
"992 158 LINE",
"1084 222 LINE",
"673 844 LINE",
"1044 844 LINE",
"1044 964 LINE",
"709 964 LINE",
"1014 1423 LINE",
"1014 1462 LINE",
"150 1462 LINE",
"150 1423 LINE",
"455 964 LINE",
"120 964 LINE",
"120 844 LINE",
"491 844 LINE",
"80 222 LINE",
"172 158 LINE"
);
},
{
closed = 1;
nodes = (
"647 0 LINE",
"647 458 LINE",
"517 458 LINE",
"517 0 LINE"
);
},
{
closed = 1;
nodes = (
"337 1352 LINE",
"827 1352 LINE",
"582 982 LINE"
);
}
);
width = 1164;
}
);
note = uniA36F;
unicode = A36F;
},
{
glyphname = "chep-yi";
lastChange = "2016-11-10 14:40:56 +0000";
layers = (
{
layerId = "7EC89B61-8520-4E3C-9660-9B6BD7352386";
paths = (
{
closed = 1;
nodes = (
"550 796 LINE",
"884 257 LINE",
"980 316 LINE",
"706 764 LINE",
"980 638 LINE",
"980 1132 LINE",
"840 1132 LINE",
"840 826 LINE",
"629 924 LINE",
"938 1423 LINE",
"938 1462 LINE",
"162 1462 LINE",
"162 1423 LINE",
"405 1029 LINE",
"120 1162 LINE",
"120 658 LINE",
"260 658 LINE",
"260 971 LINE",
"461 878 LINE",
"120 316 LINE",
"216 257 LINE"
);
},
{
closed = 1;
nodes = (
"671 0 LINE",
"671 428 LINE",
"541 428 LINE",
"541 0 LINE"
);
},
{
closed = 1;
nodes = (
"349 1352 LINE",
"751 1352 LINE",
"550 1022 LINE"
);
}
);
width = 1100;
}
);
note = uniA370;
unicode = A370;
},
{
glyphname = "chet-yi";
lastChange = "2016-11-10 14:40:56 +0000";
layers = (
{
layerId = "7EC89B61-8520-4E3C-9660-9B6BD7352386";
paths = (
{
closed = 1;
nodes = (
"647 0 LINE",
"647 676 LINE",
"992 158 LINE",
"1084 222 LINE",
"651 877 LINE",
"1014 1423 LINE",
"1014 1462 LINE",
"150 1462 LINE",
"150 1423 LINE",
"513 877 LINE",
"80 222 LINE",
"172 158 LINE",
"517 676 LINE",
"517 0 LINE"
);
},
{
closed = 1;
nodes = (
"307 690 LINE",
"307 1022 LINE",
"177 1022 LINE",
"177 690 LINE"
);
},
{
closed = 1;
nodes = (
"337 1352 LINE",
"517 1352 LINE",
"517 1080 LINE"
);
},
{
closed = 1;
nodes = (
"987 690 LINE",
"987 1022 LINE",
"857 1022 LINE",
"857 690 LINE"
);
},
{
closed = 1;
nodes = (
"647 1352 LINE",
"827 1352 LINE",
"647 1080 LINE"
);
}
);
width = 1164;
}
);
note = uniA36D;
unicode = A36D;
},
{
glyphname = "cho-yi";
lastChange = "2016-11-10 14:40:56 +0000";
layers = (
{
layerId = "7EC89B61-8520-4E3C-9660-9B6BD7352386";
paths = (
{
closed = 1;
nodes = (
"590 0 LINE",
"590 374 LINE",
"910 198 LINE",
"910 752 LINE",
"770 752 LINE",
"770 401 LINE",
"590 501 LINE",
"590 1084 LINE",
"910 908 LINE",
"910 1462 LINE",
"770 1462 LINE",
"770 1111 LINE",
"120 1472 LINE",
"120 928 LINE",
"260 928 LINE",
"260 1266 LINE",
"450 1161 LINE",
"450 578 LINE",
"120 762 LINE",
"120 218 LINE",
"260 218 LINE",
"260 556 LINE",
"450 451 LINE",
"450 0 LINE"
);
}
);
width = 1030;
}
);
note = uniA36B;
unicode = A36B;
},
{
glyphname = "chop-yi";
lastChange = "2016-11-10 14:40:56 +0000";
layers = (
{
layerId = "7EC89B61-8520-4E3C-9660-9B6BD7352386";
paths = (
{
closed = 1;
nodes = (
"416 715 LINE",
"686 715 LINE",
"686 211 LINE",
"548 295 LINE",
"490 191 LINE",
"826 -20 LINE",
"826 1237 LINE",
"938 1163 LINE",
"996 1267 LINE",
"686 1488 LINE",
"686 835 LINE",
"416 835 LINE",
"416 1237 LINE",
"528 1163 LINE",
"586 1267 LINE",
"276 1488 LINE",
"276 211 LINE",
"138 295 LINE",
"80 191 LINE",
"416 -20 LINE"
);
}
);
width = 1076;
}
);
note = uniA36C;
unicode = A36C;
},
{
glyphname = "chot-yi";
lastChange = "2016-11-10 14:40:56 +0000";
layers = (
{
layerId = "7EC89B61-8520-4E3C-9660-9B6BD7352386";
paths = (
{
closed = 1;
nodes = (
"416 665 LINE",
"766 665 LINE",
"766 211 LINE",
"628 295 LINE",
"570 191 LINE",
"906 -20 LINE",
"906 1237 LINE",
"1018 1163 LINE",
"1076 1267 LINE",
"766 1488 LINE",
"766 785 LINE",
"416 785 LINE",
"416 1237 LINE",
"528 1163 LINE",
"586 1267 LINE",
"276 1488 LINE",
"276 211 LINE",
"138 295 LINE",
"80 191 LINE",
"416 -20 LINE"
);
},
{
closed = 1;
nodes = (
"650 359 LINE",
"650 585 LINE",
"530 585 LINE",
"530 359 LINE"
);
},
{
closed = 1;
nodes = (
"650 859 LINE",
"650 1085 LINE",
"530 1085 LINE",
"530 859 LINE"
);
}
);
width = 1156;
}
);
note = uniA369;
unicode = A369;
},
{
glyphname = "chu-yi";
lastChange = "2016-11-10 14:40:56 +0000";
layers = (
{
layerId = "7EC89B61-8520-4E3C-9660-9B6BD7352386";
paths = (
{
closed = 1;
nodes = (
"562 -26 OFFCURVE",
"639 21 OFFCURVE",
"692 114 CURVE SMOOTH",
"745 207 OFFCURVE",
"774 362 OFFCURVE",
"781 580 CURVE",
"913 580 LINE",
"913 323 LINE",
"1043 323 LINE",
"1043 580 LINE",
"1173 580 LINE",
"1173 323 LINE",
"1303 323 LINE",
"1303 1233 LINE",
"1173 1233 LINE",
"1173 990 LINE",
"1043 990 LINE",
"1043 1233 LINE",
"913 1233 LINE",
"913 990 LINE",
"776 990 LINE",
"752 1347 OFFCURVE",
"653 1488 OFFCURVE",
"462 1488 CURVE SMOOTH",
"310 1488 OFFCURVE",
"219 1397 OFFCURVE",
"174 1197 CURVE SMOOTH",
"151 1096 OFFCURVE",
"140 944 OFFCURVE",
"140 741 CURVE SMOOTH",
"140 530 OFFCURVE",
"151 373 OFFCURVE",
"174 270 CURVE SMOOTH",
"218 65 OFFCURVE",
"312 -26 OFFCURVE",
"460 -26 CURVE SMOOTH"
);
},
{
closed = 1;
nodes = (
"369 94 OFFCURVE",
"321 176 OFFCURVE",
"298 336 CURVE SMOOTH",
"286 416 OFFCURVE",
"280 551 OFFCURVE",
"280 741 CURVE SMOOTH",
"280 928 OFFCURVE",
"286 1060 OFFCURVE",
"297 1137 CURVE SMOOTH",
"320 1291 OFFCURVE",
"368 1368 OFFCURVE",
"460 1368 CURVE SMOOTH",
"552 1368 OFFCURVE",
"602 1291 OFFCURVE",
"626 1135 CURVE SMOOTH",
"637 1057 OFFCURVE",
"643 923 OFFCURVE",
"643 733 CURVE SMOOTH",
"643 542 OFFCURVE",
"637 408 OFFCURVE",
"626 330 CURVE SMOOTH",
"602 173 OFFCURVE",
"552 94 OFFCURVE",
"460 94 CURVE SMOOTH"
);
},
{
closed = 1;
nodes = (
"527 550 LINE",
"527 947 LINE",
"397 947 LINE",
"397 550 LINE"
);
},
{
closed = 1;
nodes = (
"783 733 LINE",
"781 880 LINE",
"913 880 LINE",
"913 690 LINE",
"783 690 LINE"
);
},
{
closed = 1;
nodes = (
"1043 880 LINE",
"1173 880 LINE",
"1173 690 LINE",
"1043 690 LINE"
);
}
);
width = 1443;
}
);
note = uniA372;
unicode = A372;
},
{
glyphname = "chuo-yi";
lastChange = "2016-11-10 14:40:56 +0000";
layers = (
{
layerId = "7EC89B61-8520-4E3C-9660-9B6BD7352386";
paths = (
{
closed = 1;
nodes = (
"821 1237 LINE",
"964 1136 LINE",
"1022 1240 LINE",
"681 1488 LINE",
"681 914 LINE",
"561 996 LINE",
"498 902 LINE",
"681 777 LINE",
"681 231 LINE",
"538 332 LINE",
"480 228 LINE",
"821 -20 LINE"
);
},
{
closed = 1;
nodes = (
"421 654 LINE",
"529 581 LINE",
"592 675 LINE",
"421 791 LINE",
"421 1237 LINE",
"564 1136 LINE",
"622 1240 LINE",
"281 1488 LINE",
"281 887 LINE",
"165 966 LINE",
"102 872 LINE",
"281 750 LINE",
"281 231 LINE",
"138 332 LINE",
"80 228 LINE",
"421 -20 LINE"
);
}
);
width = 1102;
}
);
note = uniA367;
unicode = A367;
},
{
glyphname = "chuop-yi";
lastChange = "2016-11-10 14:40:56 +0000";
layers = (
{
layerId = "7EC89B61-8520-4E3C-9660-9B6BD7352386";
paths = (
{
closed = 1;
nodes = (
"964 706 LINE",
"1136 706 LINE",
"1136 816 LINE",
"964 816 LINE",
"964 1406 LINE",
"546 859 LINE",
"168 1355 LINE",
"80 1277 LINE",
"482 760 LINE",
"84 264 LINE",
"160 174 LINE",
"546 662 LINE",
"964 115 LINE"
);
},
{
closed = 1;
nodes = (
"611 0 LINE",
"611 288 LINE",
"481 288 LINE",
"481 0 LINE"
);
},
{
closed = 1;
nodes = (
"610 760 LINE",
"842 1051 LINE",
"842 470 LINE"
);
},
{
closed = 1;
nodes = (
"611 1174 LINE",
"611 1462 LINE",
"481 1462 LINE",
"481 1174 LINE"
);
}
);
width = 1216;
}
);
note = uniA368;
unicode = A368;
},
{
glyphname = "chuot-yi";
lastChange = "2016-11-10 14:40:56 +0000";
layers = (
{
layerId = "7EC89B61-8520-4E3C-9660-9B6BD7352386";
paths = (
{
closed = 1;
nodes = (
"320 0 LINE",
"320 263 LINE",
"590 263 LINE",
"590 0 LINE",
"730 0 LINE",
"730 1137 LINE",
"806 1095 LINE",
"805 1073 LINE",
"805 1051 LINE SMOOTH",
"805 864 OFFCURVE",
"891 701 OFFCURVE",
"1022 621 CURVE",
"1100 735 LINE",
"990 802 OFFCURVE",
"935 908 OFFCURVE",
"935 1051 CURVE SMOOTH",
"935 1204 OFFCURVE",
"989 1314 OFFCURVE",
"1097 1383 CURVE",
"1023 1492 LINE",
"926 1425 OFFCURVE",
"862 1336 OFFCURVE",
"829 1225 CURVE",
"590 1348 LINE",
"590 1139 LINE",
"180 1348 LINE",
"180 0 LINE"
);
},
{
closed = 1;
nodes = (
"320 1137 LINE",
"590 996 LINE",
"590 373 LINE",
"320 373 LINE"
);
},
{
closed = 1;
nodes = (
"520 596 LINE",
"520 927 LINE",
"390 927 LINE",
"390 596 LINE"
);
}
);
width = 1180;
}
);
note = uniA365;
unicode = A365;
},
{
glyphname = "chup-yi";
lastChange = "2016-11-10 14:40:56 +0000";
layers = (
{
layerId = "7EC89B61-8520-4E3C-9660-9B6BD7352386";
paths = (
{
closed = 1;
nodes = (
"562 -26 OFFCURVE",
"639 21 OFFCURVE",
"692 114 CURVE SMOOTH",
"745 207 OFFCURVE",
"774 362 OFFCURVE",
"781 580 CURVE",
"1114 580 LINE",
"1114 690 LINE",
"783 690 LINE",
"783 733 LINE",
"781 880 LINE",
"1114 880 LINE",
"1114 990 LINE",
"776 990 LINE",
"752 1347 OFFCURVE",
"653 1488 OFFCURVE",
"462 1488 CURVE SMOOTH",
"310 1488 OFFCURVE",
"219 1397 OFFCURVE",
"174 1197 CURVE SMOOTH",
"151 1096 OFFCURVE",
"140 944 OFFCURVE",
"140 741 CURVE SMOOTH",
"140 530 OFFCURVE",
"151 373 OFFCURVE",
"174 270 CURVE SMOOTH",
"218 65 OFFCURVE",
"312 -26 OFFCURVE",
"460 -26 CURVE SMOOTH"
);
},
{
closed = 1;
nodes = (
"369 94 OFFCURVE",
"321 176 OFFCURVE",
"298 336 CURVE SMOOTH",
"286 416 OFFCURVE",
"280 551 OFFCURVE",
"280 741 CURVE SMOOTH",
"280 928 OFFCURVE",
"286 1060 OFFCURVE",
"297 1137 CURVE SMOOTH",
"320 1291 OFFCURVE",
"368 1368 OFFCURVE",
"460 1368 CURVE SMOOTH",
"552 1368 OFFCURVE",
"602 1291 OFFCURVE",
"626 1135 CURVE SMOOTH",
"637 1057 OFFCURVE",
"643 923 OFFCURVE",
"643 733 CURVE SMOOTH",
"643 542 OFFCURVE",
"637 408 OFFCURVE",
"626 330 CURVE SMOOTH",
"602 173 OFFCURVE",
"552 94 OFFCURVE",
"460 94 CURVE SMOOTH"
);
},
{
closed = 1;
nodes = (
"527 550 LINE",
"527 947 LINE",
"397 947 LINE",
"397 550 LINE"
);
},
{
closed = 1;
nodes = (
"1003 197 LINE",
"1003 479 LINE",
"873 479 LINE",
"873 197 LINE"
);
},
{
closed = 1;
nodes = (
"1003 1091 LINE",
"1003 1373 LINE",
"873 1373 LINE",
"873 1091 LINE"
);
}
);
width = 1194;
}
);
note = uniA373;
unicode = A373;
},
{
glyphname = "chur-yi";
lastChange = "2016-11-10 14:40:56 +0000";
layers = (
{
layerId = "7EC89B61-8520-4E3C-9660-9B6BD7352386";
paths = (
{
closed = 1;
nodes = (
"1055 0 LINE",
"1055 489 LINE",
"757 312 LINE",
"757 1150 LINE",
"1055 973 LINE",
"1055 1462 LINE",
"925 1462 LINE",
"925 1193 LINE",
"617 1371 LINE",
"617 91 LINE",
"925 269 LINE",
"925 0 LINE"
);
},
{
closed = 1;
nodes = (
"399 772 LINE",
"537 772 LINE",
"537 882 LINE",
"399 882 LINE",
"399 1199 LINE",
"497 1130 LINE",
"561 1230 LINE",
"269 1420 LINE",
"269 882 LINE",
"139 882 LINE",
"139 772 LINE",
"269 772 LINE",
"269 333 LINE",
"144 422 LINE",
"80 322 LINE",
"399 112 LINE"
);
}
);
width = 1175;
}
);
note = uniA375;
unicode = A375;
},
{
glyphname = "chy-yi";
lastChange = "2016-11-10 14:40:56 +0000";
layers = (
{
layerId = "7EC89B61-8520-4E3C-9660-9B6BD7352386";
paths = (
{
closed = 1;
nodes = (
"679 -26 OFFCURVE",
"759 -10 OFFCURVE",
"826 21 CURVE SMOOTH",
"960 84 OFFCURVE",
"1032 205 OFFCURVE",
"1032 358 CURVE SMOOTH",
"1032 562 OFFCURVE",
"885 714 OFFCURVE",
"657 738 CURVE",
"657 1084 LINE",
"1017 888 LINE",
"1017 1462 LINE",
"877 1462 LINE",
"877 1096 LINE",
"157 1492 LINE",
"157 908 LINE",
"297 908 LINE",
"297 1281 LINE",
"517 1161 LINE",
"517 738 LINE",
"285 713 OFFCURVE",
"140 559 OFFCURVE",
"140 358 CURVE SMOOTH",
"140 122 OFFCURVE",
"311 -26 OFFCURVE",
"587 -26 CURVE SMOOTH"
);
},
{
closed = 1;
nodes = (
"392 94 OFFCURVE",
"280 191 OFFCURVE",
"280 358 CURVE SMOOTH",
"280 523 OFFCURVE",
"391 621 OFFCURVE",
"587 621 CURVE SMOOTH",
"784 621 OFFCURVE",
"892 526 OFFCURVE",
"892 358 CURVE SMOOTH",
"892 186 OFFCURVE",
"787 94 OFFCURVE",
"587 94 CURVE SMOOTH"
);
}
);
width = 1172;
}
);
note = uniA378;
unicode = A378;
},
{
glyphname = "chyp-yi";
lastChange = "2016-11-10 14:40:56 +0000";
layers = (
{
layerId = "7EC89B61-8520-4E3C-9660-9B6BD7352386";
paths = (
{
closed = 1;
nodes = (
"914 1462 LINE",
"774 1462 LINE",
"774 146 LINE",
"247 313 LINE",
"206 197 LINE",
"914 -30 LINE"
);
},
{
closed = 1;
nodes = (
"260 451 LINE",
"260 739 LINE",
"130 739 LINE",
"130 451 LINE"
);
},
{
closed = 1;
nodes = (
"660 451 LINE",
"660 739 LINE",
"530 739 LINE",
"530 451 LINE"
);
},
{
closed = 1;
nodes = (
"460 365 LINE",
"460 849 LINE",
"710 849 LINE",
"710 959 LINE",
"460 959 LINE",
"460 1399 LINE",
"330 1399 LINE",
"330 959 LINE",
"80 959 LINE",
"80 849 LINE",
"330 849 LINE",
"330 365 LINE"
);
},
{
closed = 1;
nodes = (
"260 1071 LINE",
"260 1359 LINE",
"130 1359 LINE",
"130 1071 LINE"
);
},
{
closed = 1;
nodes = (
"660 1071 LINE",
"660 1359 LINE",
"530 1359 LINE",
"530 1071 LINE"
);
}
);
width = 1094;
}
);
note = uniA379;
unicode = A379;
},
{
glyphname = "chyr-yi";
lastChange = "2016-11-10 14:40:56 +0000";
layers = (
{
layerId = "7EC89B61-8520-4E3C-9660-9B6BD7352386";
paths = (
{
closed = 1;
nodes = (
"663 0 LINE",
"663 246 LINE",
"1023 246 LINE",
"1023 356 LINE",
"663 356 LINE",
"663 526 LINE",
"1023 526 LINE",
"1023 636 LINE",
"663 636 LINE",
"663 1188 LINE",
"1001 969 LINE",
"1001 1462 LINE",
"871 1462 LINE",
"871 1200 LINE",
"523 1420 LINE",
"523 1325 LINE",
"438 1386 OFFCURVE",
"323 1416 OFFCURVE",
"178 1416 CURVE",
"178 1306 LINE",
"398 1306 OFFCURVE",
"523 1227 OFFCURVE",
"523 1087 CURVE SMOOTH",
"523 946 OFFCURVE",
"395 869 OFFCURVE",
"178 869 CURVE",
"178 758 LINE",
"324 758 OFFCURVE",
"439 788 OFFCURVE",
"523 848 CURVE",
"523 636 LINE",
"183 636 LINE",
"183 526 LINE",
"523 526 LINE",
"523 356 LINE",
"183 356 LINE",
"183 246 LINE",
"523 246 LINE",
"523 0 LINE"
);
},
{
closed = 1;
nodes = (
"351 987 LINE",
"351 1185 LINE",
"231 1185 LINE",
"231 987 LINE"
);
}
);
width = 1143;
}
);
note = uniA37B;
unicode = A37B;
},
{
glyphname = "chyt-yi";
lastChange = "2016-11-10 14:40:56 +0000";
layers = (
{
layerId = "7EC89B61-8520-4E3C-9660-9B6BD7352386";
paths = (
{
closed = 1;
nodes = (
"663 506 LINE",
"1023 506 LINE",
"1023 616 LINE",
"663 616 LINE",
"663 1218 LINE",
"1001 999 LINE",
"1001 1462 LINE",
"871 1462 LINE",
"871 1230 LINE",
"523 1450 LINE",
"523 1325 LINE",
"438 1386 OFFCURVE",
"323 1416 OFFCURVE",
"178 1416 CURVE",
"178 1306 LINE",
"398 1306 OFFCURVE",
"523 1227 OFFCURVE",
"523 1087 CURVE SMOOTH",
"523 1077 LINE",
"516 945 OFFCURVE",
"395 869 OFFCURVE",
"178 869 CURVE",
"178 758 LINE",
"324 758 OFFCURVE",
"439 788 OFFCURVE",
"523 848 CURVE",
"523 616 LINE",
"183 616 LINE",
"183 506 LINE",
"523 506 LINE",
"523 153 LINE",
"123 316 LINE",
"80 200 LINE",
"663 -30 LINE"
);
},
{
closed = 1;
nodes = (
"351 987 LINE",
"351 1185 LINE",
"231 1185 LINE",
"231 987 LINE"
);
}
);
width = 1143;
}
);
note = uniA376;
unicode = A376;
},
{
glyphname = "ci-yi";
lastChange = "2016-11-10 14:40:56 +0000";
layers = (
{
layerId = "7EC89B61-8520-4E3C-9660-9B6BD7352386";
paths = (
{
closed = 1;
nodes = (
"540 0 LINE",
"540 614 LINE",
"878 614 LINE",
"878 724 LINE",
"540 724 LINE",
"540 1267 LINE",
"850 1092 LINE",
"911 1204 LINE",
"400 1488 LINE",
"400 724 LINE",
"80 724 LINE",
"80 614 LINE",
"400 614 LINE",
"400 0 LINE"
);
}
);
width = 991;
}
);
note = uniA2B0;
unicode = A2B0;
},
{
glyphname = "cie-yi";
lastChange = "2016-11-10 14:40:56 +0000";
layers = (
{
layerId = "7EC89B61-8520-4E3C-9660-9B6BD7352386";
paths = (
{
closed = 1;
nodes = (
"470 -26 OFFCURVE",
"513 -15 OFFCURVE",
"548 6 CURVE SMOOTH",
"618 48 OFFCURVE",
"658 122 OFFCURVE",
"682 262 CURVE SMOOTH",
"693 332 OFFCURVE",
"700 438 OFFCURVE",
"702 579 CURVE",
"918 582 OFFCURVE",
"1012 664 OFFCURVE",
"1012 888 CURVE SMOOTH",
"1012 1345 LINE",
"882 1345 LINE",
"882 896 LINE SMOOTH",
"882 845 OFFCURVE",
"877 805 OFFCURVE",
"866 777 CURVE SMOOTH",
"845 721 OFFCURVE",
"818 699 OFFCURVE",
"703 699 CURVE",
"703 806 LINE SMOOTH",
"703 975 OFFCURVE",
"698 1097 OFFCURVE",
"688 1174 CURVE SMOOTH",
"678 1250 OFFCURVE",
"662 1310 OFFCURVE",
"641 1355 CURVE SMOOTH",
"598 1444 OFFCURVE",
"527 1488 OFFCURVE",
"422 1488 CURVE SMOOTH",
"369 1488 OFFCURVE",
"325 1477 OFFCURVE",
"289 1456 CURVE SMOOTH",
"217 1412 OFFCURVE",
"175 1329 OFFCURVE",
"155 1179 CURVE SMOOTH",
"145 1104 OFFCURVE",
"140 982 OFFCURVE",
"140 813 CURVE SMOOTH",
"140 668 LINE SMOOTH",
"140 493 OFFCURVE",
"145 367 OFFCURVE",
"156 289 CURVE SMOOTH",
"167 211 OFFCURVE",
"183 150 OFFCURVE",
"205 107 CURVE SMOOTH",
"248 19 OFFCURVE",
"316 -26 OFFCURVE",
"420 -26 CURVE SMOOTH"
);
},
{
closed = 1;
nodes = (
"349 94 OFFCURVE",
"312 143 OFFCURVE",
"294 240 CURVE SMOOTH",
"285 288 OFFCURVE",
"280 368 OFFCURVE",
"280 480 CURVE SMOOTH",
"280 1001 LINE SMOOTH",
"280 1110 OFFCURVE",
"285 1188 OFFCURVE",
"294 1233 CURVE SMOOTH",
"312 1324 OFFCURVE",
"351 1368 OFFCURVE",
"420 1368 CURVE SMOOTH",
"491 1368 OFFCURVE",
"530 1322 OFFCURVE",
"549 1229 CURVE SMOOTH",
"558 1182 OFFCURVE",
"563 1103 OFFCURVE",
"563 991 CURVE SMOOTH",
"563 475 LINE SMOOTH",
"563 363 OFFCURVE",
"558 283 OFFCURVE",
"549 236 CURVE SMOOTH",
"530 141 OFFCURVE",
"492 94 OFFCURVE",
"420 94 CURVE SMOOTH"
);
}
);
width = 1132;
}
);
note = uniA2B4;
unicode = A2B4;
},
{
glyphname = "ciep-yi";
lastChange = "2016-11-10 14:40:56 +0000";
layers = (
{
layerId = "7EC89B61-8520-4E3C-9660-9B6BD7352386";
paths = (
{
closed = 1;
nodes = (
"831 -11 OFFCURVE",
"1004 184 OFFCURVE",
"1004 491 CURVE SMOOTH",
"1004 779 OFFCURVE",
"845 969 OFFCURVE",
"602 986 CURVE",
"602 1260 LINE",
"918 1091 LINE",
"974 1204 LINE",
"462 1488 LINE",
"462 976 LINE",
"257 929 OFFCURVE",
"130 749 OFFCURVE",
"130 494 CURVE SMOOTH",
"130 392 OFFCURVE",
"148 303 OFFCURVE",
"185 227 CURVE SMOOTH",
"257 74 OFFCURVE",
"395 -11 OFFCURVE",
"567 -11 CURVE SMOOTH"
);
},
{
closed = 1;
nodes = (
"390 109 OFFCURVE",
"284 228 OFFCURVE",
"271 447 CURVE",
"863 447 LINE",
"851 228 OFFCURVE",
"744 109 OFFCURVE",
"565 109 CURVE SMOOTH"
);
},
{
closed = 1;
nodes = (
"291 757 OFFCURVE",
"397 868 OFFCURVE",
"565 868 CURVE SMOOTH",
"737 868 OFFCURVE",
"842 758 OFFCURVE",
"861 557 CURVE",
"272 557 LINE"
);
}
);
width = 1134;
}
);
note = uniA2B5;
unicode = A2B5;
},
{
glyphname = "ciet-yi";
lastChange = "2016-11-10 14:40:56 +0000";
layers = (
{
layerId = "7EC89B61-8520-4E3C-9660-9B6BD7352386";
paths = (
{
closed = 1;
nodes = (
"427 1265 LINE",
"797 1087 LINE",
"797 0 LINE",
"937 0 LINE",
"937 1237 LINE",
"1080 1136 LINE",
"1138 1240 LINE",
"797 1488 LINE",
"797 1232 LINE",
"287 1492 LINE",
"287 217 LINE",
"144 314 LINE",
"80 214 LINE",
"427 -26 LINE"
);
},
{
closed = 1;
nodes = (
"672 797 LINE",
"720 769 LINE",
"773 863 LINE",
"557 974 LINE",
"557 528 LINE",
"509 556 LINE",
"456 462 LINE",
"672 351 LINE"
);
}
);
width = 1218;
}
);
note = uniA2B2;
unicode = A2B2;
},
{
glyphname = "cit-yi";
lastChange = "2016-11-10 14:40:56 +0000";
layers = (
{
layerId = "7EC89B61-8520-4E3C-9660-9B6BD7352386";
paths = (
{
closed = 1;
nodes = (
"320 0 LINE",
"320 1265 LINE",
"640 1087 LINE",
"640 0 LINE",
"780 0 LINE",
"780 1237 LINE",
"923 1136 LINE",
"981 1240 LINE",
"640 1488 LINE",
"640 1232 LINE",
"180 1492 LINE",
"180 0 LINE"
);
},
{
closed = 1;
nodes = (
"545 492 LINE",
"545 859 LINE",
"415 859 LINE",
"415 492 LINE"
);
}
);
width = 1061;
}
);
note = uniA2AE;
unicode = A2AE;
},
{
glyphname = "co-yi";
lastChange = "2016-11-10 14:40:56 +0000";
layers = (
{
layerId = "7EC89B61-8520-4E3C-9660-9B6BD7352386";
paths = (
{
closed = 1;
nodes = (
"810 -26 OFFCURVE",
"877 48 OFFCURVE",
"909 197 CURVE SMOOTH",
"925 271 OFFCURVE",
"934 398 OFFCURVE",
"935 578 CURVE",
"1020 532 LINE",
"1020 203 LINE",
"1150 203 LINE",
"1150 1235 LINE",
"1020 1235 LINE",
"1020 668 LINE",
"935 715 LINE",
"935 856 LINE SMOOTH",
"935 1053 OFFCURVE",
"928 1189 OFFCURVE",
"913 1264 CURVE SMOOTH",
"883 1415 OFFCURVE",
"816 1488 OFFCURVE",
"689 1488 CURVE SMOOTH",
"572 1488 OFFCURVE",
"505 1425 OFFCURVE",
"472 1294 CURVE SMOOTH",
"455 1229 OFFCURVE",
"446 1126 OFFCURVE",
"443 986 CURVE",
"224 1107 LINE",
"224 502 LINE",
"138 552 LINE",
"80 448 LINE",
"354 288 LINE",
"354 893 LINE",
"442 845 LINE",
"442 628 LINE SMOOTH",
"442 424 OFFCURVE",
"450 284 OFFCURVE",
"466 207 CURVE SMOOTH",
"497 53 OFFCURVE",
"562 -26 OFFCURVE",
"687 -26 CURVE SMOOTH"
);
},
{
closed = 1;
nodes = (
"650 94 OFFCURVE",
"624 123 OFFCURVE",
"607 182 CURVE SMOOTH",
"590 241 OFFCURVE",
"582 340 OFFCURVE",
"582 480 CURVE SMOOTH",
"582 769 LINE",
"795 654 LINE",
"795 475 LINE SMOOTH",
"795 336 OFFCURVE",
"787 238 OFFCURVE",
"770 181 CURVE SMOOTH",
"753 123 OFFCURVE",
"725 94 OFFCURVE",
"687 94 CURVE SMOOTH"
);
},
{
closed = 1;
nodes = (
"582 910 LINE",
"582 1001 LINE SMOOTH",
"582 1134 OFFCURVE",
"590 1229 OFFCURVE",
"607 1285 CURVE SMOOTH",
"623 1340 OFFCURVE",
"650 1368 OFFCURVE",
"687 1368 CURVE SMOOTH",
"725 1368 OFFCURVE",
"753 1340 OFFCURVE",
"770 1284 CURVE SMOOTH",
"787 1227 OFFCURVE",
"795 1130 OFFCURVE",
"795 991 CURVE SMOOTH",
"795 792 LINE"
);
}
);
width = 1290;
}
);
note = uniA2BF;
unicode = A2BF;
},
{
glyphname = "cop-yi";
lastChange = "2016-11-10 14:40:56 +0000";
layers = (
{
layerId = "7EC89B61-8520-4E3C-9660-9B6BD7352386";
paths = (
{
closed = 1;
nodes = (
"546 -26 OFFCURVE",
"589 -15 OFFCURVE",
"625 8 CURVE SMOOTH",
"697 53 OFFCURVE",
"740 136 OFFCURVE",
"762 288 CURVE SMOOTH",
"773 364 OFFCURVE",
"778 494 OFFCURVE",
"778 678 CURVE SMOOTH",
"778 739 LINE",
"891 739 LINE",
"891 142 LINE",
"1021 142 LINE",
"1021 1362 LINE",
"891 1362 LINE",
"891 859 LINE",
"778 859 LINE",
"778 1041 OFFCURVE",
"769 1172 OFFCURVE",
"751 1251 CURVE SMOOTH",
"715 1409 OFFCURVE",
"638 1488 OFFCURVE",
"497 1488 CURVE SMOOTH",
"353 1488 OFFCURVE",
"278 1409 OFFCURVE",
"242 1250 CURVE SMOOTH",
"224 1171 OFFCURVE",
"215 1040 OFFCURVE",
"215 859 CURVE",
"80 859 LINE",
"80 739 LINE",
"215 739 LINE",
"215 668 LINE SMOOTH",
"215 493 OFFCURVE",
"220 367 OFFCURVE",
"231 289 CURVE SMOOTH",
"242 211 OFFCURVE",
"258 150 OFFCURVE",
"280 107 CURVE SMOOTH",
"323 19 OFFCURVE",
"391 -26 OFFCURVE",
"495 -26 CURVE SMOOTH"
);
},
{
closed = 1;
nodes = (
"424 94 OFFCURVE",
"387 143 OFFCURVE",
"369 240 CURVE SMOOTH",
"360 288 OFFCURVE",
"355 368 OFFCURVE",
"355 480 CURVE SMOOTH",
"355 739 LINE",
"638 739 LINE",
"638 475 LINE SMOOTH",
"638 363 OFFCURVE",
"633 283 OFFCURVE",
"624 236 CURVE SMOOTH",
"605 141 OFFCURVE",
"567 94 OFFCURVE",
"495 94 CURVE SMOOTH"
);
},
{
closed = 1;
nodes = (
"355 1001 LINE SMOOTH",
"355 1110 OFFCURVE",
"360 1188 OFFCURVE",
"369 1233 CURVE SMOOTH",
"387 1324 OFFCURVE",
"426 1368 OFFCURVE",
"495 1368 CURVE SMOOTH",
"566 1368 OFFCURVE",
"605 1322 OFFCURVE",
"624 1229 CURVE SMOOTH",
"633 1182 OFFCURVE",
"638 1103 OFFCURVE",
"638 991 CURVE SMOOTH",
"638 859 LINE",
"355 859 LINE"
);
}
);
width = 1161;
}
);
note = uniA2C0;
unicode = A2C0;
},
{
glyphname = "cot-yi";
lastChange = "2016-11-10 14:40:56 +0000";
layers = (
{
layerId = "7EC89B61-8520-4E3C-9660-9B6BD7352386";
paths = (
{
closed = 1;
nodes = (
"747 -26 OFFCURVE",
"795 -12 OFFCURVE",
"830 16 CURVE SMOOTH",
"901 72 OFFCURVE",
"931 168 OFFCURVE",
"931 392 CURVE SMOOTH",
"931 689 LINE",
"1030 644 LINE",
"1030 233 LINE",
"1160 233 LINE",
"1160 1185 LINE",
"1030 1185 LINE",
"1030 774 LINE",
"931 819 LINE",
"931 1462 LINE",
"791 1462 LINE",
"791 882 LINE",
"587 973 LINE",
"587 1462 LINE",
"447 1462 LINE",
"447 1036 LINE",
"224 1137 LINE",
"224 532 LINE",
"138 582 LINE",
"80 478 LINE",
"354 318 LINE",
"354 947 LINE",
"447 905 LINE",
"447 392 LINE SMOOTH",
"447 278 OFFCURVE",
"455 194 OFFCURVE",
"471 139 CURVE SMOOTH",
"503 30 OFFCURVE",
"571 -26 OFFCURVE",
"688 -26 CURVE SMOOTH"
);
},
{
closed = 1;
nodes = (
"649 94 OFFCURVE",
"622 113 OFFCURVE",
"608 151 CURVE SMOOTH",
"594 189 OFFCURVE",
"587 269 OFFCURVE",
"587 391 CURVE SMOOTH",
"587 843 LINE",
"791 751 LINE",
"791 391 LINE SMOOTH",
"791 270 OFFCURVE",
"784 190 OFFCURVE",
"770 152 CURVE SMOOTH",
"755 113 OFFCURVE",
"729 94 OFFCURVE",
"690 94 CURVE SMOOTH"
);
}
);
width = 1300;
}
);
note = uniA2BD;
unicode = A2BD;
},
{
glyphname = "cu-yi";
lastChange = "2016-11-10 14:40:56 +0000";
layers = (
{
layerId = "7EC89B61-8520-4E3C-9660-9B6BD7352386";
paths = (
{
closed = 1;
nodes = (
"524 599 LINE",
"863 -16 LINE",
"908 -16 LINE",
"908 659 LINE",
"1046 659 LINE",
"1046 312 LINE",
"1176 312 LINE",
"1176 1122 LINE",
"1046 1122 LINE",
"1046 779 LINE",
"908 779 LINE",
"908 1473 LINE",
"863 1473 LINE",
"524 857 LINE",
"193 1473 LINE",
"80 1407 LINE",
"453 728 LINE",
"80 50 LINE",
"193 -16 LINE"
);
},
{
closed = 1;
nodes = (
"256 512 LINE",
"256 922 LINE",
"126 922 LINE",
"126 512 LINE"
);
},
{
closed = 1;
nodes = (
"594 728 LINE",
"768 1051 LINE",
"768 406 LINE"
);
}
);
width = 1296;
}
);
note = uniA2C6;
unicode = A2C6;
},
{
glyphname = "cuo-yi";
lastChange = "2016-11-10 14:40:56 +0000";
layers = (
{
layerId = "7EC89B61-8520-4E3C-9660-9B6BD7352386";
paths = (
{
closed = 1;
nodes = (
"593 703 LINE",
"789 714 OFFCURVE",
"900 795 OFFCURVE",
"900 928 CURVE SMOOTH",
"900 1059 OFFCURVE",
"792 1143 OFFCURVE",
"593 1154 CURVE",
"593 1287 LINE",
"923 1122 LINE",
"964 1234 LINE",
"453 1488 LINE",
"453 804 LINE",
"248 799 OFFCURVE",
"130 715 OFFCURVE",
"130 578 CURVE SMOOTH",
"130 441 OFFCURVE",
"249 357 OFFCURVE",
"453 352 CURVE",
"453 202 LINE",
"141 370 LINE",
"80 258 LINE",
"593 -26 LINE"
);
},
{
closed = 1;
nodes = (
"318 465 OFFCURVE",
"250 500 OFFCURVE",
"250 580 CURVE SMOOTH",
"250 664 OFFCURVE",
"326 692 OFFCURVE",
"453 695 CURVE",
"453 462 LINE"
);
},
{
closed = 1;
nodes = (
"593 1044 LINE",
"710 1039 OFFCURVE",
"780 1010 OFFCURVE",
"780 930 CURVE SMOOTH",
"780 847 OFFCURVE",
"710 818 OFFCURVE",
"593 813 CURVE"
);
}
);
width = 1044;
}
);
note = uniA2BB;
unicode = A2BB;
},
{
glyphname = "cuop-yi";
lastChange = "2016-11-10 14:40:56 +0000";
layers = (
{
layerId = "7EC89B61-8520-4E3C-9660-9B6BD7352386";
paths = (
{
closed = 1;
nodes = (
"310 0 LINE",
"310 425 LINE SMOOTH",
"310 674 OFFCURVE",
"401 885 OFFCURVE",
"583 1058 CURVE",
"765 883 OFFCURVE",
"856 672 OFFCURVE",
"856 425 CURVE SMOOTH",
"856 0 LINE",
"996 0 LINE",
"996 425 LINE SMOOTH",
"996 718 OFFCURVE",
"897 938 OFFCURVE",
"681 1142 CURVE",
"756 1199 OFFCURVE",
"853 1261 OFFCURVE",
"971 1328 CURVE SMOOTH",
"1046 1373 LINE",
"993 1481 LINE",
"828 1396 OFFCURVE",
"692 1311 OFFCURVE",
"583 1225 CURVE",
"477 1309 OFFCURVE",
"340 1394 OFFCURVE",
"173 1481 CURVE",
"120 1373 LINE",
"196 1328 LINE SMOOTH",
"313 1261 OFFCURVE",
"410 1199 OFFCURVE",
"485 1142 CURVE",
"273 945 OFFCURVE",
"170 722 OFFCURVE",
"170 425 CURVE SMOOTH",
"170 0 LINE"
);
},
{
closed = 1;
nodes = (
"645 147 LINE",
"645 581 LINE",
"515 581 LINE",
"515 147 LINE"
);
}
);
width = 1166;
}
);
note = uniA2BC;
unicode = A2BC;
},
{
glyphname = "cup-yi";
lastChange = "2016-11-10 14:40:56 +0000";
layers = (
{
layerId = "7EC89B61-8520-4E3C-9660-9B6BD7352386";
paths = (
{
closed = 1;
nodes = (
"344 0 LINE",
"344 381 LINE",
"771 177 LINE",
"771 1276 LINE",
"1017 1148 LINE",
"1078 1260 LINE",
"631 1488 LINE",
"631 1165 LINE",
"414 1165 LINE",
"414 1055 LINE",
"631 1055 LINE",
"631 833 LINE",
"390 850 OFFCURVE",
"240 975 OFFCURVE",
"240 1155 CURVE SMOOTH",
"240 1360 LINE",
"110 1360 LINE",
"110 1155 LINE SMOOTH",
"110 906 OFFCURVE",
"316 728 OFFCURVE",
"631 711 CURVE",
"631 378 LINE",
"204 600 LINE",
"204 0 LINE"
);
}
);
width = 1158;
}
);
note = uniA2C7;
unicode = A2C7;
},
{
glyphname = "cur-yi";
lastChange = "2016-11-10 14:40:56 +0000";
layers = (
{
layerId = "7EC89B61-8520-4E3C-9660-9B6BD7352386";
paths = (
{
closed = 1;
nodes = (
"604 -26 OFFCURVE",
"697 62 OFFCURVE",
"745 255 CURVE SMOOTH",
"768 352 OFFCURVE",
"781 498 OFFCURVE",
"783 694 CURVE",
"935 694 LINE",
"935 216 LINE",
"1065 216 LINE",
"1065 1286 LINE",
"935 1286 LINE",
"935 814 LINE",
"782 814 LINE",
"780 992 OFFCURVE",
"768 1126 OFFCURVE",
"746 1216 CURVE SMOOTH",
"702 1396 OFFCURVE",
"614 1488 OFFCURVE",
"462 1488 CURVE SMOOTH",
"310 1488 OFFCURVE",
"219 1397 OFFCURVE",
"174 1197 CURVE SMOOTH",
"151 1096 OFFCURVE",
"140 944 OFFCURVE",
"140 741 CURVE SMOOTH",
"140 530 OFFCURVE",
"151 373 OFFCURVE",
"174 270 CURVE SMOOTH",
"218 65 OFFCURVE",
"312 -26 OFFCURVE",
"460 -26 CURVE SMOOTH"
);
},
{
closed = 1;
nodes = (
"369 94 OFFCURVE",
"321 176 OFFCURVE",
"298 336 CURVE SMOOTH",
"286 416 OFFCURVE",
"280 551 OFFCURVE",
"280 741 CURVE SMOOTH",
"280 928 OFFCURVE",
"286 1060 OFFCURVE",
"297 1137 CURVE SMOOTH",
"320 1291 OFFCURVE",
"368 1368 OFFCURVE",
"460 1368 CURVE SMOOTH",
"552 1368 OFFCURVE",
"602 1291 OFFCURVE",
"626 1135 CURVE SMOOTH",
"637 1057 OFFCURVE",
"643 923 OFFCURVE",
"643 733 CURVE SMOOTH",
"643 542 OFFCURVE",
"637 408 OFFCURVE",
"626 330 CURVE SMOOTH",
"602 173 OFFCURVE",
"552 94 OFFCURVE",
"460 94 CURVE SMOOTH"
);
}
);
width = 1205;
}
);
note = uniA2C9;
unicode = A2C9;
},
{
glyphname = "cut-yi";
lastChange = "2016-11-10 14:40:56 +0000";
layers = (
{
layerId = "7EC89B61-8520-4E3C-9660-9B6BD7352386";
paths = (
{
closed = 1;
nodes = (
"679 -26 OFFCURVE",
"715 -16 OFFCURVE",
"744 3 CURVE SMOOTH",
"802 41 OFFCURVE",
"836 115 OFFCURVE",
"853 251 CURVE SMOOTH",
"861 318 OFFCURVE",
"865 444 OFFCURVE",
"865 628 CURVE SMOOTH",
"865 728 LINE",
"950 728 LINE",
"950 253 LINE",
"1080 253 LINE",
"1080 1235 LINE",
"950 1235 LINE",
"950 838 LINE",
"865 838 LINE",
"865 856 LINE SMOOTH",
"865 1049 OFFCURVE",
"864 1208 OFFCURVE",
"836 1317 CURVE SMOOTH",
"807 1426 OFFCURVE",
"751 1488 OFFCURVE",
"639 1488 CURVE SMOOTH",
"527 1488 OFFCURVE",
"470 1426 OFFCURVE",
"442 1315 CURVE SMOOTH",
"413 1203 OFFCURVE",
"412 1045 OFFCURVE",
"412 853 CURVE SMOOTH",
"412 838 LINE",
"295 841 OFFCURVE",
"240 906 OFFCURVE",
"240 999 CURVE SMOOTH",
"240 1106 OFFCURVE",
"279 1148 OFFCURVE",
"388 1185 CURVE",
"333 1296 LINE",
"180 1236 OFFCURVE",
"100 1145 OFFCURVE",
"100 1009 CURVE SMOOTH",
"100 913 OFFCURVE",
"155 832 OFFCURVE",
"250 783 CURVE",
"153 730 OFFCURVE",
"100 650 OFFCURVE",
"100 557 CURVE SMOOTH",
"100 422 OFFCURVE",
"178 330 OFFCURVE",
"333 270 CURVE",
"388 381 LINE",
"352 392 OFFCURVE",
"323 406 OFFCURVE",
"302 422 CURVE SMOOTH",
"258 454 OFFCURVE",
"240 488 OFFCURVE",
"240 567 CURVE SMOOTH",
"240 660 OFFCURVE",
"295 725 OFFCURVE",
"412 728 CURVE",
"412 628 LINE SMOOTH",
"412 436 OFFCURVE",
"413 273 OFFCURVE",
"442 157 CURVE SMOOTH",
"470 41 OFFCURVE",
"526 -26 OFFCURVE",
"637 -26 CURVE SMOOTH"
);
},
{
closed = 1;
nodes = (
"607 94 OFFCURVE",
"585 120 OFFCURVE",
"572 172 CURVE SMOOTH",
"559 224 OFFCURVE",
"552 327 OFFCURVE",
"552 480 CURVE SMOOTH",
"552 1001 LINE SMOOTH",
"552 1150 OFFCURVE",
"559 1248 OFFCURVE",
"572 1296 CURVE SMOOTH",
"585 1344 OFFCURVE",
"607 1368 OFFCURVE",
"637 1368 CURVE SMOOTH",
"668 1368 OFFCURVE",
"691 1344 OFFCURVE",
"705 1295 CURVE SMOOTH",
"718 1246 OFFCURVE",
"725 1144 OFFCURVE",
"725 991 CURVE SMOOTH",
"725 475 LINE SMOOTH",
"725 320 OFFCURVE",
"718 217 OFFCURVE",
"705 168 CURVE SMOOTH",
"691 119 OFFCURVE",
"668 94 OFFCURVE",
"637 94 CURVE SMOOTH"
);
}
);
width = 1220;
}
);
note = uniA2C4;
unicode = A2C4;
},
{
glyphname = "cy-yi";
lastChange = "2016-11-10 14:40:56 +0000";
layers = (
{
layerId = "7EC89B61-8520-4E3C-9660-9B6BD7352386";
paths = (
{
closed = 1;
nodes = (
"225 0 LINE",
"523 588 LINE",
"822 0 LINE",
"967 0 LINE",
"595 729 LINE",
"967 1462 LINE",
"826 1462 LINE",
"523 869 LINE",
"221 1462 LINE",
"80 1462 LINE",
"452 729 LINE",
"80 0 LINE"
);
},
{
closed = 1;
nodes = (
"1074 417 LINE",
"1074 1051 LINE",
"944 1051 LINE",
"944 417 LINE"
);
}
);
width = 1194;
}
);
note = uniA2CC;
unicode = A2CC;
},
{
glyphname = "cyp-yi";
lastChange = "2016-11-10 14:40:56 +0000";
layers = (
{
layerId = "7EC89B61-8520-4E3C-9660-9B6BD7352386";
paths = (
{
closed = 1;
nodes = (
"593 1267 LINE",
"903 1092 LINE",
"964 1204 LINE",
"453 1488 LINE",
"453 202 LINE",
"141 370 LINE",
"80 258 LINE",
"593 -26 LINE"
);
}
);
width = 1044;
}
);
note = uniA2CD;
unicode = A2CD;
},
{
glyphname = "cyr-yi";
lastChange = "2016-11-10 14:40:56 +0000";
layers = (
{
layerId = "7EC89B61-8520-4E3C-9660-9B6BD7352386";
paths = (
{
closed = 1;
nodes = (
"525 1031 LINE",
"891 729 LINE",
"970 812 LINE",
"615 1106 LINE",
"970 1399 LINE",
"894 1488 LINE",
"525 1181 LINE",
"156 1488 LINE",
"80 1399 LINE",
"434 1106 LINE",
"80 812 LINE",
"159 729 LINE"
);
},
{
closed = 1;
nodes = (
"595 0 LINE",
"595 390 LINE",
"905 390 LINE",
"905 500 LINE",
"595 500 LINE",
"595 838 LINE",
"465 838 LINE",
"465 500 LINE",
"145 500 LINE",
"145 390 LINE",
"465 390 LINE",
"465 0 LINE"
);
}
);
width = 1050;
}
);
note = uniA2CF;
unicode = A2CF;
},
{
glyphname = "cyt-yi";
lastChange = "2016-11-10 14:40:56 +0000";
layers = (
{
layerId = "7EC89B61-8520-4E3C-9660-9B6BD7352386";
paths = (
{
closed = 1;
nodes = (
"862 1462 LINE",
"722 1462 LINE",
"722 897 LINE",
"168 1371 LINE",
"80 1263 LINE",
"862 610 LINE"
);
},
{
closed = 1;
nodes = (
"260 0 LINE",
"260 565 LINE",
"814 91 LINE",
"902 199 LINE",
"120 852 LINE",
"120 0 LINE"
);
}
);
width = 1002;
}
);
note = uniA2CA;
unicode = A2CA;
},
{
glyphname = "da-yi";
lastChange = "2016-11-10 14:40:56 +0000";
layers = (
{
layerId = "7EC89B61-8520-4E3C-9660-9B6BD7352386";
paths = (
{
closed = 1;
nodes = (
"504 599 LINE",
"843 -16 LINE",
"888 -16 LINE",
"888 1473 LINE",
"843 1473 LINE",
"504 857 LINE",
"173 1473 LINE",
"60 1407 LINE",
"433 728 LINE",
"60 50 LINE",
"173 -16 LINE"
);
},
{
closed = 1;
nodes = (
"220 547 LINE",
"220 951 LINE",
"90 951 LINE",
"90 547 LINE"
);
},
{
closed = 1;
nodes = (
"574 728 LINE",
"748 1051 LINE",
"748 406 LINE"
);
}
);
width = 1068;
}
);
note = uniA109;
unicode = A109;
},
{
glyphname = "dap-yi";
lastChange = "2016-11-10 14:40:56 +0000";
layers = (
{
layerId = "7EC89B61-8520-4E3C-9660-9B6BD7352386";
paths = (
{
closed = 1;
nodes = (
"689 599 LINE",
"1028 -16 LINE",
"1073 -16 LINE",
"1073 1473 LINE",
"1028 1473 LINE",
"689 857 LINE",
"358 1473 LINE",
"245 1407 LINE",
"618 728 LINE",
"245 50 LINE",
"358 -16 LINE"
);
},
{
closed = 1;
nodes = (
"360 816 LINE",
"439 763 LINE",
"497 867 LINE",
"230 1030 LINE",
"230 625 LINE",
"138 683 LINE",
"80 579 LINE",
"360 411 LINE"
);
},
{
closed = 1;
nodes = (
"759 728 LINE",
"933 1051 LINE",
"933 406 LINE"
);
}
);
width = 1253;
}
);
note = uniA10A;
unicode = A10A;
},
{
glyphname = "dat-yi";
lastChange = "2016-11-10 14:40:56 +0000";
layers = (
{
layerId = "7EC89B61-8520-4E3C-9660-9B6BD7352386";
paths = (
{
closed = 1;
nodes = (
"735 -26 OFFCURVE",
"844 100 OFFCURVE",
"844 372 CURVE SMOOTH",
"844 785 LINE",
"1263 785 LINE",
"1263 905 LINE",
"844 905 LINE",
"844 1462 LINE",
"704 1462 LINE",
"704 905 LINE",
"320 905 LINE",
"320 1462 LINE",
"180 1462 LINE",
"180 372 LINE SMOOTH",
"180 96 OFFCURVE",
"292 -26 OFFCURVE",
"511 -26 CURVE SMOOTH"
);
},
{
closed = 1;
nodes = (
"370 94 OFFCURVE",
"320 171 OFFCURVE",
"320 371 CURVE SMOOTH",
"320 785 LINE",
"704 785 LINE",
"704 371 LINE SMOOTH",
"704 170 OFFCURVE",
"652 94 OFFCURVE",
"513 94 CURVE SMOOTH"
);
},
{
closed = 1;
nodes = (
"1115 260 LINE",
"1115 630 LINE",
"985 630 LINE",
"985 260 LINE"
);
},
{
closed = 1;
nodes = (
"1115 1060 LINE",
"1115 1350 LINE",
"985 1350 LINE",
"985 1060 LINE"
);
}
);
width = 1283;
}
);
note = uniA107;
unicode = A107;
},
{
glyphname = "dda-yi";
lastChange = "2016-11-10 14:40:56 +0000";
layers = (
{
layerId = "7EC89B61-8520-4E3C-9660-9B6BD7352386";
paths = (
{
closed = 1;
nodes = (
"980 0 LINE",
"980 120 LINE",
"620 120 LINE",
"620 360 LINE",
"940 360 LINE",
"940 480 LINE",
"620 480 LINE",
"620 781 LINE",
"978 554 LINE",
"978 1241 LINE",
"620 1013 LINE",
"620 1342 LINE",
"980 1342 LINE",
"980 1462 LINE",
"120 1462 LINE",
"120 1342 LINE",
"480 1342 LINE",
"480 1005 LINE",
"182 1191 LINE",
"123 1097 LINE",
"437 897 LINE",
"123 698 LINE",
"182 604 LINE",
"480 789 LINE",
"480 480 LINE",
"160 480 LINE",
"160 360 LINE",
"480 360 LINE",
"480 120 LINE",
"120 120 LINE",
"120 0 LINE"
);
},
{
closed = 1;
nodes = (
"654 897 LINE",
"848 1018 LINE",
"848 777 LINE"
);
}
);
width = 1100;
}
);
note = uniA13F;
unicode = A13F;
},
{
glyphname = "ddap-yi";
lastChange = "2016-11-10 14:40:56 +0000";
layers = (
{
layerId = "7EC89B61-8520-4E3C-9660-9B6BD7352386";
paths = (
{
closed = 1;
nodes = (
"920 0 LINE",
"920 120 LINE",
"620 120 LINE",
"620 300 LINE",
"880 300 LINE",
"880 420 LINE",
"620 420 LINE",
"620 664 LINE",
"980 488 LINE",
"980 1002 LINE",
"840 1002 LINE",
"840 676 LINE",
"620 785 LINE",
"620 1092 LINE",
"880 1092 LINE",
"880 1212 LINE",
"620 1212 LINE",
"620 1342 LINE",
"920 1342 LINE",
"920 1462 LINE",
"180 1462 LINE",
"180 1342 LINE",
"480 1342 LINE",
"480 1212 LINE",
"220 1212 LINE",
"220 1092 LINE",
"480 1092 LINE",
"480 854 LINE",
"120 1032 LINE",
"120 508 LINE",
"260 508 LINE",
"260 841 LINE",
"480 733 LINE",
"480 420 LINE",
"220 420 LINE",
"220 300 LINE",
"480 300 LINE",
"480 120 LINE",
"180 120 LINE",
"180 0 LINE"
);
}
);
width = 1100;
}
);
note = uniA140;
unicode = A140;
},
{
glyphname = "ddat-yi";
lastChange = "2016-11-10 14:40:56 +0000";
layers = (
{
layerId = "7EC89B61-8520-4E3C-9660-9B6BD7352386";
paths = (
{
closed = 1;
nodes = (
"1006 0 LINE",
"1006 120 LINE",
"646 120 LINE",
"646 401 LINE",
"725 408 OFFCURVE",
"793 428 OFFCURVE",
"851 461 CURVE SMOOTH",
"967 527 OFFCURVE",
"1032 634 OFFCURVE",
"1032 754 CURVE SMOOTH",
"1032 812 OFFCURVE",
"1017 867 OFFCURVE",
"986 919 CURVE SMOOTH",
"924 1022 OFFCURVE",
"806 1091 OFFCURVE",
"646 1107 CURVE",
"646 1342 LINE",
"1006 1342 LINE",
"1006 1462 LINE",
"196 1462 LINE",
"196 1342 LINE",
"506 1342 LINE",
"506 1107 LINE",
"427 1100 OFFCURVE",
"359 1080 OFFCURVE",
"301 1047 CURVE SMOOTH",
"185 981 OFFCURVE",
"120 873 OFFCURVE",
"120 754 CURVE SMOOTH",
"120 693 OFFCURVE",
"135 637 OFFCURVE",
"166 586 CURVE SMOOTH",
"226 483 OFFCURVE",
"345 414 OFFCURVE",
"506 401 CURVE",
"506 120 LINE",
"196 120 LINE",
"196 0 LINE"
);
},
{
closed = 1;
nodes = (
"350 538 OFFCURVE",
"260 618 OFFCURVE",
"260 754 CURVE SMOOTH",
"260 889 OFFCURVE",
"347 970 OFFCURVE",
"506 986 CURVE",
"506 522 LINE"
);
},
{
closed = 1;
nodes = (
"646 986 LINE",
"803 970 OFFCURVE",
"892 891 OFFCURVE",
"892 754 CURVE SMOOTH",
"892 619 OFFCURVE",
"805 538 OFFCURVE",
"646 522 CURVE"
);
}
);
width = 1152;
}
);
note = uniA13D;
unicode = A13D;
},
{
glyphname = "dde-yi";
lastChange = "2016-11-10 14:40:56 +0000";
layers = (
{
layerId = "7EC89B61-8520-4E3C-9660-9B6BD7352386";
paths = (
{
closed = 1;
nodes = (
"353 25 OFFCURVE",
"471 78 OFFCURVE",
"568 144 CURVE",
"665 78 OFFCURVE",
"783 25 OFFCURVE",
"922 -16 CURVE",
"940 105 LINE",
"831 138 OFFCURVE",
"740 178 OFFCURVE",
"669 225 CURVE",
"810 358 OFFCURVE",
"880 527 OFFCURVE",
"880 733 CURVE SMOOTH",
"880 942 OFFCURVE",
"810 1110 OFFCURVE",
"671 1238 CURVE",
"731 1276 OFFCURVE",
"821 1317 OFFCURVE",
"940 1361 CURVE",
"922 1482 LINE",
"781 1437 OFFCURVE",
"663 1382 OFFCURVE",
"568 1319 CURVE",
"471 1383 OFFCURVE",
"353 1437 OFFCURVE",
"214 1482 CURVE",
"196 1361 LINE",
"315 1316 OFFCURVE",
"405 1275 OFFCURVE",
"465 1238 CURVE",
"326 1109 OFFCURVE",
"256 940 OFFCURVE",
"256 733 CURVE SMOOTH",
"256 528 OFFCURVE",
"326 358 OFFCURVE",
"466 225 CURVE",
"394 178 OFFCURVE",
"304 138 OFFCURVE",
"196 105 CURVE",
"214 -16 LINE"
);
},
{
closed = 1;
nodes = (
"453 413 OFFCURVE",
"396 556 OFFCURVE",
"396 733 CURVE SMOOTH",
"396 909 OFFCURVE",
"448 1047 OFFCURVE",
"568 1160 CURVE",
"683 1051 OFFCURVE",
"740 909 OFFCURVE",
"740 733 CURVE SMOOTH",
"740 558 OFFCURVE",
"683 415 OFFCURVE",
"568 304 CURVE"
);
},
{
closed = 1;
nodes = (
"633 593 LINE",
"633 912 LINE",
"503 912 LINE",
"503 593 LINE"
);
}
);
width = 1060;
}
);
note = uniA149;
unicode = A149;
},
{
glyphname = "ddep-yi";
lastChange = "2016-11-10 14:40:56 +0000";
layers = (
{
layerId = "7EC89B61-8520-4E3C-9660-9B6BD7352386";
paths = (
{
closed = 1;
nodes = (
"891 0 LINE",
"891 1268 LINE",
"1122 1146 LINE",
"1163 1267 LINE",
"751 1492 LINE",
"751 1226 LINE",
"456 1226 LINE",
"456 1462 LINE",
"326 1462 LINE",
"326 1113 LINE",
"149 1205 LINE",
"101 1095 LINE",
"456 919 LINE",
"456 1116 LINE",
"751 1116 LINE",
"751 898 LINE",
"723 898 LINE SMOOTH",
"607 898 OFFCURVE",
"503 879 OFFCURVE",
"411 842 CURVE SMOOTH",
"227 767 OFFCURVE",
"120 625 OFFCURVE",
"120 444 CURVE SMOOTH",
"120 164 OFFCURVE",
"354 0 OFFCURVE",
"747 0 CURVE SMOOTH"
);
},
{
closed = 1;
nodes = (
"418 120 OFFCURVE",
"260 236 OFFCURVE",
"260 444 CURVE SMOOTH",
"260 655 OFFCURVE",
"423 778 OFFCURVE",
"702 778 CURVE SMOOTH",
"751 778 LINE",
"751 120 LINE",
"702 120 LINE SMOOTH"
);
}
);
width = 1243;
}
);
note = uniA14A;
unicode = A14A;
},
{
glyphname = "ddi-yi";
lastChange = "2016-11-10 14:40:56 +0000";
layers = (
{
layerId = "7EC89B61-8520-4E3C-9660-9B6BD7352386";
paths = (
{
closed = 1;
nodes = (
"616 1267 LINE",
"926 1092 LINE",
"987 1204 LINE",
"476 1488 LINE",
"476 202 LINE",
"164 370 LINE",
"103 258 LINE",
"616 -26 LINE"
);
},
{
closed = 1;
nodes = (
"390 881 LINE",
"155 1045 LINE",
"80 938 LINE",
"315 775 LINE"
);
},
{
closed = 1;
nodes = (
"410 1211 LINE",
"175 1375 LINE",
"100 1268 LINE",
"335 1105 LINE"
);
}
);
width = 1067;
}
);
note = uniA138;
unicode = A138;
},
{
glyphname = "ddie-yi";
lastChange = "2016-11-10 14:40:56 +0000";
layers = (
{
layerId = "7EC89B61-8520-4E3C-9660-9B6BD7352386";
paths = (
{
closed = 1;
nodes = (
"980 0 LINE",
"980 120 LINE",
"620 120 LINE",
"620 390 LINE",
"940 390 LINE",
"940 510 LINE",
"620 510 LINE",
"620 970 LINE",
"840 970 LINE",
"840 675 LINE",
"980 675 LINE",
"980 1372 LINE",
"840 1372 LINE",
"840 1090 LINE",
"620 1090 LINE",
"620 1462 LINE",
"480 1462 LINE",
"480 1090 LINE",
"260 1090 LINE",
"260 1371 LINE",
"120 1371 LINE",
"120 675 LINE",
"260 675 LINE",
"260 970 LINE",
"480 970 LINE",
"480 510 LINE",
"160 510 LINE",
"160 390 LINE",
"480 390 LINE",
"480 120 LINE",
"120 120 LINE",
"120 0 LINE"
);
}
);
width = 1100;
}
);
note = uniA13B;
unicode = A13B;
},
{
glyphname = "ddiep-yi";
lastChange = "2016-11-10 14:40:56 +0000";
layers = (
{
layerId = "7EC89B61-8520-4E3C-9660-9B6BD7352386";
paths = (
{
closed = 1;
nodes = (
"620 0 LINE",
"620 512 LINE",
"764 471 OFFCURVE",
"850 311 OFFCURVE",
"879 30 CURVE",
"1009 30 LINE",
"969 394 OFFCURVE",
"837 599 OFFCURVE",
"620 636 CURVE",
"620 1040 LINE",
"840 1040 LINE",
"840 825 LINE",
"980 825 LINE",
"980 1372 LINE",
"840 1372 LINE",
"840 1160 LINE",
"620 1160 LINE",
"620 1462 LINE",
"480 1462 LINE",
"480 1160 LINE",
"260 1160 LINE",
"260 1371 LINE",
"120 1371 LINE",
"120 825 LINE",
"260 825 LINE",
"260 1040 LINE",
"480 1040 LINE",
"480 636 LINE",
"264 599 OFFCURVE",
"129 387 OFFCURVE",
"90 30 CURVE",
"221 30 LINE",
"253 311 OFFCURVE",
"339 471 OFFCURVE",
"480 512 CURVE",
"480 0 LINE"
);
}
);
width = 1099;
}
);
note = uniA13C;
unicode = A13C;
},
{
glyphname = "ddip-yi";
lastChange = "2016-11-10 14:40:56 +0000";
layers = (
{
layerId = "7EC89B61-8520-4E3C-9660-9B6BD7352386";
paths = (
{
closed = 1;
nodes = (
"980 0 LINE",
"980 120 LINE",
"620 120 LINE",
"620 430 LINE",
"940 430 LINE",
"940 550 LINE",
"620 550 LINE",
"620 984 LINE",
"980 788 LINE",
"980 1362 LINE",
"840 1362 LINE",
"840 996 LINE",
"620 1117 LINE",
"620 1462 LINE",
"480 1462 LINE",
"480 1194 LINE",
"120 1392 LINE",
"120 808 LINE",
"260 808 LINE",
"260 1181 LINE",
"480 1061 LINE",
"480 550 LINE",
"160 550 LINE",
"160 430 LINE",
"480 430 LINE",
"480 120 LINE",
"120 120 LINE",
"120 0 LINE"
);
}
);
width = 1100;
}
);
note = uniA139;
unicode = A139;
},
{
glyphname = "ddit-yi";
lastChange = "2016-11-10 14:40:56 +0000";
layers = (
{
layerId = "7EC89B61-8520-4E3C-9660-9B6BD7352386";
paths = (
{
closed = 1;
nodes = (
"620 0 LINE",
"620 1084 LINE",
"980 888 LINE",
"980 1462 LINE",
"840 1462 LINE",
"840 1096 LINE",
"120 1492 LINE",
"120 908 LINE",
"260 908 LINE",
"260 1281 LINE",
"480 1161 LINE",
"480 0 LINE"
);
},
{
closed = 1;
nodes = (
"290 260 LINE",
"290 730 LINE",
"160 730 LINE",
"160 260 LINE"
);
},
{
closed = 1;
nodes = (
"940 260 LINE",
"940 730 LINE",
"810 730 LINE",
"810 260 LINE"
);
}
);
width = 1100;
}
);
note = uniA136;
unicode = A136;
},
{
glyphname = "ddo-yi";
lastChange = "2016-11-10 14:40:56 +0000";
layers = (
{
layerId = "7EC89B61-8520-4E3C-9660-9B6BD7352386";
paths = (
{
closed = 1;
nodes = (
"771 434 OFFCURVE",
"911 577 OFFCURVE",
"911 832 CURVE SMOOTH",
"911 1462 LINE",
"771 1462 LINE",
"771 1080 LINE",
"584 1080 LINE",
"584 1462 LINE",
"454 1462 LINE",
"454 1080 LINE",
"267 1080 LINE",
"267 1462 LINE",
"127 1462 LINE",
"127 832 LINE SMOOTH",
"127 577 OFFCURVE",
"266 434 OFFCURVE",
"518 434 CURVE SMOOTH"
);
},
{
closed = 1;
nodes = (
"250 0 LINE",
"250 357 LINE",
"120 357 LINE",
"120 0 LINE"
);
},
{
closed = 1;
nodes = (
"584 0 LINE",
"584 357 LINE",
"454 357 LINE",
"454 0 LINE"
);
},
{
closed = 1;
nodes = (
"918 0 LINE",
"918 357 LINE",
"788 357 LINE",
"788 0 LINE"
);
},
{
closed = 1;
nodes = (
"334 581 OFFCURVE",
"267 672 OFFCURVE",
"267 831 CURVE SMOOTH",
"267 960 LINE",
"454 960 LINE",
"454 560 LINE"
);
},
{
closed = 1;
nodes = (
"584 960 LINE",
"771 960 LINE",
"771 831 LINE SMOOTH",
"771 676 OFFCURVE",
"705 583 OFFCURVE",
"584 560 CURVE"
);
}
);
width = 1038;
}
);
note = uniA146;
unicode = A146;
},
{
glyphname = "ddop-yi";
lastChange = "2016-11-10 14:40:56 +0000";
layers = (
{
layerId = "7EC89B61-8520-4E3C-9660-9B6BD7352386";
paths = (
{
closed = 1;
nodes = (
"614 641 LINE",
"614 846 LINE",
"914 846 LINE",
"914 956 LINE",
"614 956 LINE",
"614 1172 LINE",
"952 1025 LINE",
"952 1462 LINE",
"822 1462 LINE",
"822 1215 LINE",
"474 1363 LINE",
"474 956 LINE",
"174 956 LINE",
"174 846 LINE",
"474 846 LINE",
"474 641 LINE"
);
},
{
closed = 1;
nodes = (
"275 0 LINE",
"275 307 LINE",
"145 307 LINE",
"145 0 LINE"
);
},
{
closed = 1;
nodes = (
"609 0 LINE",
"609 307 LINE",
"479 307 LINE",
"479 0 LINE"
);
},
{
closed = 1;
nodes = (
"943 0 LINE",
"943 307 LINE",
"813 307 LINE",
"813 0 LINE"
);
},
{
closed = 1;
nodes = (
"768 374 OFFCURVE",
"933 502 OFFCURVE",
"1005 733 CURVE",
"864 733 LINE",
"815 574 OFFCURVE",
"708 494 OFFCURVE",
"545 494 CURVE SMOOTH",
"370 494 OFFCURVE",
"266 573 OFFCURVE",
"219 733 CURVE",
"80 733 LINE",
"147 501 OFFCURVE",
"306 374 OFFCURVE",
"545 374 CURVE SMOOTH"
);
}
);
width = 1085;
}
);
note = uniA147;
unicode = A147;
},
{
glyphname = "ddot-yi";
lastChange = "2016-11-10 14:40:56 +0000";
layers = (
{
layerId = "7EC89B61-8520-4E3C-9660-9B6BD7352386";
paths = (
{
closed = 1;
nodes = (
"773 424 OFFCURVE",
"915 565 OFFCURVE",
"976 854 CURVE",
"841 891 LINE",
"806 687 OFFCURVE",
"731 579 OFFCURVE",
"602 551 CURVE",
"602 1277 LINE",
"848 1148 LINE",
"909 1260 LINE",
"462 1488 LINE",
"462 550 LINE",
"333 575 OFFCURVE",
"255 678 OFFCURVE",
"220 891 CURVE",
"88 849 LINE",
"145 560 OFFCURVE",
"289 424 OFFCURVE",
"533 424 CURVE SMOOTH"
);
},
{
closed = 1;
nodes = (
"263 0 LINE",
"263 357 LINE",
"133 357 LINE",
"133 0 LINE"
);
},
{
closed = 1;
nodes = (
"597 0 LINE",
"597 357 LINE",
"467 357 LINE",
"467 0 LINE"
);
},
{
closed = 1;
nodes = (
"931 0 LINE",
"931 357 LINE",
"801 357 LINE",
"801 0 LINE"
);
}
);
width = 1064;
}
);
note = uniA144;
unicode = A144;
},
{
glyphname = "ddu-yi";
lastChange = "2016-11-10 14:40:56 +0000";
layers = (
{
layerId = "7EC89B61-8520-4E3C-9660-9B6BD7352386";
paths = (
{
closed = 1;
nodes = (
"724 0 LINE",
"724 794 LINE",
"984 829 OFFCURVE",
"1153 1061 OFFCURVE",
"1188 1432 CURVE",
"1046 1432 LINE",
"1014 1129 OFFCURVE",
"896 948 OFFCURVE",
"719 916 CURVE",
"719 1462 LINE",
"589 1462 LINE",
"589 915 LINE",
"406 946 OFFCURVE",
"287 1124 OFFCURVE",
"260 1432 CURVE",
"120 1432 LINE",
"152 1049 OFFCURVE",
"319 825 OFFCURVE",
"584 794 CURVE",
"584 0 LINE"
);
},
{
closed = 1;
nodes = (
"347 275 LINE",
"347 643 LINE",
"217 643 LINE",
"217 275 LINE"
);
}
);
width = 1308;
}
);
note = uniA14D;
unicode = A14D;
},
{
glyphname = "dduo-yi";
lastChange = "2016-11-10 14:40:56 +0000";
layers = (
{
layerId = "7EC89B61-8520-4E3C-9660-9B6BD7352386";
paths = (
{
closed = 1;
nodes = (
"848 -26 OFFCURVE",
"1014 177 OFFCURVE",
"1014 526 CURVE SMOOTH",
"1014 834 OFFCURVE",
"880 1033 OFFCURVE",
"647 1068 CURVE",
"647 1352 LINE",
"1004 1352 LINE",
"1004 1462 LINE",
"130 1462 LINE",
"130 1352 LINE",
"507 1352 LINE",
"507 1068 LINE",
"276 1035 OFFCURVE",
"140 836 OFFCURVE",
"140 529 CURVE SMOOTH",
"140 181 OFFCURVE",
"304 -26 OFFCURVE",
"577 -26 CURVE SMOOTH"
);
},
{
closed = 1;
nodes = (
"384 94 OFFCURVE",
"280 248 OFFCURVE",
"280 529 CURVE SMOOTH",
"280 800 OFFCURVE",
"386 953 OFFCURVE",
"575 953 CURVE SMOOTH",
"770 953 OFFCURVE",
"874 800 OFFCURVE",
"874 523 CURVE SMOOTH",
"874 244 OFFCURVE",
"770 94 OFFCURVE",
"575 94 CURVE SMOOTH"
);
}
);
width = 1144;
}
);
note = uniA142;
unicode = A142;
},
{
glyphname = "dduop-yi";
lastChange = "2016-11-10 14:40:56 +0000";
layers = (
{
layerId = "7EC89B61-8520-4E3C-9660-9B6BD7352386";
paths = (
{
closed = 1;
nodes = (
"564 481 LINE",
"944 -13 LINE",
"1048 67 LINE",
"644 585 LINE",
"1009 1059 LINE",
"619 1059 LINE",
"619 1342 LINE",
"999 1342 LINE",
"999 1462 LINE",
"129 1462 LINE",
"129 1342 LINE",
"479 1342 LINE",
"479 1059 LINE",
"119 1059 LINE",
"483 585 LINE",
"80 67 LINE",
"184 -13 LINE"
);
},
{
closed = 1;
nodes = (
"369 939 LINE",
"759 939 LINE",
"564 689 LINE"
);
}
);
width = 1128;
}
);
note = uniA143;
unicode = A143;
},
{
glyphname = "ddup-yi";
lastChange = "2016-11-10 14:40:56 +0000";
layers = (
{
layerId = "7EC89B61-8520-4E3C-9660-9B6BD7352386";
paths = (
{
closed = 1;
nodes = (
"801 0 LINE",
"801 711 LINE",
"953 711 LINE",
"953 363 LINE",
"1083 363 LINE",
"1083 1193 LINE",
"953 1193 LINE",
"953 831 LINE",
"801 831 LINE",
"801 1462 LINE",
"657 1462 LINE SMOOTH",
"299 1462 OFFCURVE",
"120 1339 OFFCURVE",
"120 1093 CURVE SMOOTH",
"120 932 OFFCURVE",
"201 822 OFFCURVE",
"362 763 CURVE",
"201 687 OFFCURVE",
"120 561 OFFCURVE",
"120 401 CURVE SMOOTH",
"120 140 OFFCURVE",
"308 0 OFFCURVE",
"657 0 CURVE SMOOTH"
);
},
{
closed = 1;
nodes = (
"380 127 OFFCURVE",
"260 216 OFFCURVE",
"260 401 CURVE SMOOTH",
"260 594 OFFCURVE",
"397 702 OFFCURVE",
"649 711 CURVE",
"661 711 LINE",
"661 120 LINE"
);
},
{
closed = 1;
nodes = (
"544 834 OFFCURVE",
"466 845 OFFCURVE",
"415 864 CURVE SMOOTH",
"313 901 OFFCURVE",
"260 972 OFFCURVE",
"260 1093 CURVE SMOOTH",
"260 1153 OFFCURVE",
"274 1200 OFFCURVE",
"302 1235 CURVE SMOOTH",
"357 1304 OFFCURVE",
"444 1337 OFFCURVE",
"661 1342 CURVE",
"661 831 LINE",
"649 830 LINE"
);
}
);
width = 1203;
}
);
note = uniA14E;
unicode = A14E;
},
{
glyphname = "ddur-yi";
lastChange = "2016-11-10 14:40:56 +0000";
layers = (
{
layerId = "7EC89B61-8520-4E3C-9660-9B6BD7352386";
paths = (
{
closed = 1;
nodes = (
"732 -26 OFFCURVE",
"819 -8 OFFCURVE",
"886 29 CURVE SMOOTH",
"1019 102 OFFCURVE",
"1076 235 OFFCURVE",
"1076 559 CURVE SMOOTH",
"1076 1462 LINE",
"936 1462 LINE",
"936 539 LINE SMOOTH",
"936 422 OFFCURVE",
"936 318 OFFCURVE",
"905 240 CURVE SMOOTH",
"873 162 OFFCURVE",
"813 110 OFFCURVE",
"693 97 CURVE",
"693 1462 LINE",
"563 1462 LINE",
"563 97 LINE",
"443 110 OFFCURVE",
"383 163 OFFCURVE",
"352 240 CURVE SMOOTH",
"320 317 OFFCURVE",
"320 422 OFFCURVE",
"320 539 CURVE SMOOTH",
"320 1462 LINE",
"180 1462 LINE",
"180 559 LINE SMOOTH",
"180 300 OFFCURVE",
"211 182 OFFCURVE",
"280 99 CURVE SMOOTH",
"348 16 OFFCURVE",
"461 -26 OFFCURVE",
"625 -26 CURVE SMOOTH"
);
}
);
width = 1256;
}
);
note = uniA150;
unicode = A150;
},
{
glyphname = "ddut-yi";
lastChange = "2016-11-10 14:40:56 +0000";
layers = (
{
layerId = "7EC89B61-8520-4E3C-9660-9B6BD7352386";
paths = (
{
closed = 1;
nodes = (
"936 0 LINE",
"936 31 LINE",
"608 676 LINE",
"927 676 LINE",
"927 417 LINE",
"1057 417 LINE",
"1057 1051 LINE",
"927 1051 LINE",
"927 786 LINE",
"609 786 LINE",
"936 1431 LINE",
"936 1462 LINE",
"80 1462 LINE",
"80 1431 LINE",
"436 732 LINE",
"80 31 LINE",
"80 0 LINE"
);
},
{
closed = 1;
nodes = (
"509 589 LINE",
"754 110 LINE",
"266 110 LINE"
);
},
{
closed = 1;
nodes = (
"265 1352 LINE",
"751 1352 LINE",
"508 874 LINE"
);
}
);
width = 1177;
}
);
note = uniA14B;
unicode = A14B;
},
{
glyphname = "de-yi";
lastChange = "2016-11-10 14:40:56 +0000";
layers = (
{
layerId = "7EC89B61-8520-4E3C-9660-9B6BD7352386";
paths = (
{
closed = 1;
nodes = (
"583 396 LINE",
"940 396 LINE",
"940 458 LINE",
"593 755 LINE",
"940 1053 LINE",
"940 1115 LINE",
"583 1115 LINE",
"583 1281 LINE",
"763 1184 LINE",
"824 1292 LINE",
"443 1488 LINE",
"443 1115 LINE",
"80 1115 LINE",
"80 1053 LINE",
"426 755 LINE",
"80 458 LINE",
"80 396 LINE",
"443 396 LINE",
"443 181 LINE",
"263 278 LINE",
"202 170 LINE",
"583 -26 LINE"
);
},
{
closed = 1;
nodes = (
"453 641 LINE",
"453 506 LINE",
"282 506 LINE"
);
},
{
closed = 1;
nodes = (
"573 637 LINE",
"738 506 LINE",
"573 506 LINE"
);
},
{
closed = 1;
nodes = (
"282 1005 LINE",
"453 1005 LINE",
"453 869 LINE"
);
},
{
closed = 1;
nodes = (
"573 1005 LINE",
"738 1005 LINE",
"573 874 LINE"
);
}
);
width = 1020;
}
);
note = uniA112;
unicode = A112;
},
{
glyphname = "dep-yi";
lastChange = "2016-11-10 14:40:56 +0000";
layers = (
{
layerId = "7EC89B61-8520-4E3C-9660-9B6BD7352386";
paths = (
{
closed = 1;
nodes = (
"620 0 LINE",
"620 512 LINE",
"764 471 OFFCURVE",
"850 311 OFFCURVE",
"879 30 CURVE",
"1009 30 LINE",
"969 394 OFFCURVE",
"837 599 OFFCURVE",
"620 636 CURVE",
"620 1084 LINE",
"980 888 LINE",
"980 1462 LINE",
"840 1462 LINE",
"840 1096 LINE",
"120 1492 LINE",
"120 908 LINE",
"260 908 LINE",
"260 1281 LINE",
"480 1161 LINE",
"480 636 LINE",
"264 599 OFFCURVE",
"129 387 OFFCURVE",
"90 30 CURVE",
"221 30 LINE",
"253 311 OFFCURVE",
"339 471 OFFCURVE",
"480 512 CURVE",
"480 0 LINE"
);
}
);
width = 1099;
}
);
note = uniA113;
unicode = A113;
},
{
glyphname = "di-yi";
lastChange = "2016-11-10 14:40:56 +0000";
layers = (
{
layerId = "7EC89B61-8520-4E3C-9660-9B6BD7352386";
paths = (
{
closed = 1;
nodes = (
"280 0 LINE",
"280 381 LINE",
"707 177 LINE",
"707 1276 LINE",
"953 1148 LINE",
"1014 1260 LINE",
"567 1488 LINE",
"567 378 LINE",
"140 600 LINE",
"140 0 LINE"
);
},
{
closed = 1;
nodes = (
"400 829 OFFCURVE",
"483 902 OFFCURVE",
"483 1022 CURVE SMOOTH",
"483 1073 OFFCURVE",
"461 1142 OFFCURVE",
"417 1230 CURVE SMOOTH",
"306 1445 LINE",
"183 1384 LINE",
"311 1149 LINE",
"318 1134 OFFCURVE",
"327 1117 OFFCURVE",
"338 1097 CURVE",
"348 1076 OFFCURVE",
"353 1052 OFFCURVE",
"353 1024 CURVE SMOOTH",
"353 985 OFFCURVE",
"322 949 OFFCURVE",
"265 949 CURVE SMOOTH",
"201 949 OFFCURVE",
"147 999 OFFCURVE",
"130 1074 CURVE",
"10 1027 LINE",
"55 895 OFFCURVE",
"138 829 OFFCURVE",
"261 829 CURVE SMOOTH"
);
}
);
width = 1134;
}
);
note = uniA102;
unicode = A102;
},
{
glyphname = "die-yi";
lastChange = "2016-11-10 14:40:56 +0000";
layers = (
{
layerId = "7EC89B61-8520-4E3C-9660-9B6BD7352386";
paths = (
{
closed = 1;
nodes = (
"424 897 LINE",
"524 812 LINE",
"522 772 LINE",
"522 732 LINE SMOOTH",
"522 405 OFFCURVE",
"652 157 OFFCURVE",
"913 -10 CURVE",
"986 98 LINE",
"758 251 OFFCURVE",
"662 439 OFFCURVE",
"662 732 CURVE SMOOTH",
"662 1025 OFFCURVE",
"765 1227 OFFCURVE",
"986 1366 CURVE",
"913 1474 LINE",
"706 1337 OFFCURVE",
"590 1169 OFFCURVE",
"545 958 CURVE",
"294 1171 LINE",
"294 211 LINE",
"144 314 LINE",
"80 214 LINE",
"424 -30 LINE"
);
},
{
closed = 1;
nodes = (
"1050 388 LINE",
"963 486 OFFCURVE",
"920 600 OFFCURVE",
"920 731 CURVE SMOOTH",
"920 780 OFFCURVE",
"925 824 OFFCURVE",
"934 861 CURVE SMOOTH",
"953 936 OFFCURVE",
"971 982 OFFCURVE",
"1050 1077 CURVE",
"961 1163 LINE",
"837 1040 OFFCURVE",
"785 897 OFFCURVE",
"785 733 CURVE SMOOTH",
"785 564 OFFCURVE",
"838 427 OFFCURVE",
"961 302 CURVE"
);
}
);
width = 1170;
}
);
note = uniA105;
unicode = A105;
},
{
glyphname = "diep-yi";
lastChange = "2016-11-10 14:40:56 +0000";
layers = (
{
layerId = "7EC89B61-8520-4E3C-9660-9B6BD7352386";
paths = (
{
closed = 1;
nodes = (
"580 550 LINE",
"787 -26 LINE",
"901 18 LINE",
"664 677 LINE",
"1040 478 LINE",
"1040 1092 LINE",
"910 1092 LINE",
"910 668 LINE",
"670 800 LINE",
"901 1444 LINE",
"787 1488 LINE",
"580 912 LINE",
"373 1488 LINE",
"259 1444 LINE",
"446 923 LINE",
"120 1102 LINE",
"120 498 LINE",
"250 498 LINE",
"250 896 LINE",
"504 762 LINE",
"515 731 LINE",
"259 18 LINE",
"373 -26 LINE"
);
}
);
width = 1160;
}
);
note = uniA106;
unicode = A106;
},
{
glyphname = "dip-yi";
lastChange = "2016-11-10 14:40:56 +0000";
layers = (
{
layerId = "7EC89B61-8520-4E3C-9660-9B6BD7352386";
paths = (
{
closed = 1;
nodes = (
"883 -26 OFFCURVE",
"1024 202 OFFCURVE",
"1024 605 CURVE SMOOTH",
"1024 698 LINE",
"1064 727 OFFCURVE",
"1094 772 OFFCURVE",
"1114 833 CURVE SMOOTH",
"1134 894 OFFCURVE",
"1144 990 OFFCURVE",
"1144 1121 CURVE",
"1004 1121 LINE",
"1004 1017 OFFCURVE",
"1000 943 OFFCURVE",
"991 899 CURVE SMOOTH",
"973 810 OFFCURVE",
"933 774 OFFCURVE",
"853 774 CURVE SMOOTH",
"752 774 OFFCURVE",
"702 854 OFFCURVE",
"702 1015 CURVE SMOOTH",
"702 1055 LINE",
"927 1333 LINE",
"590 1281 LINE",
"668 1435 LINE",
"557 1483 LINE",
"391 1143 LINE",
"665 1186 LINE",
"562 1077 LINE",
"562 1015 LINE SMOOTH",
"562 854 OFFCURVE",
"512 774 OFFCURVE",
"411 774 CURVE SMOOTH",
"328 774 OFFCURVE",
"292 811 OFFCURVE",
"274 899 CURVE SMOOTH",
"265 942 OFFCURVE",
"260 1016 OFFCURVE",
"260 1121 CURVE",
"120 1121 LINE",
"120 1025 OFFCURVE",
"124 954 OFFCURVE",
"132 907 CURVE SMOOTH",
"147 813 OFFCURVE",
"180 741 OFFCURVE",
"240 698 CURVE",
"240 605 LINE SMOOTH",
"240 202 OFFCURVE",
"381 -26 OFFCURVE",
"632 -26 CURVE SMOOTH"
);
},
{
closed = 1;
nodes = (
"469 94 OFFCURVE",
"380 268 OFFCURVE",
"380 595 CURVE SMOOTH",
"380 654 LINE",
"401 654 LINE SMOOTH",
"500 654 OFFCURVE",
"577 695 OFFCURVE",
"632 776 CURVE",
"685 695 OFFCURVE",
"762 654 OFFCURVE",
"863 654 CURVE SMOOTH",
"884 654 LINE",
"884 595 LINE SMOOTH",
"884 271 OFFCURVE",
"796 94 OFFCURVE",
"632 94 CURVE SMOOTH"
);
},
{
closed = 1;
nodes = (
"697 356 LINE",
"697 594 LINE",
"567 594 LINE",
"567 356 LINE"
);
}
);
width = 1264;
}
);
note = uniA103;
unicode = A103;
},
{
glyphname = "dit-yi";
lastChange = "2016-11-10 14:40:56 +0000";
layers = (
{
layerId = "7EC89B61-8520-4E3C-9660-9B6BD7352386";
paths = (
{
closed = 1;
nodes = (
"878 0 LINE",
"878 688 LINE",
"907 688 LINE SMOOTH",
"1020 688 OFFCURVE",
"1109 586 OFFCURVE",
"1109 451 CURVE SMOOTH",
"1109 324 OFFCURVE",
"1071 251 OFFCURVE",
"983 183 CURVE",
"1062 93 LINE",
"1187 189 OFFCURVE",
"1250 302 OFFCURVE",
"1250 451 CURVE SMOOTH",
"1250 564 OFFCURVE",
"1187 682 OFFCURVE",
"1094 742 CURVE",
"1189 806 OFFCURVE",
"1250 917 OFFCURVE",
"1250 1030 CURVE SMOOTH",
"1250 1190 OFFCURVE",
"1190 1297 OFFCURVE",
"1077 1389 CURVE",
"986 1303 LINE",
"1069 1241 OFFCURVE",
"1110 1151 OFFCURVE",
"1110 1034 CURVE SMOOTH",
"1110 903 OFFCURVE",
"1026 798 OFFCURVE",
"907 798 CURVE SMOOTH",
"878 798 LINE",
"878 1462 LINE",
"738 1462 LINE",
"738 0 LINE"
);
},
{
closed = 1;
nodes = (
"610 682 LINE",
"480 682 LINE",
"480 411 LINE",
"130 702 LINE",
"130 150 LINE",
"260 150 LINE",
"260 447 LINE",
"610 130 LINE"
);
},
{
closed = 1;
nodes = (
"610 1352 LINE",
"480 1352 LINE",
"480 1081 LINE",
"130 1372 LINE",
"130 820 LINE",
"260 820 LINE",
"260 1117 LINE",
"610 800 LINE"
);
}
);
width = 1380;
}
);
note = uniA100;
unicode = A100;
},
{
glyphname = "do-yi";
lastChange = "2016-11-10 14:40:56 +0000";
layers = (
{
layerId = "7EC89B61-8520-4E3C-9660-9B6BD7352386";
paths = (
{
closed = 1;
nodes = (
"280 0 LINE",
"280 381 LINE",
"707 177 LINE",
"707 844 LINE",
"1025 844 LINE",
"1025 954 LINE",
"707 954 LINE",
"707 1276 LINE",
"1017 1121 LINE",
"1078 1233 LINE",
"567 1488 LINE",
"567 954 LINE",
"247 954 LINE",
"247 844 LINE",
"567 844 LINE",
"567 378 LINE",
"140 600 LINE",
"140 0 LINE"
);
}
);
width = 1158;
}
);
note = uniA10F;
unicode = A10F;
},
{
glyphname = "dop-yi";
lastChange = "2016-11-10 14:40:56 +0000";
layers = (
{
layerId = "7EC89B61-8520-4E3C-9660-9B6BD7352386";
paths = (
{
closed = 1;
nodes = (
"593 714 LINE",
"911 714 LINE",
"911 824 LINE",
"593 824 LINE",
"593 1267 LINE",
"903 1092 LINE",
"964 1204 LINE",
"453 1488 LINE",
"453 824 LINE",
"133 824 LINE",
"133 714 LINE",
"453 714 LINE",
"453 202 LINE",
"141 370 LINE",
"80 258 LINE",
"593 -26 LINE"
);
}
);
width = 1044;
}
);
note = uniA110;
unicode = A110;
},
{
glyphname = "dot-yi";
lastChange = "2016-11-10 14:40:56 +0000";
layers = (
{
layerId = "7EC89B61-8520-4E3C-9660-9B6BD7352386";
paths = (
{
closed = 1;
nodes = (
"869 -26 OFFCURVE",
"1023 195 OFFCURVE",
"1023 603 CURVE SMOOTH",
"1023 974 OFFCURVE",
"894 1192 OFFCURVE",
"647 1224 CURVE",
"647 1462 LINE",
"517 1462 LINE",
"517 1224 LINE",
"273 1192 OFFCURVE",
"140 980 OFFCURVE",
"140 611 CURVE SMOOTH",
"140 207 OFFCURVE",
"302 -26 OFFCURVE",
"582 -26 CURVE SMOOTH"
);
},
{
closed = 1;
nodes = (
"387 94 OFFCURVE",
"280 276 OFFCURVE",
"280 611 CURVE SMOOTH",
"280 904 OFFCURVE",
"359 1068 OFFCURVE",
"517 1101 CURVE",
"517 704 LINE",
"647 704 LINE",
"647 1101 LINE",
"804 1065 OFFCURVE",
"883 899 OFFCURVE",
"883 603 CURVE SMOOTH",
"883 272 OFFCURVE",
"783 94 OFFCURVE",
"580 94 CURVE SMOOTH"
);
}
);
width = 1163;
}
);
note = uniA10D;
unicode = A10D;
},
{
glyphname = "du-yi";
lastChange = "2016-11-10 14:40:56 +0000";
layers = (
{
layerId = "7EC89B61-8520-4E3C-9660-9B6BD7352386";
paths = (
{
closed = 1;
nodes = (
"782 -26 OFFCURVE",
"894 51 OFFCURVE",
"961 168 CURVE",
"852 227 LINE",
"800 136 OFFCURVE",
"726 94 OFFCURVE",
"669 94 CURVE SMOOTH",
"626 94 OFFCURVE",
"612 113 OFFCURVE",
"605 166 CURVE SMOOTH",
"601 193 OFFCURVE",
"599 239 OFFCURVE",
"599 304 CURVE SMOOTH",
"599 475 LINE",
"845 475 LINE",
"845 585 LINE",
"599 585 LINE",
"599 725 LINE",
"845 725 LINE",
"845 835 LINE",
"599 835 LINE",
"599 1065 LINE",
"708 1146 OFFCURVE",
"796 1278 OFFCURVE",
"865 1462 CURVE",
"741 1488 LINE",
"700 1362 OFFCURVE",
"650 1267 OFFCURVE",
"591 1204 CURVE",
"564 1393 OFFCURVE",
"474 1488 OFFCURVE",
"320 1488 CURVE SMOOTH",
"189 1488 OFFCURVE",
"100 1389 OFFCURVE",
"100 1252 CURVE SMOOTH",
"100 1087 OFFCURVE",
"197 980 OFFCURVE",
"340 980 CURVE SMOOTH",
"379 980 OFFCURVE",
"419 985 OFFCURVE",
"459 996 CURVE",
"459 294 LINE SMOOTH",
"459 206 OFFCURVE",
"465 141 OFFCURVE",
"478 100 CURVE SMOOTH",
"503 16 OFFCURVE",
"558 -26 OFFCURVE",
"657 -26 CURVE SMOOTH"
);
},
{
closed = 1;
nodes = (
"285 269 LINE",
"285 776 LINE",
"155 776 LINE",
"155 269 LINE"
);
},
{
closed = 1;
nodes = (
"275 1100 OFFCURVE",
"230 1156 OFFCURVE",
"230 1252 CURVE SMOOTH",
"230 1329 OFFCURVE",
"261 1368 OFFCURVE",
"322 1368 CURVE SMOOTH",
"406 1368 OFFCURVE",
"454 1296 OFFCURVE",
"458 1117 CURVE",
"425 1106 OFFCURVE",
"390 1100 OFFCURVE",
"351 1100 CURVE SMOOTH"
);
}
);
width = 1041;
}
);
note = uniA116;
unicode = A116;
},
{
glyphname = "duo-yi";
lastChange = "2016-11-10 14:40:56 +0000";
layers = (
{
layerId = "7EC89B61-8520-4E3C-9660-9B6BD7352386";
paths = (
{
closed = 1;
nodes = (
"918 1462 LINE",
"778 1462 LINE",
"778 153 LINE",
"271 370 LINE",
"230 247 LINE",
"918 -30 LINE"
);
},
{
closed = 1;
nodes = (
"630 1348 LINE",
"500 1348 LINE",
"500 701 LINE",
"250 864 LINE",
"250 1080 LINE",
"120 1080 LINE",
"120 490 LINE",
"250 490 LINE",
"250 717 LINE",
"630 460 LINE"
);
}
);
width = 1098;
}
);
note = uniA10C;
unicode = A10C;
},
{
glyphname = "dup-yi";
lastChange = "2016-11-10 14:40:56 +0000";
layers = (
{
layerId = "7EC89B61-8520-4E3C-9660-9B6BD7352386";
paths = (
{
closed = 1;
nodes = (
"996 0 LINE",
"996 120 LINE",
"659 120 LINE SMOOTH",
"594 120 OFFCURVE",
"575 142 OFFCURVE",
"575 214 CURVE SMOOTH",
"575 368 LINE",
"953 368 LINE",
"953 478 LINE",
"575 478 LINE",
"575 690 LINE",
"843 693 OFFCURVE",
"1012 847 OFFCURVE",
"1012 1079 CURVE SMOOTH",
"1012 1156 OFFCURVE",
"994 1227 OFFCURVE",
"957 1290 CURVE SMOOTH",
"883 1416 OFFCURVE",
"743 1488 OFFCURVE",
"567 1488 CURVE SMOOTH",
"480 1488 OFFCURVE",
"402 1471 OFFCURVE",
"334 1436 CURVE SMOOTH",
"198 1366 OFFCURVE",
"120 1232 OFFCURVE",
"120 1079 CURVE SMOOTH",
"120 883 OFFCURVE",
"236 744 OFFCURVE",
"435 703 CURVE",
"435 214 LINE SMOOTH",
"435 148 OFFCURVE",
"440 102 OFFCURVE",
"451 76 CURVE SMOOTH",
"472 24 OFFCURVE",
"519 0 OFFCURVE",
"610 0 CURVE SMOOTH"
);
},
{
closed = 1;
nodes = (
"378 801 OFFCURVE",
"250 915 OFFCURVE",
"250 1079 CURVE SMOOTH",
"250 1251 OFFCURVE",
"376 1378 OFFCURVE",
"567 1378 CURVE SMOOTH",
"631 1378 OFFCURVE",
"687 1365 OFFCURVE",
"734 1339 CURVE SMOOTH",
"829 1287 OFFCURVE",
"882 1190 OFFCURVE",
"882 1079 CURVE SMOOTH",
"882 916 OFFCURVE",
"752 801 OFFCURVE",
"567 801 CURVE SMOOTH"
);
}
);
width = 1132;
}
);
note = uniA117;
unicode = A117;
},
{
glyphname = "dur-yi";
lastChange = "2016-11-10 14:40:56 +0000";
layers = (
{
layerId = "7EC89B61-8520-4E3C-9660-9B6BD7352386";
paths = (
{
closed = 1;
nodes = (
"580 0 LINE",
"580 746 LINE",
"940 746 LINE",
"940 856 LINE",
"580 856 LINE",
"580 1267 LINE",
"890 1092 LINE",
"951 1204 LINE",
"440 1488 LINE",
"440 856 LINE",
"80 856 LINE",
"80 746 LINE",
"440 746 LINE",
"440 0 LINE"
);
},
{
closed = 1;
nodes = (
"267 167 LINE",
"267 584 LINE",
"137 584 LINE",
"137 167 LINE"
);
}
);
width = 1031;
}
);
note = uniA119;
unicode = A119;
},
{
glyphname = "dut-yi";
lastChange = "2016-11-10 14:40:56 +0000";
layers = (
{
layerId = "7EC89B61-8520-4E3C-9660-9B6BD7352386";
paths = (
{
closed = 1;
nodes = (
"824 1462 LINE",
"684 1462 LINE",
"684 162 LINE",
"299 330 LINE",
"258 207 LINE",
"824 -30 LINE"
);
},
{
closed = 1;
nodes = (
"389 582 LINE",
"276 590 OFFCURVE",
"230 639 OFFCURVE",
"230 735 CURVE SMOOTH",
"230 810 OFFCURVE",
"284 872 OFFCURVE",
"368 885 CURVE",
"385 769 OFFCURVE",
"461 679 OFFCURVE",
"616 650 CURVE",
"617 764 LINE",
"528 789 OFFCURVE",
"484 849 OFFCURVE",
"484 944 CURVE SMOOTH",
"484 1036 OFFCURVE",
"526 1112 OFFCURVE",
"622 1143 CURVE",
"622 1258 LINE",
"477 1230 OFFCURVE",
"385 1133 OFFCURVE",
"368 998 CURVE",
"285 1011 OFFCURVE",
"230 1074 OFFCURVE",
"230 1149 CURVE SMOOTH",
"230 1245 OFFCURVE",
"276 1294 OFFCURVE",
"389 1302 CURVE",
"389 1414 LINE",
"213 1409 OFFCURVE",
"100 1308 OFFCURVE",
"100 1159 CURVE SMOOTH",
"100 1060 OFFCURVE",
"153 988 OFFCURVE",
"259 942 CURVE",
"160 907 OFFCURVE",
"100 825 OFFCURVE",
"100 725 CURVE SMOOTH",
"100 576 OFFCURVE",
"210 475 OFFCURVE",
"389 470 CURVE"
);
}
);
width = 1004;
}
);
note = uniA114;
unicode = A114;
},
{
glyphname = "e-yi";
lastChange = "2016-11-10 14:40:56 +0000";
layers = (
{
layerId = "7EC89B61-8520-4E3C-9660-9B6BD7352386";
paths = (
{
closed = 1;
nodes = (
"797 1277 LINE",
"1043 1148 LINE",
"1104 1260 LINE",
"657 1488 LINE",
"657 941 LINE",
"398 941 LINE",
"428 985 OFFCURVE",
"443 1030 OFFCURVE",
"443 1077 CURVE SMOOTH",
"443 1132 OFFCURVE",
"428 1182 OFFCURVE",
"399 1227 CURVE SMOOTH",
"339 1316 OFFCURVE",
"228 1369 OFFCURVE",
"80 1372 CURVE",
"80 1264 LINE",
"236 1247 OFFCURVE",
"303 1186 OFFCURVE",
"303 1067 CURVE SMOOTH",
"303 1003 OFFCURVE",
"274 940 OFFCURVE",
"210 912 CURVE",
"210 857 LINE",
"215 854 LINE",
"275 825 OFFCURVE",
"303 765 OFFCURVE",
"303 702 CURVE SMOOTH",
"303 583 OFFCURVE",
"235 522 OFFCURVE",
"80 505 CURVE",
"80 397 LINE",
"153 398 OFFCURVE",
"217 411 OFFCURVE",
"272 437 CURVE SMOOTH",
"382 488 OFFCURVE",
"443 583 OFFCURVE",
"443 692 CURVE SMOOTH",
"443 739 OFFCURVE",
"427 786 OFFCURVE",
"396 831 CURVE",
"657 831 LINE",
"657 202 LINE",
"411 334 LINE",
"350 222 LINE",
"797 -26 LINE"
);
}
);
width = 1184;
}
);
note = uniA014;
unicode = A014;
},
{
glyphname = "fa-yi";
lastChange = "2016-11-10 14:40:56 +0000";
layers = (
{
layerId = "7EC89B61-8520-4E3C-9660-9B6BD7352386";
paths = (
{
closed = 1;
nodes = (
"1002 1462 LINE",
"862 1462 LINE",
"862 1096 LINE",
"142 1492 LINE",
"142 908 LINE",
"282 908 LINE",
"282 1281 LINE",
"1002 888 LINE"
);
},
{
closed = 1;
nodes = (
"822 -26 OFFCURVE",
"979 124 OFFCURVE",
"1038 395 CURVE",
"906 445 LINE",
"867 217 OFFCURVE",
"757 94 OFFCURVE",
"577 94 CURVE SMOOTH",
"392 94 OFFCURVE",
"281 211 OFFCURVE",
"243 445 CURVE",
"110 395 LINE",
"169 122 OFFCURVE",
"333 -26 OFFCURVE",
"577 -26 CURVE SMOOTH"
);
},
{
closed = 1;
nodes = (
"492 407 LINE",
"492 935 LINE",
"362 935 LINE",
"362 407 LINE"
);
},
{
closed = 1;
nodes = (
"782 407 LINE",
"782 935 LINE",
"652 935 LINE",
"652 407 LINE"
);
}
);
width = 1148;
}
);
note = uniA0D3;
unicode = A0D3;
},
{
glyphname = "fap-yi";
lastChange = "2016-11-10 14:40:56 +0000";
layers = (
{
layerId = "7EC89B61-8520-4E3C-9660-9B6BD7352386";
paths = (
{
closed = 1;
nodes = (
"1006 1462 LINE",
"866 1462 LINE",
"866 1116 LINE",
"146 1492 LINE",
"146 968 LINE",
"286 968 LINE",
"286 1286 LINE",
"1006 908 LINE"
);
},
{
closed = 1;
nodes = (
"822 -26 OFFCURVE",
"979 124 OFFCURVE",
"1038 395 CURVE",
"906 445 LINE",
"867 217 OFFCURVE",
"757 94 OFFCURVE",
"577 94 CURVE SMOOTH",
"392 94 OFFCURVE",
"281 211 OFFCURVE",
"243 445 CURVE",
"110 395 LINE",
"169 122 OFFCURVE",
"333 -26 OFFCURVE",
"577 -26 CURVE SMOOTH"
);
},
{
closed = 1;
nodes = (
"641 317 LINE",
"641 585 LINE",
"511 585 LINE",
"511 317 LINE"
);
},
{
closed = 1;
nodes = (
"496 677 LINE",
"496 945 LINE",
"366 945 LINE",
"366 677 LINE"
);
},
{
closed = 1;
nodes = (
"786 677 LINE",
"786 945 LINE",
"656 945 LINE",
"656 677 LINE"
);
}
);
width = 1148;
}
);
note = uniA0D4;
unicode = A0D4;
},
{
glyphname = "fat-yi";
lastChange = "2016-11-10 14:40:56 +0000";
layers = (
{
layerId = "7EC89B61-8520-4E3C-9660-9B6BD7352386";
paths = (
{
closed = 1;
nodes = (
"427 670 LINE",
"920 670 LINE",
"920 0 LINE",
"1060 0 LINE",
"1060 1245 LINE",
"1203 1148 LINE",
"1267 1248 LINE",
"920 1488 LINE",
"920 790 LINE",
"427 790 LINE",
"427 1462 LINE",
"287 1462 LINE",
"287 217 LINE",
"144 314 LINE",
"80 214 LINE",
"427 -26 LINE"
);
},
{
closed = 1;
nodes = (
"783 142 OFFCURVE",
"845 220 OFFCURVE",
"845 360 CURVE SMOOTH",
"845 501 OFFCURVE",
"782 590 OFFCURVE",
"675 590 CURVE SMOOTH",
"568 590 OFFCURVE",
"501 507 OFFCURVE",
"501 360 CURVE SMOOTH",
"501 220 OFFCURVE",
"564 142 OFFCURVE",
"675 142 CURVE SMOOTH"
);
},
{
closed = 1;
nodes = (
"615 237 OFFCURVE",
"594 292 OFFCURVE",
"594 360 CURVE SMOOTH",
"594 457 OFFCURVE",
"622 494 OFFCURVE",
"675 494 CURVE SMOOTH",
"726 494 OFFCURVE",
"752 457 OFFCURVE",
"752 360 CURVE SMOOTH",
"752 278 OFFCURVE",
"725 237 OFFCURVE",
"670 237 CURVE SMOOTH"
);
},
{
closed = 1;
nodes = (
"783 870 OFFCURVE",
"845 948 OFFCURVE",
"845 1088 CURVE SMOOTH",
"845 1229 OFFCURVE",
"782 1318 OFFCURVE",
"675 1318 CURVE SMOOTH",
"568 1318 OFFCURVE",
"501 1235 OFFCURVE",
"501 1088 CURVE SMOOTH",
"501 948 OFFCURVE",
"564 870 OFFCURVE",
"675 870 CURVE SMOOTH"
);
},
{
closed = 1;
nodes = (
"615 965 OFFCURVE",
"594 1020 OFFCURVE",
"594 1088 CURVE SMOOTH",
"594 1185 OFFCURVE",
"622 1222 OFFCURVE",
"675 1222 CURVE SMOOTH",
"726 1222 OFFCURVE",
"752 1185 OFFCURVE",
"752 1088 CURVE SMOOTH",
"752 1006 OFFCURVE",
"725 965 OFFCURVE",
"670 965 CURVE SMOOTH"
);
}
);
width = 1347;
}
);
note = uniA0D1;
unicode = A0D1;
},
{
glyphname = "fi-yi";
lastChange = "2016-11-10 14:40:56 +0000";
layers = (
{
layerId = "7EC89B61-8520-4E3C-9660-9B6BD7352386";
paths = (
{
closed = 1;
nodes = (
"687 1267 LINE",
"997 1092 LINE",
"1058 1204 LINE",
"547 1488 LINE",
"547 946 LINE",
"250 946 LINE",
"250 1262 LINE",
"120 1262 LINE",
"120 500 LINE",
"250 500 LINE",
"250 836 LINE",
"547 836 LINE",
"547 202 LINE",
"235 370 LINE",
"174 258 LINE",
"687 -26 LINE"
);
}
);
width = 1138;
}
);
note = uniA0CF;
unicode = A0CF;
},
{
glyphname = "fip-yi";
lastChange = "2016-11-10 14:40:56 +0000";
layers = (
{
layerId = "7EC89B61-8520-4E3C-9660-9B6BD7352386";
paths = (
{
closed = 1;
nodes = (
"260 0 LINE",
"260 381 LINE",
"687 177 LINE",
"687 1276 LINE",
"933 1148 LINE",
"994 1260 LINE",
"547 1488 LINE",
"547 1104 LINE",
"250 1104 LINE",
"250 1410 LINE",
"120 1410 LINE",
"120 698 LINE",
"250 698 LINE",
"250 994 LINE",
"547 994 LINE",
"547 378 LINE",
"120 600 LINE",
"120 0 LINE"
);
}
);
width = 1074;
}
);
note = uniA0D0;
unicode = A0D0;
},
{
glyphname = "fit-yi";
lastChange = "2016-11-10 14:40:56 +0000";
layers = (
{
layerId = "7EC89B61-8520-4E3C-9660-9B6BD7352386";
paths = (
{
closed = 1;
nodes = (
"469 -26 OFFCURVE",
"526 11 OFFCURVE",
"567 86 CURVE",
"596 11 OFFCURVE",
"653 -26 OFFCURVE",
"738 -26 CURVE SMOOTH",
"905 -26 OFFCURVE",
"989 96 OFFCURVE",
"989 340 CURVE SMOOTH",
"989 431 OFFCURVE",
"973 617 OFFCURVE",
"941 812 CURVE",
"1054 812 LINE",
"1054 922 LINE",
"921 922 LINE",
"892 1042 LINE",
"1024 1042 LINE",
"1024 1152 LINE",
"859 1152 LINE",
"783 1376 OFFCURVE",
"686 1488 OFFCURVE",
"567 1488 CURVE SMOOTH",
"446 1488 OFFCURVE",
"346 1376 OFFCURVE",
"268 1152 CURVE",
"110 1152 LINE",
"110 1042 LINE",
"235 1042 LINE",
"224 1001 OFFCURVE",
"214 961 OFFCURVE",
"206 922 CURVE",
"80 922 LINE",
"80 812 LINE",
"186 812 LINE",
"159 651 OFFCURVE",
"145 493 OFFCURVE",
"145 340 CURVE SMOOTH",
"145 75 OFFCURVE",
"228 -26 OFFCURVE",
"396 -26 CURVE SMOOTH"
);
},
{
closed = 1;
nodes = (
"349 94 OFFCURVE",
"323 113 OFFCURVE",
"306 150 CURVE SMOOTH",
"289 187 OFFCURVE",
"280 251 OFFCURVE",
"280 340 CURVE SMOOTH",
"280 483 OFFCURVE",
"294 640 OFFCURVE",
"321 812 CURVE",
"480 812 LINE",
"480 922 LINE",
"340 922 LINE",
"368 1042 LINE",
"510 1042 LINE",
"510 1152 LINE",
"401 1152 LINE",
"445 1284 OFFCURVE",
"506 1368 OFFCURVE",
"567 1368 CURVE SMOOTH",
"628 1368 OFFCURVE",
"684 1296 OFFCURVE",
"734 1152 CURVE",
"624 1152 LINE",
"624 1042 LINE",
"768 1042 LINE",
"777 1011 OFFCURVE",
"786 971 OFFCURVE",
"795 922 CURVE",
"654 922 LINE",
"654 812 LINE",
"815 812 LINE",
"841 651 OFFCURVE",
"854 493 OFFCURVE",
"854 340 CURVE SMOOTH",
"854 258 OFFCURVE",
"846 197 OFFCURVE",
"830 156 CURVE SMOOTH",
"813 115 OFFCURVE",
"786 94 OFFCURVE",
"748 94 CURVE SMOOTH",
"671 94 OFFCURVE",
"632 174 OFFCURVE",
"632 335 CURVE SMOOTH",
"632 420 LINE",
"502 420 LINE",
"502 335 LINE SMOOTH",
"502 174 OFFCURVE",
"463 94 OFFCURVE",
"386 94 CURVE SMOOTH"
);
}
);
width = 1134;
}
);
note = uniA0CD;
unicode = A0CD;
},
{
glyphname = "fo-yi";
lastChange = "2016-11-10 14:40:56 +0000";
layers = (
{
layerId = "7EC89B61-8520-4E3C-9660-9B6BD7352386";
paths = (
{
closed = 1;
nodes = (
"902 0 LINE",
"902 1462 LINE",
"762 1462 LINE",
"762 1141 LINE",
"386 1356 LINE",
"333 1263 LINE",
"604 1108 LINE",
"530 1088 OFFCURVE",
"472 1050 OFFCURVE",
"430 993 CURVE",
"369 1107 OFFCURVE",
"271 1176 OFFCURVE",
"136 1200 CURVE",
"100 1091 LINE",
"271 1050 OFFCURVE",
"356 940 OFFCURVE",
"356 762 CURVE SMOOTH",
"356 601 OFFCURVE",
"264 488 OFFCURVE",
"100 449 CURVE",
"136 340 LINE",
"269 368 OFFCURVE",
"366 434 OFFCURVE",
"427 539 CURVE",
"471 484 OFFCURVE",
"529 447 OFFCURVE",
"602 430 CURVE",
"333 277 LINE",
"386 184 LINE",
"762 398 LINE",
"762 0 LINE"
);
},
{
closed = 1;
nodes = (
"572 527 OFFCURVE",
"490 603 OFFCURVE",
"486 751 CURVE",
"486 760 LINE SMOOTH",
"486 920 OFFCURVE",
"576 1014 OFFCURVE",
"723 1014 CURVE",
"762 1011 LINE",
"762 529 LINE",
"744 527 LINE",
"723 527 LINE SMOOTH"
);
}
);
width = 1082;
}
);
note = uniA0D6;
unicode = A0D6;
},
{
glyphname = "fop-yi";
lastChange = "2016-11-10 14:40:56 +0000";
layers = (
{
layerId = "7EC89B61-8520-4E3C-9660-9B6BD7352386";
paths = (
{
closed = 1;
nodes = (
"669 0 LINE",
"669 701 LINE",
"997 701 LINE",
"997 811 LINE",
"669 811 LINE",
"669 1462 LINE",
"529 1462 LINE",
"529 1141 LINE",
"153 1356 LINE",
"100 1263 LINE",
"370 1108 LINE",
"219 1068 OFFCURVE",
"123 932 OFFCURVE",
"123 760 CURVE SMOOTH",
"123 589 OFFCURVE",
"220 466 OFFCURVE",
"369 430 CURVE",
"100 277 LINE",
"153 184 LINE",
"529 398 LINE",
"529 0 LINE"
);
},
{
closed = 1;
nodes = (
"337 527 OFFCURVE",
"253 605 OFFCURVE",
"253 760 CURVE SMOOTH",
"253 920 OFFCURVE",
"343 1014 OFFCURVE",
"490 1014 CURVE",
"529 1011 LINE",
"529 529 LINE",
"511 527 LINE",
"490 527 LINE SMOOTH"
);
},
{
closed = 1;
nodes = (
"899 233 LINE",
"899 541 LINE",
"769 541 LINE",
"769 233 LINE"
);
},
{
closed = 1;
nodes = (
"899 971 LINE",
"899 1279 LINE",
"769 1279 LINE",
"769 971 LINE"
);
}
);
width = 1097;
}
);
note = uniA0D7;
unicode = A0D7;
},
{
glyphname = "fu-yi";
lastChange = "2016-11-10 14:40:56 +0000";
layers = (
{
layerId = "7EC89B61-8520-4E3C-9660-9B6BD7352386";
paths = (
{
closed = 1;
nodes = (
"480 0 LINE",
"480 330 LINE",
"793 330 LINE",
"793 0 LINE",
"933 0 LINE",
"933 666 LINE",
"988 672 OFFCURVE",
"1034 691 OFFCURVE",
"1070 724 CURVE SMOOTH",
"1142 789 OFFCURVE",
"1173 897 OFFCURVE",
"1173 1141 CURVE SMOOTH",
"1173 1292 LINE",
"1043 1292 LINE",
"1043 1161 LINE SMOOTH",
"1043 1037 OFFCURVE",
"1035 947 OFFCURVE",
"1020 892 CURVE SMOOTH",
"1005 837 OFFCURVE",
"976 803 OFFCURVE",
"933 790 CURVE",
"933 1462 LINE",
"793 1462 LINE",
"793 450 LINE",
"480 450 LINE",
"480 1462 LINE",
"340 1462 LINE",
"340 790 LINE",
"299 803 OFFCURVE",
"271 835 OFFCURVE",
"255 886 CURVE SMOOTH",
"238 937 OFFCURVE",
"230 1028 OFFCURVE",
"230 1161 CURVE SMOOTH",
"230 1292 LINE",
"100 1292 LINE",
"100 1141 LINE SMOOTH",
"100 1020 OFFCURVE",
"108 928 OFFCURVE",
"125 866 CURVE SMOOTH",
"157 742 OFFCURVE",
"231 678 OFFCURVE",
"340 666 CURVE",
"340 0 LINE"
);
}
);
width = 1273;
}
);
note = uniA0DA;
unicode = A0DA;
},
{
glyphname = "fup-yi";
lastChange = "2016-11-10 14:40:56 +0000";
layers = (
{
layerId = "7EC89B61-8520-4E3C-9660-9B6BD7352386";
paths = (
{
closed = 1;
nodes = (
"617 689 LINE",
"1084 389 LINE",
"1146 483 LINE",
"721 756 LINE",
"1146 1029 LINE",
"1084 1123 LINE",
"617 823 LINE",
"120 1143 LINE",
"120 369 LINE"
);
},
{
closed = 1;
nodes = (
"448 0 LINE",
"448 317 LINE",
"318 317 LINE",
"318 0 LINE"
);
},
{
closed = 1;
nodes = (
"902 0 LINE",
"902 317 LINE",
"772 317 LINE",
"772 0 LINE"
);
},
{
closed = 1;
nodes = (
"250 925 LINE",
"513 756 LINE",
"250 587 LINE"
);
},
{
closed = 1;
nodes = (
"448 1145 LINE",
"448 1462 LINE",
"318 1462 LINE",
"318 1145 LINE"
);
},
{
closed = 1;
nodes = (
"902 1145 LINE",
"902 1462 LINE",
"772 1462 LINE",
"772 1145 LINE"
);
}
);
width = 1246;
}
);
note = uniA0DB;
unicode = A0DB;
},
{
glyphname = "fur-yi";
lastChange = "2016-11-10 14:40:56 +0000";
layers = (
{
layerId = "7EC89B61-8520-4E3C-9660-9B6BD7352386";
paths = (
{
closed = 1;
nodes = (
"682 0 LINE",
"682 1102 LINE",
"1020 955 LINE",
"1020 1462 LINE",
"890 1462 LINE",
"890 1145 LINE",
"542 1293 LINE",
"542 970 LINE",
"434 1062 OFFCURVE",
"276 1108 OFFCURVE",
"100 1108 CURVE",
"100 988 LINE",
"371 988 OFFCURVE",
"542 859 OFFCURVE",
"542 654 CURVE SMOOTH",
"542 455 OFFCURVE",
"365 330 OFFCURVE",
"100 330 CURVE",
"100 210 LINE",
"268 210 OFFCURVE",
"430 256 OFFCURVE",
"542 351 CURVE",
"542 0 LINE"
);
},
{
closed = 1;
nodes = (
"283 532 LINE",
"283 792 LINE",
"153 792 LINE",
"153 532 LINE"
);
}
);
width = 1120;
}
);
note = uniA0DD;
unicode = A0DD;
},
{
glyphname = "fut-yi";
lastChange = "2016-11-10 14:40:56 +0000";
layers = (
{
layerId = "7EC89B61-8520-4E3C-9660-9B6BD7352386";
paths = (
{
closed = 1;
nodes = (
"536 0 LINE",
"536 1267 LINE",
"846 1092 LINE",
"907 1204 LINE",
"396 1488 LINE",
"396 0 LINE"
);
},
{
closed = 1;
nodes = (
"230 205 LINE",
"230 655 LINE",
"100 655 LINE",
"100 205 LINE"
);
},
{
closed = 1;
nodes = (
"230 925 LINE",
"230 1375 LINE",
"100 1375 LINE",
"100 925 LINE"
);
},
{
closed = 1;
nodes = (
"830 465 LINE",
"830 915 LINE",
"700 915 LINE",
"700 465 LINE"
);
}
);
width = 987;
}
);
note = uniA0D8;
unicode = A0D8;
},
{
glyphname = "fy-yi";
lastChange = "2016-11-10 14:40:56 +0000";
layers = (
{
layerId = "7EC89B61-8520-4E3C-9660-9B6BD7352386";
paths = (
{
closed = 1;
nodes = (
"309 0 LINE",
"309 401 LINE",
"693 227 LINE",
"693 886 LINE",
"936 918 OFFCURVE",
"1101 1129 OFFCURVE",
"1146 1462 CURVE",
"1004 1462 LINE",
"963 1195 OFFCURVE",
"852 1039 OFFCURVE",
"688 1008 CURVE",
"688 1462 LINE",
"558 1462 LINE",
"558 1007 LINE",
"477 1021 OFFCURVE",
"410 1062 OFFCURVE",
"358 1131 CURVE",
"490 1264 LINE",
"404 1355 LINE",
"294 1246 LINE",
"268 1309 OFFCURVE",
"250 1381 OFFCURVE",
"240 1462 CURVE",
"100 1462 LINE",
"115 1343 OFFCURVE",
"146 1237 OFFCURVE",
"193 1144 CURVE",
"60 1012 LINE",
"151 921 LINE",
"265 1037 LINE",
"339 950 OFFCURVE",
"435 900 OFFCURVE",
"553 886 CURVE",
"553 428 LINE",
"169 600 LINE",
"169 0 LINE"
);
}
);
width = 1246;
}
);
note = uniA0E0;
unicode = A0E0;
},
{
glyphname = "fyp-yi";
lastChange = "2016-11-10 14:40:56 +0000";
layers = (
{
layerId = "7EC89B61-8520-4E3C-9660-9B6BD7352386";
paths = (
{
closed = 1;
nodes = (
"309 0 LINE",
"309 401 LINE",
"693 227 LINE",
"693 553 LINE",
"1041 743 LINE",
"983 856 LINE",
"693 695 LINE",
"693 886 LINE",
"936 918 OFFCURVE",
"1101 1129 OFFCURVE",
"1146 1462 CURVE",
"1004 1462 LINE",
"961 1166 OFFCURVE",
"824 1002 OFFCURVE",
"623 1002 CURVE SMOOTH",
"408 1002 OFFCURVE",
"277 1171 OFFCURVE",
"240 1462 CURVE",
"100 1462 LINE",
"144 1114 OFFCURVE",
"305 915 OFFCURVE",
"553 886 CURVE",
"553 428 LINE",
"169 600 LINE",
"169 0 LINE"
);
}
);
width = 1246;
}
);
note = uniA0E1;
unicode = A0E1;
},
{
glyphname = "fyt-yi";
lastChange = "2016-11-10 14:40:56 +0000";
layers = (
{
layerId = "7EC89B61-8520-4E3C-9660-9B6BD7352386";
paths = (
{
closed = 1;
nodes = (
"260 0 LINE",
"260 401 LINE",
"644 227 LINE",
"644 541 LINE",
"1066 921 LINE",
"984 1018 LINE",
"644 708 LINE",
"644 936 LINE",
"1016 1271 LINE",
"934 1368 LINE",
"644 1103 LINE",
"644 1462 LINE",
"504 1462 LINE",
"504 428 LINE",
"120 600 LINE",
"120 0 LINE"
);
}
);
width = 1146;
}
);
note = uniA0DE;
unicode = A0DE;
},
{
glyphname = "ga-yi";
lastChange = "2016-11-10 14:40:56 +0000";
layers = (
{
layerId = "7EC89B61-8520-4E3C-9660-9B6BD7352386";
paths = (
{
closed = 1;
nodes = (
"817 820 OFFCURVE",
"998 1062 OFFCURVE",
"1039 1462 CURVE",
"909 1462 LINE",
"873 1134 OFFCURVE",
"743 940 OFFCURVE",
"558 940 CURVE SMOOTH",
"381 940 OFFCURVE",
"246 1143 OFFCURVE",
"211 1462 CURVE",
"80 1462 LINE",
"121 1067 OFFCURVE",
"304 820 OFFCURVE",
"560 820 CURVE SMOOTH"
);
},
{
closed = 1;
nodes = (
"211 0 LINE",
"246 319 OFFCURVE",
"381 522 OFFCURVE",
"558 522 CURVE SMOOTH",
"745 522 OFFCURVE",
"874 327 OFFCURVE",
"909 0 CURVE",
"1039 0 LINE",
"998 401 OFFCURVE",
"817 642 OFFCURVE",
"560 642 CURVE SMOOTH",
"305 642 OFFCURVE",
"121 393 OFFCURVE",
"80 0 CURVE"
);
}
);
width = 1119;
}
);
note = uniA1E4;
unicode = A1E4;
},
{
glyphname = "gap-yi";
lastChange = "2016-11-10 14:40:56 +0000";
layers = (
{
layerId = "7EC89B61-8520-4E3C-9660-9B6BD7352386";
paths = (
{
closed = 1;
nodes = (
"904 -26 OFFCURVE",
"1073 253 OFFCURVE",
"1073 733 CURVE SMOOTH",
"1073 1210 OFFCURVE",
"906 1488 OFFCURVE",
"607 1488 CURVE SMOOTH",
"311 1488 OFFCURVE",
"140 1208 OFFCURVE",
"140 741 CURVE SMOOTH",
"140 257 OFFCURVE",
"310 -26 OFFCURVE",
"607 -26 CURVE SMOOTH"
);
},
{
closed = 1;
nodes = (
"502 380 LINE",
"502 457 OFFCURVE",
"511 515 OFFCURVE",
"530 555 CURVE SMOOTH",
"549 594 OFFCURVE",
"575 614 OFFCURVE",
"610 614 CURVE SMOOTH",
"642 614 OFFCURVE",
"667 593 OFFCURVE",
"685 551 CURVE SMOOTH",
"703 508 OFFCURVE",
"712 451 OFFCURVE",
"712 380 CURVE",
"832 380 LINE",
"832 588 OFFCURVE",
"745 724 OFFCURVE",
"604 724 CURVE SMOOTH",
"467 724 OFFCURVE",
"382 587 OFFCURVE",
"382 380 CURVE"
);
},
{
closed = 1;
nodes = (
"393 94 OFFCURVE",
"280 314 OFFCURVE",
"280 741 CURVE SMOOTH",
"280 1140 OFFCURVE",
"400 1368 OFFCURVE",
"605 1368 CURVE SMOOTH",
"817 1368 OFFCURVE",
"933 1145 OFFCURVE",
"933 733 CURVE SMOOTH",
"933 320 OFFCURVE",
"816 94 OFFCURVE",
"605 94 CURVE SMOOTH"
);
},
{
closed = 1;
nodes = (
"745 790 OFFCURVE",
"832 925 OFFCURVE",
"832 1134 CURVE",
"712 1134 LINE",
"712 1063 OFFCURVE",
"703 1006 OFFCURVE",
"685 964 CURVE SMOOTH",
"667 921 OFFCURVE",
"642 900 OFFCURVE",
"610 900 CURVE SMOOTH",
"575 900 OFFCURVE",
"549 920 OFFCURVE",
"530 959 CURVE SMOOTH",
"511 998 OFFCURVE",
"502 1056 OFFCURVE",
"502 1134 CURVE",
"382 1134 LINE",
"382 929 OFFCURVE",
"467 790 OFFCURVE",
"604 790 CURVE SMOOTH"
);
}
);
width = 1213;
}
);
note = uniA1E5;
unicode = A1E5;
},
{
glyphname = "gat-yi";
lastChange = "2016-11-10 14:40:56 +0000";
layers = (
{
layerId = "7EC89B61-8520-4E3C-9660-9B6BD7352386";
paths = (
{
closed = 1;
nodes = (
"813 780 OFFCURVE",
"976 967 OFFCURVE",
"1031 1310 CURVE",
"900 1310 LINE",
"867 1047 OFFCURVE",
"747 900 OFFCURVE",
"574 900 CURVE SMOOTH",
"407 900 OFFCURVE",
"286 1059 OFFCURVE",
"254 1310 CURVE",
"120 1310 LINE",
"171 973 OFFCURVE",
"339 780 OFFCURVE",
"576 780 CURVE SMOOTH"
);
},
{
closed = 1;
nodes = (
"452 0 LINE",
"452 55 LINE SMOOTH",
"452 190 OFFCURVE",
"504 298 OFFCURVE",
"580 298 CURVE SMOOTH",
"651 298 OFFCURVE",
"702 191 OFFCURVE",
"702 64 CURVE SMOOTH",
"702 0 LINE",
"822 0 LINE",
"822 67 LINE SMOOTH",
"822 266 OFFCURVE",
"719 408 OFFCURVE",
"574 408 CURVE SMOOTH",
"431 408 OFFCURVE",
"332 260 OFFCURVE",
"332 67 CURVE SMOOTH",
"332 0 LINE"
);
},
{
closed = 1;
nodes = (
"254 152 LINE",
"286 403 OFFCURVE",
"407 562 OFFCURVE",
"574 562 CURVE SMOOTH",
"747 562 OFFCURVE",
"867 413 OFFCURVE",
"900 152 CURVE",
"1031 152 LINE",
"976 496 OFFCURVE",
"812 682 OFFCURVE",
"576 682 CURVE SMOOTH",
"337 682 OFFCURVE",
"171 488 OFFCURVE",
"120 152 CURVE"
);
},
{
closed = 1;
nodes = (
"719 1054 OFFCURVE",
"822 1196 OFFCURVE",
"822 1395 CURVE SMOOTH",
"822 1462 LINE",
"702 1462 LINE",
"702 1398 LINE SMOOTH",
"702 1270 OFFCURVE",
"649 1164 OFFCURVE",
"580 1164 CURVE SMOOTH",
"504 1164 OFFCURVE",
"452 1271 OFFCURVE",
"452 1407 CURVE SMOOTH",
"452 1462 LINE",
"332 1462 LINE",
"332 1395 LINE SMOOTH",
"332 1202 OFFCURVE",
"431 1054 OFFCURVE",
"574 1054 CURVE SMOOTH"
);
}
);
width = 1151;
}
);
note = uniA1E2;
unicode = A1E2;
},
{
glyphname = "ge-yi";
lastChange = "2016-11-10 14:40:56 +0000";
layers = (
{
layerId = "7EC89B61-8520-4E3C-9660-9B6BD7352386";
paths = (
{
closed = 1;
nodes = (
"593 1267 LINE",
"903 1092 LINE",
"964 1204 LINE",
"453 1488 LINE",
"453 202 LINE",
"141 370 LINE",
"80 258 LINE",
"593 -26 LINE"
);
},
{
closed = 1;
nodes = (
"227 728 LINE",
"227 1280 LINE",
"97 1280 LINE",
"97 728 LINE"
);
}
);
width = 1044;
}
);
note = uniA1F0;
unicode = A1F0;
},
{
glyphname = "gep-yi";
lastChange = "2016-11-10 14:40:56 +0000";
layers = (
{
layerId = "7EC89B61-8520-4E3C-9660-9B6BD7352386";
paths = (
{
closed = 1;
nodes = (
"240 0 LINE",
"240 401 LINE",
"624 227 LINE",
"624 1278 LINE",
"870 1148 LINE",
"931 1260 LINE",
"484 1488 LINE",
"484 428 LINE",
"100 600 LINE",
"100 0 LINE"
);
},
{
closed = 1;
nodes = (
"257 828 LINE",
"257 1380 LINE",
"127 1380 LINE",
"127 828 LINE"
);
}
);
width = 1011;
}
);
note = uniA1F1;
unicode = A1F1;
},
{
glyphname = "get-yi";
lastChange = "2016-11-10 14:40:56 +0000";
layers = (
{
layerId = "7EC89B61-8520-4E3C-9660-9B6BD7352386";
paths = (
{
closed = 1;
nodes = (
"240 0 LINE",
"240 401 LINE",
"624 227 LINE",
"624 712 LINE",
"852 712 LINE",
"852 486 LINE",
"982 486 LINE",
"982 1024 LINE",
"852 1024 LINE",
"852 822 LINE",
"624 822 LINE",
"624 1278 LINE",
"948 1124 LINE",
"1009 1236 LINE",
"484 1488 LINE",
"484 428 LINE",
"100 600 LINE",
"100 0 LINE"
);
}
);
width = 1089;
}
);
note = uniA1EE;
unicode = A1EE;
},
{
glyphname = "gga-yi";
lastChange = "2016-11-10 14:40:56 +0000";
layers = (
{
layerId = "7EC89B61-8520-4E3C-9660-9B6BD7352386";
paths = (
{
closed = 1;
nodes = (
"635 0 LINE",
"635 215 LINE",
"1010 215 LINE",
"1010 325 LINE",
"635 325 LINE",
"635 470 LINE",
"980 470 LINE",
"980 580 LINE",
"635 580 LINE",
"635 669 LINE",
"844 680 OFFCURVE",
"958 765 OFFCURVE",
"958 904 CURVE SMOOTH",
"958 1047 OFFCURVE",
"829 1118 OFFCURVE",
"556 1133 CURVE SMOOTH",
"466 1138 OFFCURVE",
"399 1149 OFFCURVE",
"355 1168 CURVE SMOOTH",
"310 1186 OFFCURVE",
"288 1215 OFFCURVE",
"288 1255 CURVE SMOOTH",
"288 1336 OFFCURVE",
"366 1377 OFFCURVE",
"522 1377 CURVE SMOOTH",
"667 1377 OFFCURVE",
"800 1333 OFFCURVE",
"884 1269 CURVE",
"933 1377 LINE",
"820 1451 OFFCURVE",
"683 1488 OFFCURVE",
"522 1488 CURVE SMOOTH",
"291 1488 OFFCURVE",
"158 1401 OFFCURVE",
"158 1252 CURVE SMOOTH",
"158 1105 OFFCURVE",
"295 1034 OFFCURVE",
"560 1022 CURVE SMOOTH",
"653 1017 OFFCURVE",
"721 1006 OFFCURVE",
"764 988 CURVE SMOOTH",
"807 969 OFFCURVE",
"828 940 OFFCURVE",
"828 901 CURVE SMOOTH",
"828 820 OFFCURVE",
"750 779 OFFCURVE",
"594 779 CURVE SMOOTH",
"439 779 OFFCURVE",
"298 823 OFFCURVE",
"169 910 CURVE",
"120 804 LINE",
"217 737 OFFCURVE",
"358 691 OFFCURVE",
"495 674 CURVE",
"495 580 LINE",
"150 580 LINE",
"150 470 LINE",
"495 470 LINE",
"495 325 LINE",
"120 325 LINE",
"120 215 LINE",
"495 215 LINE",
"495 0 LINE"
);
}
);
width = 1130;
}
);
note = uniA21C;
unicode = A21C;
},
{
glyphname = "ggap-yi";
lastChange = "2016-11-10 14:40:56 +0000";
layers = (
{
layerId = "7EC89B61-8520-4E3C-9660-9B6BD7352386";
paths = (
{
closed = 1;
nodes = (
"260 0 LINE",
"260 381 LINE",
"687 177 LINE",
"687 772 LINE",
"760 715 OFFCURVE",
"856 682 OFFCURVE",
"975 673 CURVE",
"975 793 LINE",
"788 808 OFFCURVE",
"687 892 OFFCURVE",
"687 1019 CURVE SMOOTH",
"687 1028 LINE SMOOTH",
"690 1147 OFFCURVE",
"791 1230 OFFCURVE",
"975 1246 CURVE",
"975 1365 LINE",
"855 1355 OFFCURVE",
"759 1322 OFFCURVE",
"687 1265 CURVE",
"687 1462 LINE",
"547 1462 LINE",
"547 378 LINE",
"120 600 LINE",
"120 0 LINE"
);
},
{
closed = 1;
nodes = (
"312 831 LINE",
"312 1340 LINE",
"182 1340 LINE",
"182 831 LINE"
);
}
);
width = 1075;
}
);
note = uniA21D;
unicode = A21D;
},
{
glyphname = "ggat-yi";
lastChange = "2016-11-10 14:40:56 +0000";
layers = (
{
layerId = "7EC89B61-8520-4E3C-9660-9B6BD7352386";
paths = (
{
closed = 1;
nodes = (
"260 0 LINE",
"260 391 LINE",
"564 227 LINE",
"564 881 LINE",
"909 881 LINE",
"909 351 LINE",
"1049 351 LINE",
"1049 1418 LINE",
"909 1418 LINE",
"909 1001 LINE",
"564 1001 LINE",
"564 1462 LINE",
"424 1462 LINE",
"424 438 LINE",
"120 620 LINE",
"120 0 LINE"
);
}
);
width = 1169;
}
);
note = uniA21A;
unicode = A21A;
},
{
glyphname = "gge-yi";
lastChange = "2016-11-10 14:40:56 +0000";
layers = (
{
layerId = "7EC89B61-8520-4E3C-9660-9B6BD7352386";
paths = (
{
closed = 1;
nodes = (
"1034 0 LINE",
"1034 1462 LINE",
"894 1462 LINE",
"894 0 LINE"
);
},
{
closed = 1;
nodes = (
"672 39 LINE",
"672 346 LINE",
"542 346 LINE",
"542 39 LINE"
);
},
{
closed = 1;
nodes = (
"320 0 LINE",
"320 1462 LINE",
"180 1462 LINE",
"180 0 LINE"
);
},
{
closed = 1;
nodes = (
"672 578 LINE",
"672 885 LINE",
"542 885 LINE",
"542 578 LINE"
);
},
{
closed = 1;
nodes = (
"672 1115 LINE",
"672 1422 LINE",
"542 1422 LINE",
"542 1115 LINE"
);
}
);
width = 1214;
}
);
note = uniA228;
unicode = A228;
},
{
glyphname = "ggep-yi";
lastChange = "2016-11-10 14:40:56 +0000";
layers = (
{
layerId = "7EC89B61-8520-4E3C-9660-9B6BD7352386";
paths = (
{
closed = 1;
nodes = (
"992 1277 LINE",
"1238 1148 LINE",
"1299 1260 LINE",
"852 1488 LINE",
"852 1021 LINE",
"588 1021 LINE",
"573 1223 OFFCURVE",
"493 1324 OFFCURVE",
"347 1324 CURVE SMOOTH",
"182 1324 OFFCURVE",
"100 1193 OFFCURVE",
"100 930 CURVE SMOOTH",
"100 671 OFFCURVE",
"183 556 OFFCURVE",
"347 556 CURVE SMOOTH",
"504 556 OFFCURVE",
"588 662 OFFCURVE",
"592 911 CURVE",
"852 911 LINE",
"852 202 LINE",
"538 370 LINE",
"477 258 LINE",
"992 -26 LINE"
);
},
{
closed = 1;
nodes = (
"287 667 OFFCURVE",
"257 706 OFFCURVE",
"242 769 CURVE SMOOTH",
"234 800 OFFCURVE",
"230 854 OFFCURVE",
"230 930 CURVE SMOOTH",
"230 1005 OFFCURVE",
"234 1060 OFFCURVE",
"242 1097 CURVE SMOOTH",
"257 1169 OFFCURVE",
"288 1214 OFFCURVE",
"347 1214 CURVE SMOOTH",
"424 1214 OFFCURVE",
"462 1119 OFFCURVE",
"462 930 CURVE SMOOTH",
"462 755 OFFCURVE",
"424 667 OFFCURVE",
"347 667 CURVE SMOOTH"
);
},
{
closed = 1;
nodes = (
"769 506 LINE",
"769 774 LINE",
"639 774 LINE",
"639 506 LINE"
);
},
{
closed = 1;
nodes = (
"769 1106 LINE",
"769 1374 LINE",
"639 1374 LINE",
"639 1106 LINE"
);
}
);
width = 1379;
}
);
note = uniA229;
unicode = A229;
},
{
glyphname = "gget-yi";
lastChange = "2016-11-10 14:40:56 +0000";
layers = (
{
layerId = "7EC89B61-8520-4E3C-9660-9B6BD7352386";
paths = (
{
closed = 1;
nodes = (
"723 1277 LINE",
"969 1148 LINE",
"1030 1260 LINE",
"583 1488 LINE",
"583 950 LINE",
"80 950 LINE",
"80 830 LINE",
"583 830 LINE",
"583 202 LINE",
"271 370 LINE",
"210 258 LINE",
"723 -26 LINE"
);
},
{
closed = 1;
nodes = (
"240 457 LINE",
"240 724 LINE",
"110 724 LINE",
"110 457 LINE"
);
},
{
closed = 1;
nodes = (
"464 457 LINE",
"464 724 LINE",
"334 724 LINE",
"334 457 LINE"
);
},
{
closed = 1;
nodes = (
"240 1057 LINE",
"240 1324 LINE",
"110 1324 LINE",
"110 1057 LINE"
);
},
{
closed = 1;
nodes = (
"464 1057 LINE",
"464 1324 LINE",
"334 1324 LINE",
"334 1057 LINE"
);
}
);
width = 1110;
}
);
note = uniA226;
unicode = A226;
},
{
glyphname = "ggi-yi";
lastChange = "2016-11-10 14:40:56 +0000";
layers = (
{
layerId = "7EC89B61-8520-4E3C-9660-9B6BD7352386";
paths = (
{
closed = 1;
nodes = (
"919 1462 LINE",
"779 1462 LINE",
"779 153 LINE",
"272 370 LINE",
"231 247 LINE",
"919 -30 LINE"
);
},
{
closed = 1;
nodes = (
"293 643 OFFCURVE",
"345 777 OFFCURVE",
"345 946 CURVE SMOOTH",
"345 1111 OFFCURVE",
"294 1252 OFFCURVE",
"169 1376 CURVE",
"82 1290 LINE",
"121 1243 OFFCURVE",
"149 1204 OFFCURVE",
"164 1174 CURVE SMOOTH",
"195 1114 OFFCURVE",
"215 1041 OFFCURVE",
"215 944 CURVE SMOOTH",
"215 813 OFFCURVE",
"175 708 OFFCURVE",
"80 601 CURVE",
"169 515 LINE"
);
},
{
closed = 1;
nodes = (
"685 601 LINE",
"596 702 OFFCURVE",
"551 816 OFFCURVE",
"551 943 CURVE SMOOTH",
"551 990 OFFCURVE",
"556 1033 OFFCURVE",
"565 1072 CURVE SMOOTH",
"584 1149 OFFCURVE",
"607 1198 OFFCURVE",
"683 1290 CURVE",
"596 1376 LINE",
"472 1253 OFFCURVE",
"420 1110 OFFCURVE",
"420 946 CURVE SMOOTH",
"420 777 OFFCURVE",
"473 640 OFFCURVE",
"596 515 CURVE"
);
}
);
width = 1099;
}
);
note = uniA216;
unicode = A216;
},
{
glyphname = "ggie-yi";
lastChange = "2016-11-10 14:40:56 +0000";
layers = (
{
layerId = "7EC89B61-8520-4E3C-9660-9B6BD7352386";
paths = (
{
closed = 1;
nodes = (
"835 0 LINE",
"835 1277 LINE",
"1081 1148 LINE",
"1142 1260 LINE",
"695 1488 LINE",
"695 1305 LINE",
"608 1357 OFFCURVE",
"508 1387 OFFCURVE",
"425 1387 CURVE SMOOTH",
"224 1387 OFFCURVE",
"84 1279 OFFCURVE",
"84 1120 CURVE SMOOTH",
"84 1068 OFFCURVE",
"95 1019 OFFCURVE",
"117 974 CURVE",
"94 912 OFFCURVE",
"82 845 OFFCURVE",
"82 774 CURVE SMOOTH",
"82 695 OFFCURVE",
"96 625 OFFCURVE",
"123 564 CURVE",
"94 500 OFFCURVE",
"80 432 OFFCURVE",
"80 361 CURVE SMOOTH",
"80 300 OFFCURVE",
"89 241 OFFCURVE",
"107 183 CURVE",
"232 242 LINE",
"217 271 OFFCURVE",
"210 317 OFFCURVE",
"210 380 CURVE SMOOTH",
"210 406 OFFCURVE",
"212 428 OFFCURVE",
"215 447 CURVE",
"265 408 OFFCURVE",
"326 388 OFFCURVE",
"398 388 CURVE SMOOTH",
"519 388 OFFCURVE",
"596 458 OFFCURVE",
"596 577 CURVE SMOOTH",
"596 686 OFFCURVE",
"518 753 OFFCURVE",
"389 753 CURVE SMOOTH",
"326 753 OFFCURVE",
"269 733 OFFCURVE",
"220 692 CURVE",
"215 717 OFFCURVE",
"213 744 OFFCURVE",
"213 775 CURVE SMOOTH",
"213 795 OFFCURVE",
"215 821 OFFCURVE",
"218 852 CURVE",
"269 817 OFFCURVE",
"326 800 OFFCURVE",
"389 800 CURVE SMOOTH",
"520 800 OFFCURVE",
"596 868 OFFCURVE",
"596 976 CURVE SMOOTH",
"596 1093 OFFCURVE",
"521 1165 OFFCURVE",
"398 1165 CURVE SMOOTH",
"329 1165 OFFCURVE",
"267 1145 OFFCURVE",
"214 1104 CURVE",
"214 1113 LINE SMOOTH",
"214 1210 OFFCURVE",
"275 1277 OFFCURVE",
"422 1277 CURVE SMOOTH",
"498 1277 OFFCURVE",
"614 1229 OFFCURVE",
"695 1157 CURVE",
"695 0 LINE"
);
},
{
closed = 1;
nodes = (
"341 498 OFFCURVE",
"296 524 OFFCURVE",
"263 576 CURVE",
"294 621 OFFCURVE",
"337 643 OFFCURVE",
"391 643 CURVE SMOOTH",
"432 643 OFFCURVE",
"471 616 OFFCURVE",
"471 573 CURVE SMOOTH",
"471 522 OFFCURVE",
"439 498 OFFCURVE",
"396 498 CURVE SMOOTH"
);
},
{
closed = 1;
nodes = (
"337 910 OFFCURVE",
"293 931 OFFCURVE",
"260 972 CURVE",
"294 1027 OFFCURVE",
"339 1055 OFFCURVE",
"396 1055 CURVE SMOOTH",
"439 1055 OFFCURVE",
"471 1031 OFFCURVE",
"471 980 CURVE SMOOTH",
"471 937 OFFCURVE",
"432 910 OFFCURVE",
"391 910 CURVE SMOOTH"
);
}
);
width = 1222;
}
);
note = uniA218;
unicode = A218;
},
{
glyphname = "ggiep-yi";
lastChange = "2016-11-10 14:40:56 +0000";
layers = (
{
layerId = "7EC89B61-8520-4E3C-9660-9B6BD7352386";
paths = (
{
closed = 1;
nodes = (
"820 0 LINE",
"820 584 LINE",
"1040 468 LINE",
"1040 1262 LINE",
"910 1262 LINE",
"910 658 LINE",
"460 905 LINE",
"460 1462 LINE",
"320 1462 LINE",
"320 982 LINE",
"120 1092 LINE",
"120 248 LINE",
"250 248 LINE",
"250 886 LINE",
"680 658 LINE",
"680 0 LINE"
);
}
);
width = 1160;
}
);
note = uniA219;
unicode = A219;
},
{
glyphname = "ggit-yi";
lastChange = "2016-11-10 14:40:56 +0000";
layers = (
{
layerId = "7EC89B61-8520-4E3C-9660-9B6BD7352386";
paths = (
{
closed = 1;
nodes = (
"447 276 LINE",
"342 315 OFFCURVE",
"280 404 OFFCURVE",
"280 524 CURVE SMOOTH",
"280 663 OFFCURVE",
"372 756 OFFCURVE",
"517 779 CURVE",
"517 903 LINE",
"373 924 OFFCURVE",
"291 1003 OFFCURVE",
"291 1132 CURVE SMOOTH",
"291 1285 OFFCURVE",
"400 1368 OFFCURVE",
"608 1368 CURVE SMOOTH",
"812 1368 OFFCURVE",
"923 1288 OFFCURVE",
"923 1132 CURVE SMOOTH",
"923 1005 OFFCURVE",
"842 924 OFFCURVE",
"697 903 CURVE",
"697 780 LINE",
"849 759 OFFCURVE",
"932 667 OFFCURVE",
"932 524 CURVE SMOOTH",
"932 403 OFFCURVE",
"874 316 OFFCURVE",
"767 276 CURVE",
"767 141 LINE",
"950 192 OFFCURVE",
"1072 341 OFFCURVE",
"1072 524 CURVE SMOOTH",
"1072 661 OFFCURVE",
"1005 779 OFFCURVE",
"890 843 CURVE",
"1002 910 OFFCURVE",
"1063 1017 OFFCURVE",
"1063 1132 CURVE SMOOTH",
"1063 1198 OFFCURVE",
"1044 1258 OFFCURVE",
"1007 1313 CURVE SMOOTH",
"932 1422 OFFCURVE",
"795 1488 OFFCURVE",
"608 1488 CURVE SMOOTH",
"515 1488 OFFCURVE",
"434 1473 OFFCURVE",
"366 1442 CURVE SMOOTH",
"230 1380 OFFCURVE",
"151 1263 OFFCURVE",
"151 1132 CURVE SMOOTH",
"151 1012 OFFCURVE",
"214 904 OFFCURVE",
"322 841 CURVE",
"203 772 OFFCURVE",
"140 656 OFFCURVE",
"140 524 CURVE SMOOTH",
"140 340 OFFCURVE",
"256 190 OFFCURVE",
"447 139 CURVE"
);
},
{
closed = 1;
nodes = (
"677 0 LINE",
"677 539 LINE",
"537 539 LINE",
"537 0 LINE"
);
}
);
width = 1212;
}
);
note = uniA214;
unicode = A214;
},
{
glyphname = "ggo-yi";
lastChange = "2016-11-10 14:40:56 +0000";
layers = (
{
layerId = "7EC89B61-8520-4E3C-9660-9B6BD7352386";
paths = (
{
closed = 1;
nodes = (
"260 0 LINE",
"260 431 LINE",
"777 207 LINE",
"777 1462 LINE",
"637 1462 LINE",
"637 398 LINE",
"260 560 LINE",
"260 949 LINE",
"120 949 LINE",
"120 0 LINE"
);
}
);
width = 957;
}
);
note = uniA224;
unicode = A224;
},
{
glyphname = "ggop-yi";
lastChange = "2016-11-10 14:40:56 +0000";
layers = (
{
layerId = "7EC89B61-8520-4E3C-9660-9B6BD7352386";
paths = (
{
closed = 1;
nodes = (
"240 0 LINE",
"240 431 LINE",
"757 207 LINE",
"757 1462 LINE",
"617 1462 LINE",
"617 398 LINE",
"100 620 LINE",
"100 0 LINE"
);
},
{
closed = 1;
nodes = (
"262 864 LINE",
"262 1384 LINE",
"132 1384 LINE",
"132 864 LINE"
);
}
);
width = 937;
}
);
note = uniA225;
unicode = A225;
},
{
glyphname = "ggot-yi";
lastChange = "2016-11-10 14:40:56 +0000";
layers = (
{
layerId = "7EC89B61-8520-4E3C-9660-9B6BD7352386";
paths = (
{
closed = 1;
nodes = (
"613 654 LINE",
"972 458 LINE",
"972 1032 LINE",
"832 1032 LINE",
"832 666 LINE",
"613 786 LINE",
"613 1267 LINE",
"923 1092 LINE",
"984 1204 LINE",
"473 1488 LINE",
"473 863 LINE",
"112 1062 LINE",
"112 478 LINE",
"252 478 LINE",
"252 851 LINE",
"473 730 LINE",
"473 202 LINE",
"161 370 LINE",
"100 258 LINE",
"613 -26 LINE"
);
}
);
width = 1084;
}
);
note = uniA222;
unicode = A222;
},
{
glyphname = "ggu-yi";
lastChange = "2016-11-10 14:40:56 +0000";
layers = (
{
layerId = "7EC89B61-8520-4E3C-9660-9B6BD7352386";
paths = (
{
closed = 1;
nodes = (
"964 1482 LINE",
"508 1186 LINE",
"139 1422 LINE",
"80 1328 LINE",
"403 1118 LINE",
"80 908 LINE",
"139 814 LINE",
"508 1050 LINE",
"964 754 LINE"
);
},
{
closed = 1;
nodes = (
"964 702 LINE",
"508 406 LINE",
"139 642 LINE",
"80 548 LINE",
"403 338 LINE",
"80 128 LINE",
"139 34 LINE",
"508 270 LINE",
"964 -26 LINE"
);
},
{
closed = 1;
nodes = (
"614 338 LINE",
"834 479 LINE",
"834 197 LINE"
);
},
{
closed = 1;
nodes = (
"614 1118 LINE",
"834 1259 LINE",
"834 977 LINE"
);
}
);
width = 1084;
}
);
note = uniA22C;
unicode = A22C;
},
{
glyphname = "gguo-yi";
lastChange = "2016-11-10 14:40:56 +0000";
layers = (
{
layerId = "7EC89B61-8520-4E3C-9660-9B6BD7352386";
paths = (
{
closed = 1;
nodes = (
"811 -26 OFFCURVE",
"883 77 OFFCURVE",
"883 336 CURVE SMOOTH",
"883 394 LINE",
"950 301 OFFCURVE",
"992 170 OFFCURVE",
"1010 0 CURVE",
"1140 0 LINE",
"1109 279 OFFCURVE",
"1016 474 OFFCURVE",
"883 570 CURVE",
"883 1071 LINE SMOOTH",
"883 1190 OFFCURVE",
"889 1270 OFFCURVE",
"900 1309 CURVE SMOOTH",
"911 1348 OFFCURVE",
"933 1368 OFFCURVE",
"964 1368 CURVE SMOOTH",
"1017 1368 OFFCURVE",
"1047 1323 OFFCURVE",
"1054 1210 CURVE",
"1182 1233 LINE",
"1167 1410 OFFCURVE",
"1102 1488 OFFCURVE",
"966 1488 CURVE SMOOTH",
"817 1488 OFFCURVE",
"743 1378 OFFCURVE",
"743 1159 CURVE SMOOTH",
"743 633 LINE",
"717 639 OFFCURVE",
"690 642 OFFCURVE",
"661 642 CURVE SMOOTH",
"618 642 OFFCURVE",
"578 635 OFFCURVE",
"539 622 CURVE",
"539 1159 LINE SMOOTH",
"539 1378 OFFCURVE",
"465 1488 OFFCURVE",
"316 1488 CURVE SMOOTH",
"180 1488 OFFCURVE",
"115 1410 OFFCURVE",
"100 1233 CURVE",
"228 1210 LINE",
"235 1323 OFFCURVE",
"265 1368 OFFCURVE",
"318 1368 CURVE SMOOTH",
"349 1368 OFFCURVE",
"371 1349 OFFCURVE",
"382 1310 CURVE SMOOTH",
"393 1271 OFFCURVE",
"399 1191 OFFCURVE",
"399 1071 CURVE SMOOTH",
"399 535 LINE",
"278 419 OFFCURVE",
"204 225 OFFCURVE",
"181 0 CURVE",
"312 0 LINE",
"327 130 OFFCURVE",
"356 238 OFFCURVE",
"399 323 CURVE",
"402 74 OFFCURVE",
"475 -26 OFFCURVE",
"640 -26 CURVE SMOOTH"
);
},
{
closed = 1;
nodes = (
"605 94 OFFCURVE",
"578 115 OFFCURVE",
"563 156 CURVE SMOOTH",
"547 197 OFFCURVE",
"539 269 OFFCURVE",
"539 371 CURVE SMOOTH",
"539 488 LINE",
"576 511 OFFCURVE",
"616 522 OFFCURVE",
"659 522 CURVE SMOOTH",
"689 522 OFFCURVE",
"717 517 OFFCURVE",
"743 507 CURVE",
"743 371 LINE SMOOTH",
"743 271 OFFCURVE",
"736 200 OFFCURVE",
"721 158 CURVE SMOOTH",
"706 115 OFFCURVE",
"679 94 OFFCURVE",
"642 94 CURVE SMOOTH"
);
}
);
width = 1282;
}
);
note = uniA220;
unicode = A220;
},
{
glyphname = "gguop-yi";
lastChange = "2016-11-10 14:40:56 +0000";
layers = (
{
layerId = "7EC89B61-8520-4E3C-9660-9B6BD7352386";
paths = (
{
closed = 1;
nodes = (
"668 385 LINE",
"1043 385 LINE",
"1043 495 LINE",
"668 495 LINE",
"668 640 LINE",
"1013 640 LINE",
"1013 750 LINE",
"668 750 LINE",
"668 832 LINE",
"919 849 OFFCURVE",
"1072 971 OFFCURVE",
"1072 1159 CURVE SMOOTH",
"1072 1362 OFFCURVE",
"894 1488 OFFCURVE",
"597 1488 CURVE SMOOTH",
"497 1488 OFFCURVE",
"411 1475 OFFCURVE",
"340 1448 CURVE SMOOTH",
"197 1394 OFFCURVE",
"120 1290 OFFCURVE",
"120 1159 CURVE SMOOTH",
"120 972 OFFCURVE",
"276 849 OFFCURVE",
"528 832 CURVE",
"528 750 LINE",
"183 750 LINE",
"183 640 LINE",
"528 640 LINE",
"528 495 LINE",
"153 495 LINE",
"153 385 LINE",
"528 385 LINE",
"528 172 LINE",
"282 284 LINE",
"221 172 LINE",
"668 -26 LINE"
);
},
{
closed = 1;
nodes = (
"377 941 OFFCURVE",
"250 1019 OFFCURVE",
"250 1159 CURVE SMOOTH",
"250 1298 OFFCURVE",
"376 1378 OFFCURVE",
"597 1378 CURVE SMOOTH",
"817 1378 OFFCURVE",
"942 1299 OFFCURVE",
"942 1159 CURVE SMOOTH",
"942 1018 OFFCURVE",
"814 941 OFFCURVE",
"597 941 CURVE SMOOTH"
);
},
{
closed = 1;
nodes = (
"663 1076 LINE",
"663 1253 LINE",
"533 1253 LINE",
"533 1076 LINE"
);
}
);
width = 1192;
}
);
note = uniA221;
unicode = A221;
},
{
glyphname = "gguot-yi";
lastChange = "2016-11-10 14:40:56 +0000";
layers = (
{
layerId = "7EC89B61-8520-4E3C-9660-9B6BD7352386";
paths = (
{
closed = 1;
nodes = (
"256 1 LINE",
"299 264 OFFCURVE",
"399 382 OFFCURVE",
"570 382 CURVE SMOOTH",
"737 382 OFFCURVE",
"835 257 OFFCURVE",
"879 1 CURVE",
"1021 1 LINE",
"972 270 OFFCURVE",
"864 431 OFFCURVE",
"698 483 CURVE",
"698 1462 LINE",
"558 1462 LINE",
"558 609 LINE",
"141 791 LINE",
"100 668 LINE",
"516 499 LINE",
"304 479 OFFCURVE",
"169 324 OFFCURVE",
"117 1 CURVE"
);
},
{
closed = 1;
nodes = (
"336 850 LINE",
"336 1348 LINE",
"206 1348 LINE",
"206 850 LINE"
);
}
);
width = 1121;
}
);
note = uniA21E;
unicode = A21E;
},
{
glyphname = "ggup-yi";
lastChange = "2016-11-10 14:40:56 +0000";
layers = (
{
layerId = "7EC89B61-8520-4E3C-9660-9B6BD7352386";
paths = (
{
closed = 1;
nodes = (
"602 0 LINE",
"602 434 LINE",
"942 434 LINE",
"942 544 LINE",
"602 544 LINE",
"602 864 LINE",
"462 864 LINE",
"462 544 LINE",
"122 544 LINE",
"122 434 LINE",
"462 434 LINE",
"462 0 LINE"
);
},
{
closed = 1;
nodes = (
"964 1482 LINE",
"508 1186 LINE",
"139 1422 LINE",
"80 1328 LINE",
"403 1118 LINE",
"80 908 LINE",
"139 814 LINE",
"508 1050 LINE",
"964 754 LINE"
);
},
{
closed = 1;
nodes = (
"614 1118 LINE",
"834 1259 LINE",
"834 977 LINE"
);
}
);
width = 1084;
}
);
note = uniA22D;
unicode = A22D;
},
{
glyphname = "ggur-yi";
lastChange = "2016-11-10 14:40:56 +0000";
layers = (
{
layerId = "7EC89B61-8520-4E3C-9660-9B6BD7352386";
paths = (
{
closed = 1;
nodes = (
"839 850 OFFCURVE",
"1012 977 OFFCURVE",
"1012 1169 CURVE SMOOTH",
"1012 1231 OFFCURVE",
"994 1286 OFFCURVE",
"958 1335 CURVE SMOOTH",
"886 1432 OFFCURVE",
"747 1488 OFFCURVE",
"567 1488 CURVE SMOOTH",
"477 1488 OFFCURVE",
"398 1475 OFFCURVE",
"331 1449 CURVE SMOOTH",
"195 1396 OFFCURVE",
"120 1293 OFFCURVE",
"120 1169 CURVE SMOOTH",
"120 981 OFFCURVE",
"300 850 OFFCURVE",
"567 850 CURVE SMOOTH"
);
},
{
closed = 1;
nodes = (
"839 -26 OFFCURVE",
"1012 101 OFFCURVE",
"1012 293 CURVE SMOOTH",
"1012 355 OFFCURVE",
"994 410 OFFCURVE",
"958 459 CURVE SMOOTH",
"886 556 OFFCURVE",
"747 612 OFFCURVE",
"567 612 CURVE SMOOTH",
"477 612 OFFCURVE",
"398 599 OFFCURVE",
"331 573 CURVE SMOOTH",
"195 520 OFFCURVE",
"120 417 OFFCURVE",
"120 293 CURVE SMOOTH",
"120 105 OFFCURVE",
"300 -26 OFFCURVE",
"567 -26 CURVE SMOOTH"
);
},
{
closed = 1;
nodes = (
"371 85 OFFCURVE",
"250 165 OFFCURVE",
"250 293 CURVE SMOOTH",
"250 421 OFFCURVE",
"371 502 OFFCURVE",
"567 502 CURVE SMOOTH",
"762 502 OFFCURVE",
"882 424 OFFCURVE",
"882 293 CURVE SMOOTH",
"882 168 OFFCURVE",
"758 85 OFFCURVE",
"567 85 CURVE SMOOTH"
);
},
{
closed = 1;
nodes = (
"371 961 OFFCURVE",
"250 1041 OFFCURVE",
"250 1169 CURVE SMOOTH",
"250 1297 OFFCURVE",
"371 1378 OFFCURVE",
"567 1378 CURVE SMOOTH",
"762 1378 OFFCURVE",
"882 1300 OFFCURVE",
"882 1169 CURVE SMOOTH",
"882 1044 OFFCURVE",
"758 961 OFFCURVE",
"567 961 CURVE SMOOTH"
);
}
);
width = 1132;
}
);
note = uniA22F;
unicode = A22F;
},
{
glyphname = "ggut-yi";
lastChange = "2016-11-10 14:40:56 +0000";
layers = (
{
layerId = "7EC89B61-8520-4E3C-9660-9B6BD7352386";
paths = (
{
closed = 1;
nodes = (
"776 0 LINE",
"776 1102 LINE",
"1114 955 LINE",
"1114 1462 LINE",
"984 1462 LINE",
"984 1145 LINE",
"636 1293 LINE",
"636 789 LINE",
"600 784 OFFCURVE",
"569 782 OFFCURVE",
"544 782 CURVE",
"553 830 OFFCURVE",
"558 876 OFFCURVE",
"558 919 CURVE SMOOTH",
"558 1096 OFFCURVE",
"466 1208 OFFCURVE",
"318 1208 CURVE SMOOTH",
"181 1208 OFFCURVE",
"88 1109 OFFCURVE",
"88 980 CURVE SMOOTH",
"88 840 OFFCURVE",
"204 729 OFFCURVE",
"389 688 CURVE",
"334 533 OFFCURVE",
"231 400 OFFCURVE",
"80 290 CURVE",
"161 207 LINE",
"336 350 OFFCURVE",
"454 505 OFFCURVE",
"513 672 CURVE",
"535 672 LINE SMOOTH",
"572 672 OFFCURVE",
"605 674 OFFCURVE",
"636 679 CURVE",
"636 0 LINE"
);
},
{
closed = 1;
nodes = (
"284 827 OFFCURVE",
"213 895 OFFCURVE",
"213 980 CURVE SMOOTH",
"213 1051 OFFCURVE",
"253 1097 OFFCURVE",
"316 1097 CURVE SMOOTH",
"387 1097 OFFCURVE",
"428 1030 OFFCURVE",
"428 909 CURVE SMOOTH",
"428 872 OFFCURVE",
"424 834 OFFCURVE",
"417 795 CURVE"
);
}
);
width = 1234;
}
);
note = uniA22A;
unicode = A22A;
},
{
glyphname = "gi-yi";
lastChange = "2016-11-10 14:40:56 +0000";
layers = (
{
layerId = "7EC89B61-8520-4E3C-9660-9B6BD7352386";
paths = (
{
closed = 1;
nodes = (
"297 0 LINE",
"297 327 LINE",
"435 275 LINE SMOOTH",
"602 207 OFFCURVE",
"673 187 OFFCURVE",
"741 187 CURVE SMOOTH",
"816 187 OFFCURVE",
"872 198 OFFCURVE",
"909 219 CURVE SMOOTH",
"984 262 OFFCURVE",
"1013 349 OFFCURVE",
"1013 541 CURVE SMOOTH",
"1013 1072 LINE SMOOTH",
"1013 1351 OFFCURVE",
"891 1488 OFFCURVE",
"638 1488 CURVE SMOOTH",
"459 1488 OFFCURVE",
"264 1404 OFFCURVE",
"100 1259 CURVE",
"170 1168 LINE",
"311 1292 OFFCURVE",
"481 1368 OFFCURVE",
"638 1368 CURVE SMOOTH",
"809 1368 OFFCURVE",
"873 1267 OFFCURVE",
"873 1058 CURVE SMOOTH",
"873 604 LINE SMOOTH",
"873 489 OFFCURVE",
"870 416 OFFCURVE",
"865 385 CURVE SMOOTH",
"854 323 OFFCURVE",
"834 307 OFFCURVE",
"741 307 CURVE SMOOTH",
"665 307 OFFCURVE",
"481 378 OFFCURVE",
"190 520 CURVE",
"157 520 LINE",
"157 0 LINE"
);
},
{
closed = 1;
nodes = (
"509 704 LINE",
"509 1048 LINE",
"379 1048 LINE",
"379 704 LINE"
);
}
);
width = 1193;
}
);
note = uniA1DC;
unicode = A1DC;
},
{
glyphname = "gie-yi";
lastChange = "2016-11-10 14:40:56 +0000";
layers = (
{
layerId = "7EC89B61-8520-4E3C-9660-9B6BD7352386";
paths = (
{
closed = 1;
nodes = (
"602 -16 OFFCURVE",
"683 70 OFFCURVE",
"683 294 CURVE SMOOTH",
"683 793 LINE",
"947 821 OFFCURVE",
"1086 1016 OFFCURVE",
"1106 1420 CURVE",
"965 1420 LINE",
"949 1056 OFFCURVE",
"844 910 OFFCURVE",
"613 910 CURVE SMOOTH",
"370 910 OFFCURVE",
"268 1055 OFFCURVE",
"260 1420 CURVE",
"120 1420 LINE",
"135 1005 OFFCURVE",
"267 821 OFFCURVE",
"543 793 CURVE",
"543 304 LINE SMOOTH",
"543 173 OFFCURVE",
"512 104 OFFCURVE",
"423 104 CURVE SMOOTH",
"352 104 OFFCURVE",
"284 164 OFFCURVE",
"256 257 CURVE",
"137 204 LINE",
"184 69 OFFCURVE",
"291 -16 OFFCURVE",
"415 -16 CURVE SMOOTH"
);
},
{
closed = 1;
nodes = (
"764 1074 OFFCURVE",
"859 1181 OFFCURVE",
"859 1365 CURVE SMOOTH",
"859 1462 LINE",
"739 1462 LINE",
"739 1368 LINE SMOOTH",
"739 1253 OFFCURVE",
"693 1184 OFFCURVE",
"617 1184 CURVE SMOOTH",
"533 1184 OFFCURVE",
"489 1254 OFFCURVE",
"489 1377 CURVE SMOOTH",
"489 1462 LINE",
"369 1462 LINE",
"369 1365 LINE SMOOTH",
"369 1186 OFFCURVE",
"460 1074 OFFCURVE",
"611 1074 CURVE SMOOTH"
);
}
);
width = 1226;
}
);
note = uniA1E0;
unicode = A1E0;
},
{
glyphname = "giep-yi";
lastChange = "2016-11-10 14:40:56 +0000";
layers = (
{
layerId = "7EC89B61-8520-4E3C-9660-9B6BD7352386";
paths = (
{
closed = 1;
nodes = (
"602 241 LINE",
"602 794 LINE",
"940 794 LINE",
"940 904 LINE",
"602 904 LINE",
"602 1152 LINE",
"940 1005 LINE",
"940 1462 LINE",
"810 1462 LINE",
"810 1195 LINE",
"462 1343 LINE",
"462 904 LINE",
"142 904 LINE",
"142 794 LINE",
"462 794 LINE",
"462 241 LINE"
);
},
{
closed = 1;
nodes = (
"782 -26 OFFCURVE",
"928 128 OFFCURVE",
"984 445 CURVE",
"842 445 LINE",
"801 205 OFFCURVE",
"705 94 OFFCURVE",
"533 94 CURVE SMOOTH",
"358 94 OFFCURVE",
"260 194 OFFCURVE",
"219 445 CURVE",
"80 445 LINE",
"132 118 OFFCURVE",
"281 -26 OFFCURVE",
"533 -26 CURVE SMOOTH"
);
},
{
closed = 1;
nodes = (
"394 440 LINE",
"394 698 LINE",
"274 698 LINE",
"274 440 LINE"
);
},
{
closed = 1;
nodes = (
"790 440 LINE",
"790 698 LINE",
"670 698 LINE",
"670 440 LINE"
);
}
);
width = 1064;
}
);
note = uniA1E1;
unicode = A1E1;
},
{
glyphname = "giet-yi";
lastChange = "2016-11-10 14:40:56 +0000";
layers = (
{
layerId = "7EC89B61-8520-4E3C-9660-9B6BD7352386";
paths = (
{
closed = 1;
nodes = (
"782 -26 OFFCURVE",
"928 128 OFFCURVE",
"984 445 CURVE",
"842 445 LINE",
"807 237 OFFCURVE",
"730 128 OFFCURVE",
"602 101 CURVE",
"602 684 LINE",
"922 684 LINE",
"922 794 LINE",
"602 794 LINE",
"602 1361 LINE",
"730 1333 OFFCURVE",
"807 1225 OFFCURVE",
"842 1017 CURVE",
"984 1017 LINE",
"928 1334 OFFCURVE",
"782 1488 OFFCURVE",
"533 1488 CURVE SMOOTH",
"280 1488 OFFCURVE",
"132 1344 OFFCURVE",
"80 1017 CURVE",
"219 1017 LINE",
"254 1236 OFFCURVE",
"331 1336 OFFCURVE",
"462 1361 CURVE",
"462 794 LINE",
"142 794 LINE",
"142 684 LINE",
"462 684 LINE",
"462 100 LINE",
"331 127 OFFCURVE",
"254 226 OFFCURVE",
"219 445 CURVE",
"80 445 LINE",
"132 118 OFFCURVE",
"281 -26 OFFCURVE",
"533 -26 CURVE SMOOTH"
);
}
);
width = 1064;
}
);
note = uniA1DE;
unicode = A1DE;
},
{
glyphname = "gip-yi";
lastChange = "2016-11-10 14:40:56 +0000";
layers = (
{
layerId = "7EC89B61-8520-4E3C-9660-9B6BD7352386";
paths = (
{
closed = 1;
nodes = (
"602 241 LINE",
"602 764 LINE",
"940 764 LINE",
"940 874 LINE",
"602 874 LINE",
"602 1152 LINE",
"940 1005 LINE",
"940 1462 LINE",
"810 1462 LINE",
"810 1195 LINE",
"462 1343 LINE",
"462 874 LINE",
"142 874 LINE",
"142 764 LINE",
"462 764 LINE",
"462 241 LINE"
);
},
{
closed = 1;
nodes = (
"782 -26 OFFCURVE",
"928 128 OFFCURVE",
"984 445 CURVE",
"842 445 LINE",
"801 205 OFFCURVE",
"705 94 OFFCURVE",
"533 94 CURVE SMOOTH",
"358 94 OFFCURVE",
"260 194 OFFCURVE",
"219 445 CURVE",
"80 445 LINE",
"132 118 OFFCURVE",
"281 -26 OFFCURVE",
"533 -26 CURVE SMOOTH"
);
}
);
width = 1064;
}
);
note = uniA1DD;
unicode = A1DD;
},
{
glyphname = "git-yi";
lastChange = "2016-11-10 14:40:56 +0000";
layers = (
{
layerId = "7EC89B61-8520-4E3C-9660-9B6BD7352386";
paths = (
{
closed = 1;
nodes = (
"297 0 LINE",
"297 312 LINE",
"422 229 OFFCURVE",
"520 187 OFFCURVE",
"591 187 CURVE SMOOTH",
"726 187 OFFCURVE",
"793 267 OFFCURVE",
"793 446 CURVE SMOOTH",
"793 749 LINE",
"950 749 LINE",
"950 306 LINE",
"1080 306 LINE",
"1080 1276 LINE",
"950 1276 LINE",
"950 869 LINE",
"793 869 LINE",
"793 1118 LINE SMOOTH",
"793 1365 OFFCURVE",
"705 1488 OFFCURVE",
"493 1488 CURVE SMOOTH",
"361 1488 OFFCURVE",
"239 1426 OFFCURVE",
"100 1259 CURVE",
"178 1188 LINE",
"259 1299 OFFCURVE",
"372 1368 OFFCURVE",
"467 1368 CURVE SMOOTH",
"599 1368 OFFCURVE",
"653 1283 OFFCURVE",
"653 1111 CURVE SMOOTH",
"653 471 LINE SMOOTH",
"653 419 OFFCURVE",
"649 379 OFFCURVE",
"641 350 CURVE SMOOTH",
"632 321 OFFCURVE",
"616 307 OFFCURVE",
"591 307 CURVE SMOOTH",
"528 307 OFFCURVE",
"395 378 OFFCURVE",
"190 520 CURVE",
"157 520 LINE",
"157 0 LINE"
);
}
);
width = 1220;
}
);
note = uniA1DA;
unicode = A1DA;
},
{
glyphname = "go-yi";
lastChange = "2016-11-10 14:40:56 +0000";
layers = (
{
layerId = "7EC89B61-8520-4E3C-9660-9B6BD7352386";
paths = (
{
closed = 1;
nodes = (
"755 746 LINE",
"1061 1153 LINE",
"962 1232 LINE",
"755 953 LINE",
"755 1462 LINE",
"615 1462 LINE",
"615 202 LINE",
"215 406 LINE",
"154 294 LINE",
"755 -26 LINE"
);
},
{
closed = 1;
nodes = (
"507 857 LINE",
"225 1032 LINE",
"150 925 LINE",
"432 751 LINE"
);
},
{
closed = 1;
nodes = (
"527 1187 LINE",
"245 1362 LINE",
"170 1255 LINE",
"452 1081 LINE"
);
}
);
width = 1141;
}
);
note = uniA1EC;
unicode = A1EC;
},
{
glyphname = "gop-yi";
lastChange = "2016-11-10 14:40:56 +0000";
layers = (
{
layerId = "7EC89B61-8520-4E3C-9660-9B6BD7352386";
paths = (
{
closed = 1;
nodes = (
"1000 706 LINE",
"1000 816 LINE",
"80 816 LINE",
"80 706 LINE"
);
},
{
closed = 1;
nodes = (
"605 0 LINE",
"605 546 LINE",
"475 546 LINE",
"475 0 LINE"
);
},
{
closed = 1;
nodes = (
"345 976 LINE",
"345 1462 LINE",
"215 1462 LINE",
"215 976 LINE"
);
},
{
closed = 1;
nodes = (
"865 976 LINE",
"865 1462 LINE",
"735 1462 LINE",
"735 976 LINE"
);
}
);
width = 1080;
}
);
note = uniA1ED;
unicode = A1ED;
},
{
glyphname = "got-yi";
lastChange = "2016-11-10 14:40:56 +0000";
layers = (
{
layerId = "7EC89B61-8520-4E3C-9660-9B6BD7352386";
paths = (
{
closed = 1;
nodes = (
"545 -26 OFFCURVE",
"621 8 OFFCURVE",
"668 64 CURVE",
"719 4 OFFCURVE",
"789 -26 OFFCURVE",
"879 -26 CURVE SMOOTH",
"928 -26 OFFCURVE",
"973 -14 OFFCURVE",
"1014 10 CURVE SMOOTH",
"1096 58 OFFCURVE",
"1145 147 OFFCURVE",
"1145 274 CURVE SMOOTH",
"1145 886 LINE",
"1182 941 OFFCURVE",
"1200 1018 OFFCURVE",
"1200 1118 CURVE SMOOTH",
"1200 1462 LINE",
"1070 1462 LINE",
"1070 1195 LINE SMOOTH",
"1070 1086 OFFCURVE",
"1063 1013 OFFCURVE",
"1050 978 CURVE SMOOTH",
"1037 942 OFFCURVE",
"1014 924 OFFCURVE",
"981 924 CURVE SMOOTH",
"948 924 OFFCURVE",
"924 942 OFFCURVE",
"911 978 CURVE SMOOTH",
"897 1014 OFFCURVE",
"890 1086 OFFCURVE",
"890 1195 CURVE SMOOTH",
"890 1462 LINE",
"760 1462 LINE",
"760 1195 LINE SMOOTH",
"760 1086 OFFCURVE",
"753 1013 OFFCURVE",
"740 978 CURVE SMOOTH",
"727 942 OFFCURVE",
"704 924 OFFCURVE",
"671 924 CURVE SMOOTH",
"638 924 OFFCURVE",
"614 942 OFFCURVE",
"601 978 CURVE SMOOTH",
"587 1014 OFFCURVE",
"580 1086 OFFCURVE",
"580 1195 CURVE SMOOTH",
"580 1462 LINE",
"450 1462 LINE",
"450 1195 LINE SMOOTH",
"450 1086 OFFCURVE",
"443 1013 OFFCURVE",
"430 978 CURVE SMOOTH",
"417 942 OFFCURVE",
"394 924 OFFCURVE",
"361 924 CURVE SMOOTH",
"328 924 OFFCURVE",
"304 942 OFFCURVE",
"291 978 CURVE SMOOTH",
"277 1014 OFFCURVE",
"270 1086 OFFCURVE",
"270 1195 CURVE SMOOTH",
"270 1462 LINE",
"140 1462 LINE",
"140 1118 LINE SMOOTH",
"140 1000 OFFCURVE",
"158 917 OFFCURVE",
"195 869 CURVE",
"195 274 LINE SMOOTH",
"195 86 OFFCURVE",
"298 -26 OFFCURVE",
"469 -26 CURVE SMOOTH"
);
},
{
closed = 1;
nodes = (
"374 94 OFFCURVE",
"325 176 OFFCURVE",
"325 341 CURVE SMOOTH",
"325 805 LINE",
"336 804 LINE",
"349 804 LINE SMOOTH",
"410 804 OFFCURVE",
"463 830 OFFCURVE",
"508 882 CURVE",
"538 843 OFFCURVE",
"570 820 OFFCURVE",
"605 811 CURVE",
"605 341 LINE SMOOTH",
"605 166 OFFCURVE",
"560 94 OFFCURVE",
"471 94 CURVE SMOOTH"
);
},
{
closed = 1;
nodes = (
"525 448 LINE",
"525 706 LINE",
"405 706 LINE",
"405 448 LINE"
);
},
{
closed = 1;
nodes = (
"784 94 OFFCURVE",
"735 172 OFFCURVE",
"735 328 CURVE SMOOTH",
"735 813 LINE",
"763 822 OFFCURVE",
"792 843 OFFCURVE",
"821 878 CURVE",
"861 829 OFFCURVE",
"914 804 OFFCURVE",
"979 804 CURVE",
"1015 806 LINE",
"1015 341 LINE SMOOTH",
"1015 166 OFFCURVE",
"970 94 OFFCURVE",
"881 94 CURVE SMOOTH"
);
},
{
closed = 1;
nodes = (
"935 448 LINE",
"935 706 LINE",
"815 706 LINE",
"815 448 LINE"
);
}
);
width = 1340;
}
);
note = uniA1EA;
unicode = A1EA;
},
{
glyphname = "gu-yi";
lastChange = "2016-11-10 14:40:56 +0000";
layers = (
{
layerId = "7EC89B61-8520-4E3C-9660-9B6BD7352386";
paths = (
{
closed = 1;
nodes = (
"732 -26 OFFCURVE",
"819 -8 OFFCURVE",
"886 29 CURVE SMOOTH",
"1019 102 OFFCURVE",
"1076 235 OFFCURVE",
"1076 559 CURVE SMOOTH",
"1076 1462 LINE",
"936 1462 LINE",
"936 1159 LINE",
"320 1159 LINE",
"320 1462 LINE",
"180 1462 LINE",
"180 559 LINE SMOOTH",
"180 300 OFFCURVE",
"211 182 OFFCURVE",
"280 99 CURVE SMOOTH",
"348 16 OFFCURVE",
"461 -26 OFFCURVE",
"625 -26 CURVE SMOOTH"
);
},
{
closed = 1;
nodes = (
"477 94 OFFCURVE",
"400 141 OFFCURVE",
"361 221 CURVE SMOOTH",
"321 300 OFFCURVE",
"320 411 OFFCURVE",
"320 539 CURVE SMOOTH",
"320 1039 LINE",
"936 1039 LINE",
"936 539 LINE SMOOTH",
"936 420 OFFCURVE",
"931 337 OFFCURVE",
"920 289 CURVE SMOOTH",
"909 241 OFFCURVE",
"891 204 OFFCURVE",
"868 177 CURVE SMOOTH",
"821 123 OFFCURVE",
"745 94 OFFCURVE",
"630 94 CURVE SMOOTH"
);
}
);
width = 1256;
}
);
note = uniA1F4;
unicode = A1F4;
},
{
glyphname = "guo-yi";
lastChange = "2016-11-10 14:40:56 +0000";
layers = (
{
layerId = "7EC89B61-8520-4E3C-9660-9B6BD7352386";
paths = (
{
closed = 1;
nodes = (
"524 599 LINE",
"863 -16 LINE",
"908 -16 LINE",
"908 130 LINE",
"981 73 OFFCURVE",
"1077 40 OFFCURVE",
"1196 31 CURVE",
"1196 151 LINE",
"1009 166 OFFCURVE",
"908 250 OFFCURVE",
"908 377 CURVE SMOOTH",
"908 386 LINE SMOOTH",
"911 505 OFFCURVE",
"1012 588 OFFCURVE",
"1196 604 CURVE",
"1196 723 LINE",
"1076 713 OFFCURVE",
"980 680 OFFCURVE",
"908 623 CURVE",
"908 869 LINE",
"981 812 OFFCURVE",
"1077 779 OFFCURVE",
"1196 770 CURVE",
"1196 890 LINE",
"1009 905 OFFCURVE",
"908 989 OFFCURVE",
"908 1116 CURVE SMOOTH",
"908 1125 LINE SMOOTH",
"911 1244 OFFCURVE",
"1012 1327 OFFCURVE",
"1196 1343 CURVE",
"1196 1462 LINE",
"1076 1452 OFFCURVE",
"980 1419 OFFCURVE",
"908 1362 CURVE",
"908 1473 LINE",
"863 1473 LINE",
"524 857 LINE",
"193 1473 LINE",
"80 1407 LINE",
"453 728 LINE",
"80 50 LINE",
"193 -16 LINE"
);
},
{
closed = 1;
nodes = (
"594 728 LINE",
"768 1051 LINE",
"768 406 LINE"
);
}
);
width = 1316;
}
);
note = uniA1E8;
unicode = A1E8;
},
{
glyphname = "guop-yi";
lastChange = "2016-11-10 14:40:56 +0000";
layers = (
{
layerId = "7EC89B61-8520-4E3C-9660-9B6BD7352386";
paths = (
{
closed = 1;
nodes = (
"904 -26 OFFCURVE",
"1073 253 OFFCURVE",
"1073 733 CURVE SMOOTH",
"1073 1210 OFFCURVE",
"906 1488 OFFCURVE",
"607 1488 CURVE SMOOTH",
"311 1488 OFFCURVE",
"140 1208 OFFCURVE",
"140 741 CURVE SMOOTH",
"140 257 OFFCURVE",
"310 -26 OFFCURVE",
"607 -26 CURVE SMOOTH"
);
},
{
closed = 1;
nodes = (
"671 271 LINE",
"671 575 LINE",
"541 575 LINE",
"541 271 LINE"
);
},
{
closed = 1;
nodes = (
"393 94 OFFCURVE",
"280 314 OFFCURVE",
"280 741 CURVE SMOOTH",
"280 1140 OFFCURVE",
"400 1368 OFFCURVE",
"605 1368 CURVE SMOOTH",
"817 1368 OFFCURVE",
"933 1145 OFFCURVE",
"933 733 CURVE SMOOTH",
"933 320 OFFCURVE",
"816 94 OFFCURVE",
"605 94 CURVE SMOOTH"
);
},
{
closed = 1;
nodes = (
"868 687 LINE",
"868 807 LINE",
"345 807 LINE",
"345 687 LINE"
);
},
{
closed = 1;
nodes = (
"551 916 LINE",
"551 1180 LINE",
"421 1180 LINE",
"421 916 LINE"
);
},
{
closed = 1;
nodes = (
"791 916 LINE",
"791 1180 LINE",
"661 1180 LINE",
"661 916 LINE"
);
}
);
width = 1213;
}
);
note = uniA1E9;
unicode = A1E9;
},
{
glyphname = "guot-yi";
lastChange = "2016-11-10 14:40:56 +0000";
layers = (
{
layerId = "7EC89B61-8520-4E3C-9660-9B6BD7352386";
paths = (
{
closed = 1;
nodes = (
"524 599 LINE",
"863 -16 LINE",
"908 -16 LINE",
"908 438 LINE",
"973 375 OFFCURVE",
"1057 330 OFFCURVE",
"1160 302 CURVE",
"1160 428 LINE",
"1001 484 OFFCURVE",
"909 597 OFFCURVE",
"909 740 CURVE SMOOTH",
"909 889 OFFCURVE",
"1001 1006 OFFCURVE",
"1160 1061 CURVE",
"1160 1190 LINE",
"1055 1162 OFFCURVE",
"971 1117 OFFCURVE",
"908 1055 CURVE",
"908 1473 LINE",
"863 1473 LINE",
"524 857 LINE",
"193 1473 LINE",
"80 1407 LINE",
"453 728 LINE",
"80 50 LINE",
"193 -16 LINE"
);
},
{
closed = 1;
nodes = (
"594 728 LINE",
"768 1051 LINE",
"768 406 LINE"
);
}
);
width = 1280;
}
);
note = uniA1E6;
unicode = A1E6;
},
{
glyphname = "gup-yi";
lastChange = "2016-11-10 14:40:56 +0000";
layers = (
{
layerId = "7EC89B61-8520-4E3C-9660-9B6BD7352386";
paths = (
{
closed = 1;
nodes = (
"904 -26 OFFCURVE",
"1073 253 OFFCURVE",
"1073 733 CURVE SMOOTH",
"1073 1210 OFFCURVE",
"906 1488 OFFCURVE",
"607 1488 CURVE SMOOTH",
"311 1488 OFFCURVE",
"140 1208 OFFCURVE",
"140 741 CURVE SMOOTH",
"140 257 OFFCURVE",
"310 -26 OFFCURVE",
"607 -26 CURVE SMOOTH"
);
},
{
closed = 1;
nodes = (
"533 447 OFFCURVE",
"481 554 OFFCURVE",
"481 690 CURVE SMOOTH",
"481 771 LINE",
"731 771 LINE",
"731 681 LINE SMOOTH",
"731 553 OFFCURVE",
"678 447 OFFCURVE",
"609 447 CURVE SMOOTH"
);
},
{
closed = 1;
nodes = (
"748 337 OFFCURVE",
"851 479 OFFCURVE",
"851 678 CURVE SMOOTH",
"851 1065 LINE",
"731 1065 LINE",
"731 891 LINE",
"481 891 LINE",
"481 1065 LINE",
"361 1065 LINE",
"361 678 LINE SMOOTH",
"361 485 OFFCURVE",
"460 337 OFFCURVE",
"603 337 CURVE SMOOTH"
);
},
{
closed = 1;
nodes = (
"393 94 OFFCURVE",
"280 314 OFFCURVE",
"280 741 CURVE SMOOTH",
"280 1140 OFFCURVE",
"400 1368 OFFCURVE",
"605 1368 CURVE SMOOTH",
"817 1368 OFFCURVE",
"933 1145 OFFCURVE",
"933 733 CURVE SMOOTH",
"933 320 OFFCURVE",
"816 94 OFFCURVE",
"605 94 CURVE SMOOTH"
);
}
);
width = 1213;
}
);
note = uniA1F5;
unicode = A1F5;
},
{
glyphname = "gur-yi";
lastChange = "2016-11-10 14:40:56 +0000";
layers = (
{
layerId = "7EC89B61-8520-4E3C-9660-9B6BD7352386";
paths = (
{
closed = 1;
nodes = (
"710 -26 OFFCURVE",
"813 16 OFFCURVE",
"881 99 CURVE",
"961 -25 LINE",
"1070 45 LINE",
"948 236 LINE",
"959 279 OFFCURVE",
"964 324 OFFCURVE",
"964 372 CURVE SMOOTH",
"964 1462 LINE",
"824 1462 LINE",
"824 1145 LINE",
"320 1145 LINE",
"320 1462 LINE",
"180 1462 LINE",
"180 372 LINE SMOOTH",
"180 320 OFFCURVE",
"185 276 OFFCURVE",
"194 240 CURVE",
"70 45 LINE",
"179 -25 LINE",
"260 101 LINE",
"326 16 OFFCURVE",
"430 -26 OFFCURVE",
"571 -26 CURVE SMOOTH"
);
},
{
closed = 1;
nodes = (
"457 94 OFFCURVE",
"380 140 OFFCURVE",
"343 231 CURVE",
"508 489 LINE",
"399 559 LINE",
"320 436 LINE",
"320 1025 LINE",
"824 1025 LINE",
"824 429 LINE",
"741 559 LINE",
"632 489 LINE",
"799 228 LINE",
"762 139 OFFCURVE",
"686 94 OFFCURVE",
"573 94 CURVE SMOOTH"
);
}
);
width = 1144;
}
);
note = uniA1F7;
unicode = A1F7;
},
{
glyphname = "gut-yi";
lastChange = "2016-11-10 14:40:56 +0000";
layers = (
{
layerId = "7EC89B61-8520-4E3C-9660-9B6BD7352386";
paths = (
{
closed = 1;
nodes = (
"1001 -26 OFFCURVE",
"1142 202 OFFCURVE",
"1142 605 CURVE SMOOTH",
"1142 857 LINE SMOOTH",
"1142 1260 OFFCURVE",
"1001 1488 OFFCURVE",
"750 1488 CURVE SMOOTH",
"563 1488 OFFCURVE",
"442 1370 OFFCURVE",
"386 1135 CURVE",
"327 1227 OFFCURVE",
"246 1304 OFFCURVE",
"143 1365 CURVE",
"80 1257 LINE",
"268 1140 OFFCURVE",
"358 975 OFFCURVE",
"358 743 CURVE SMOOTH",
"358 724 LINE SMOOTH",
"353 500 OFFCURVE",
"264 338 OFFCURVE",
"80 229 CURVE",
"143 121 LINE",
"243 178 OFFCURVE",
"323 252 OFFCURVE",
"382 343 CURVE",
"434 103 OFFCURVE",
"561 -26 OFFCURVE",
"750 -26 CURVE SMOOTH"
);
},
{
closed = 1;
nodes = (
"587 94 OFFCURVE",
"498 268 OFFCURVE",
"498 595 CURVE SMOOTH",
"498 674 LINE",
"1002 674 LINE",
"1002 595 LINE SMOOTH",
"1002 271 OFFCURVE",
"914 94 OFFCURVE",
"750 94 CURVE SMOOTH"
);
},
{
closed = 1;
nodes = (
"815 352 LINE",
"815 566 LINE",
"685 566 LINE",
"685 352 LINE"
);
},
{
closed = 1;
nodes = (
"815 902 LINE",
"815 1116 LINE",
"685 1116 LINE",
"685 902 LINE"
);
},
{
closed = 1;
nodes = (
"498 867 LINE SMOOTH",
"498 1191 OFFCURVE",
"586 1368 OFFCURVE",
"750 1368 CURVE SMOOTH",
"913 1368 OFFCURVE",
"1002 1194 OFFCURVE",
"1002 867 CURVE SMOOTH",
"1002 794 LINE",
"498 794 LINE"
);
}
);
width = 1282;
}
);
note = uniA1F2;
unicode = A1F2;
},
{
glyphname = "ha-yi";
lastChange = "2016-11-10 14:40:56 +0000";
layers = (
{
layerId = "7EC89B61-8520-4E3C-9660-9B6BD7352386";
paths = (
{
closed = 1;
nodes = (
"1141 74 LINE",
"1062 305 OFFCURVE",
"910 436 OFFCURVE",
"719 444 CURVE",
"719 653 LINE",
"922 676 OFFCURVE",
"1040 823 OFFCURVE",
"1040 1059 CURVE SMOOTH",
"1040 1327 OFFCURVE",
"895 1488 OFFCURVE",
"655 1488 CURVE SMOOTH",
"573 1488 OFFCURVE",
"503 1470 OFFCURVE",
"445 1434 CURVE SMOOTH",
"329 1362 OFFCURVE",
"268 1228 OFFCURVE",
"268 1059 CURVE SMOOTH",
"268 820 OFFCURVE",
"388 676 OFFCURVE",
"589 653 CURVE",
"589 535 LINE",
"120 712 LINE",
"120 190 LINE",
"260 190 LINE",
"260 532 LINE",
"552 419 LINE",
"417 368 OFFCURVE",
"318 252 OFFCURVE",
"255 73 CURVE",
"379 42 LINE",
"443 223 OFFCURVE",
"559 325 OFFCURVE",
"696 325 CURVE SMOOTH",
"845 325 OFFCURVE",
"957 219 OFFCURVE",
"1018 40 CURVE"
);
},
{
closed = 1;
nodes = (
"762 0 LINE",
"762 247 LINE",
"642 247 LINE",
"642 0 LINE"
);
},
{
closed = 1;
nodes = (
"482 787 OFFCURVE",
"412 867 OFFCURVE",
"400 1010 CURVE",
"589 1010 LINE",
"589 767 LINE"
);
},
{
closed = 1;
nodes = (
"719 1010 LINE",
"908 1010 LINE",
"895 867 OFFCURVE",
"827 787 OFFCURVE",
"719 767 CURVE"
);
},
{
closed = 1;
nodes = (
"418 1267 OFFCURVE",
"480 1348 OFFCURVE",
"589 1371 CURVE",
"589 1130 LINE",
"402 1130 LINE"
);
},
{
closed = 1;
nodes = (
"719 1372 LINE",
"827 1350 OFFCURVE",
"889 1269 OFFCURVE",
"906 1130 CURVE",
"719 1130 LINE"
);
}
);
width = 1261;
}
);
note = uniA273;
unicode = A273;
},
{
glyphname = "hap-yi";
lastChange = "2016-11-10 14:40:56 +0000";
layers = (
{
layerId = "7EC89B61-8520-4E3C-9660-9B6BD7352386";
paths = (
{
closed = 1;
nodes = (
"1141 74 LINE",
"1062 305 OFFCURVE",
"910 436 OFFCURVE",
"719 444 CURVE",
"719 653 LINE",
"922 676 OFFCURVE",
"1040 823 OFFCURVE",
"1040 1059 CURVE SMOOTH",
"1040 1327 OFFCURVE",
"895 1488 OFFCURVE",
"655 1488 CURVE SMOOTH",
"573 1488 OFFCURVE",
"503 1470 OFFCURVE",
"445 1434 CURVE SMOOTH",
"329 1362 OFFCURVE",
"268 1228 OFFCURVE",
"268 1059 CURVE SMOOTH",
"268 820 OFFCURVE",
"388 676 OFFCURVE",
"589 653 CURVE",
"589 535 LINE",
"120 712 LINE",
"120 190 LINE",
"260 190 LINE",
"260 532 LINE",
"552 419 LINE",
"417 368 OFFCURVE",
"318 252 OFFCURVE",
"255 73 CURVE",
"379 42 LINE",
"443 223 OFFCURVE",
"559 325 OFFCURVE",
"696 325 CURVE SMOOTH",
"845 325 OFFCURVE",
"957 219 OFFCURVE",
"1018 40 CURVE"
);
},
{
closed = 1;
nodes = (
"762 0 LINE",
"762 247 LINE",
"642 247 LINE",
"642 0 LINE"
);
},
{
closed = 1;
nodes = (
"490 761 OFFCURVE",
"398 862 OFFCURVE",
"398 1059 CURVE SMOOTH",
"398 1272 OFFCURVE",
"492 1378 OFFCURVE",
"655 1378 CURVE SMOOTH",
"825 1378 OFFCURVE",
"910 1272 OFFCURVE",
"910 1059 CURVE SMOOTH",
"910 863 OFFCURVE",
"819 761 OFFCURVE",
"655 761 CURVE SMOOTH"
);
}
);
width = 1261;
}
);
note = uniA274;
unicode = A274;
},
{
glyphname = "hat-yi";
lastChange = "2016-11-10 14:40:56 +0000";
layers = (
{
layerId = "7EC89B61-8520-4E3C-9660-9B6BD7352386";
paths = (
{
closed = 1;
nodes = (
"640 0 LINE",
"640 575 LINE",
"808 536 OFFCURVE",
"908 334 OFFCURVE",
"925 30 CURVE",
"1062 60 LINE",
"1030 427 OFFCURVE",
"878 662 OFFCURVE",
"645 697 CURVE",
"645 1141 LINE",
"745 1102 LINE",
"745 787 LINE",
"875 787 LINE",
"875 1051 LINE",
"1117 957 LINE",
"1117 1462 LINE",
"977 1462 LINE",
"977 1138 LINE",
"875 1179 LINE",
"875 1462 LINE",
"745 1462 LINE",
"745 1232 LINE",
"505 1330 LINE",
"505 695 LINE",
"276 651 OFFCURVE",
"128 412 OFFCURVE",
"100 60 CURVE",
"237 30 LINE",
"254 334 OFFCURVE",
"353 528 OFFCURVE",
"510 572 CURVE",
"510 0 LINE"
);
}
);
width = 1237;
}
);
note = uniA271;
unicode = A271;
},
{
glyphname = "he-yi";
lastChange = "2016-11-10 14:40:56 +0000";
layers = (
{
layerId = "7EC89B61-8520-4E3C-9660-9B6BD7352386";
paths = (
{
closed = 1;
nodes = (
"460 0 LINE",
"460 562 LINE",
"501 536 OFFCURVE",
"531 487 OFFCURVE",
"551 416 CURVE SMOOTH",
"570 345 OFFCURVE",
"580 239 OFFCURVE",
"580 100 CURVE",
"710 100 LINE",
"710 460 OFFCURVE",
"628 647 OFFCURVE",
"465 698 CURVE",
"465 1265 LINE",
"785 1087 LINE",
"785 0 LINE",
"925 0 LINE",
"925 1237 LINE",
"1068 1136 LINE",
"1126 1240 LINE",
"785 1488 LINE",
"785 1232 LINE",
"325 1492 LINE",
"325 698 LINE",
"164 649 OFFCURVE",
"80 459 OFFCURVE",
"80 100 CURVE",
"210 100 LINE",
"211 174 LINE SMOOTH",
"213 384 OFFCURVE",
"253 513 OFFCURVE",
"330 562 CURVE",
"330 0 LINE"
);
}
);
width = 1206;
}
);
note = uniA27E;
unicode = A27E;
},
{
glyphname = "hep-yi";
lastChange = "2016-11-10 14:40:56 +0000";
layers = (
{
layerId = "7EC89B61-8520-4E3C-9660-9B6BD7352386";
paths = (
{
closed = 1;
nodes = (
"1073 70 LINE",
"1023 247 OFFCURVE",
"940 368 OFFCURVE",
"823 433 CURVE",
"972 509 OFFCURVE",
"1064 678 OFFCURVE",
"1064 941 CURVE SMOOTH",
"1064 1282 OFFCURVE",
"898 1488 OFFCURVE",
"627 1488 CURVE SMOOTH",
"415 1488 OFFCURVE",
"263 1360 OFFCURVE",
"210 1137 CURVE",
"100 1137 LINE",
"100 1027 LINE",
"193 1027 LINE",
"190 944 LINE",
"190 905 OFFCURVE",
"192 868 OFFCURVE",
"196 834 CURVE",
"100 834 LINE",
"100 724 LINE",
"216 724 LINE",
"254 583 OFFCURVE",
"326 486 OFFCURVE",
"433 432 CURVE",
"316 367 OFFCURVE",
"232 247 OFFCURVE",
"181 73 CURVE",
"294 34 LINE",
"355 242 OFFCURVE",
"474 362 OFFCURVE",
"625 362 CURVE SMOOTH",
"781 362 OFFCURVE",
"902 244 OFFCURVE",
"961 32 CURVE"
);
},
{
closed = 1;
nodes = (
"697 0 LINE",
"697 251 LINE",
"557 251 LINE",
"557 0 LINE"
);
},
{
closed = 1;
nodes = (
"492 509 OFFCURVE",
"401 585 OFFCURVE",
"358 724 CURVE",
"665 724 LINE",
"665 834 LINE",
"336 834 LINE",
"332 867 OFFCURVE",
"330 903 OFFCURVE",
"330 944 CURVE",
"333 1027 LINE",
"665 1027 LINE",
"665 1137 LINE",
"352 1137 LINE",
"395 1292 OFFCURVE",
"493 1368 OFFCURVE",
"625 1368 CURVE SMOOTH",
"820 1368 OFFCURVE",
"924 1215 OFFCURVE",
"924 938 CURVE SMOOTH",
"924 659 OFFCURVE",
"820 509 OFFCURVE",
"625 509 CURVE SMOOTH"
);
}
);
width = 1254;
}
);
note = uniA27F;
unicode = A27F;
},
{
glyphname = "hie-yi";
lastChange = "2016-11-10 14:40:56 +0000";
layers = (
{
layerId = "7EC89B61-8520-4E3C-9660-9B6BD7352386";
paths = (
{
closed = 1;
nodes = (
"688 1277 LINE",
"934 1148 LINE",
"995 1260 LINE",
"548 1488 LINE",
"548 978 LINE",
"399 978 LINE SMOOTH",
"276 978 OFFCURVE",
"220 1044 OFFCURVE",
"220 1139 CURVE SMOOTH",
"220 1246 OFFCURVE",
"259 1288 OFFCURVE",
"368 1325 CURVE",
"313 1436 LINE",
"160 1376 OFFCURVE",
"80 1285 OFFCURVE",
"80 1149 CURVE SMOOTH",
"80 1053 OFFCURVE",
"135 972 OFFCURVE",
"230 923 CURVE",
"133 870 OFFCURVE",
"80 790 OFFCURVE",
"80 697 CURVE SMOOTH",
"80 562 OFFCURVE",
"158 470 OFFCURVE",
"313 410 CURVE",
"368 521 LINE",
"332 532 OFFCURVE",
"303 546 OFFCURVE",
"282 562 CURVE SMOOTH",
"238 594 OFFCURVE",
"220 628 OFFCURVE",
"220 707 CURVE SMOOTH",
"220 802 OFFCURVE",
"276 868 OFFCURVE",
"399 868 CURVE SMOOTH",
"548 868 LINE",
"548 202 LINE",
"302 334 LINE",
"241 222 LINE",
"688 -26 LINE"
);
}
);
width = 1075;
}
);
note = uniA270;
unicode = A270;
},
{
glyphname = "hit-yi";
lastChange = "2016-11-10 14:40:56 +0000";
layers = (
{
layerId = "7EC89B61-8520-4E3C-9660-9B6BD7352386";
paths = (
{
closed = 1;
nodes = (
"688 0 LINE",
"688 1277 LINE",
"934 1148 LINE",
"995 1260 LINE",
"548 1488 LINE",
"548 858 LINE",
"399 858 LINE SMOOTH",
"276 858 OFFCURVE",
"220 924 OFFCURVE",
"220 1019 CURVE SMOOTH",
"220 1126 OFFCURVE",
"259 1168 OFFCURVE",
"368 1205 CURVE",
"313 1316 LINE",
"160 1256 OFFCURVE",
"80 1165 OFFCURVE",
"80 1029 CURVE SMOOTH",
"80 933 OFFCURVE",
"135 852 OFFCURVE",
"230 803 CURVE",
"133 750 OFFCURVE",
"80 670 OFFCURVE",
"80 577 CURVE SMOOTH",
"80 442 OFFCURVE",
"158 350 OFFCURVE",
"313 290 CURVE",
"368 401 LINE",
"332 412 OFFCURVE",
"303 426 OFFCURVE",
"282 442 CURVE SMOOTH",
"238 474 OFFCURVE",
"220 508 OFFCURVE",
"220 587 CURVE SMOOTH",
"220 682 OFFCURVE",
"276 748 OFFCURVE",
"399 748 CURVE SMOOTH",
"548 748 LINE",
"548 0 LINE"
);
}
);
width = 1075;
}
);
note = uniA26E;
unicode = A26E;
},
{
glyphname = "hla-yi";
lastChange = "2016-11-10 14:40:56 +0000";
layers = (
{
layerId = "7EC89B61-8520-4E3C-9660-9B6BD7352386";
paths = (
{
closed = 1;
nodes = (
"834 0 LINE",
"834 1462 LINE",
"694 1462 LINE",
"694 1243 LINE",
"585 1240 OFFCURVE",
"486 1220 OFFCURVE",
"398 1183 CURVE SMOOTH",
"222 1107 OFFCURVE",
"120 966 OFFCURVE",
"120 790 CURVE SMOOTH",
"120 521 OFFCURVE",
"329 362 OFFCURVE",
"694 347 CURVE",
"694 0 LINE"
);
},
{
closed = 1;
nodes = (
"410 470 OFFCURVE",
"260 587 OFFCURVE",
"260 790 CURVE SMOOTH",
"260 995 OFFCURVE",
"417 1121 OFFCURVE",
"694 1124 CURVE",
"694 466 LINE"
);
},
{
closed = 1;
nodes = (
"1107 230 LINE",
"1107 490 LINE",
"977 490 LINE",
"977 230 LINE"
);
},
{
closed = 1;
nodes = (
"1107 640 LINE",
"1107 900 LINE",
"977 900 LINE",
"977 640 LINE"
);
},
{
closed = 1;
nodes = (
"1107 1050 LINE",
"1107 1310 LINE",
"977 1310 LINE",
"977 1050 LINE"
);
}
);
width = 1247;
}
);
note = uniA1A0;
unicode = A1A0;
},
{
glyphname = "hlap-yi";
lastChange = "2016-11-10 14:40:56 +0000";
layers = (
{
layerId = "7EC89B61-8520-4E3C-9660-9B6BD7352386";
paths = (
{
closed = 1;
nodes = (
"297 0 LINE",
"297 312 LINE",
"422 229 OFFCURVE",
"520 187 OFFCURVE",
"591 187 CURVE SMOOTH",
"726 187 OFFCURVE",
"793 267 OFFCURVE",
"793 446 CURVE SMOOTH",
"793 610 LINE",
"968 638 OFFCURVE",
"1057 781 OFFCURVE",
"1072 1098 CURVE",
"934 1098 LINE",
"934 1055 LINE SMOOTH",
"934 880 OFFCURVE",
"887 773 OFFCURVE",
"793 736 CURVE",
"793 1118 LINE SMOOTH",
"793 1365 OFFCURVE",
"705 1488 OFFCURVE",
"493 1488 CURVE SMOOTH",
"361 1488 OFFCURVE",
"239 1426 OFFCURVE",
"100 1259 CURVE",
"178 1188 LINE",
"259 1299 OFFCURVE",
"372 1368 OFFCURVE",
"467 1368 CURVE SMOOTH",
"599 1368 OFFCURVE",
"653 1283 OFFCURVE",
"653 1111 CURVE SMOOTH",
"653 735 LINE",
"552 771 OFFCURVE",
"499 888 OFFCURVE",
"499 1060 CURVE SMOOTH",
"499 1098 LINE",
"361 1098 LINE",
"372 793 OFFCURVE",
"466 638 OFFCURVE",
"653 609 CURVE",
"653 471 LINE SMOOTH",
"653 419 OFFCURVE",
"649 379 OFFCURVE",
"641 350 CURVE SMOOTH",
"632 321 OFFCURVE",
"616 307 OFFCURVE",
"591 307 CURVE SMOOTH",
"528 307 OFFCURVE",
"395 378 OFFCURVE",
"190 520 CURVE",
"157 520 LINE",
"157 0 LINE"
);
}
);
width = 1172;
}
);
note = uniA1A1;
unicode = A1A1;
},
{
glyphname = "hlat-yi";
lastChange = "2016-11-10 14:40:56 +0000";
layers = (
{
layerId = "7EC89B61-8520-4E3C-9660-9B6BD7352386";
paths = (
{
closed = 1;
nodes = (
"735 -26 OFFCURVE",
"858 159 OFFCURVE",
"879 579 CURVE",
"1153 353 LINE",
"1153 1067 LINE",
"1023 1067 LINE",
"1023 611 LINE",
"883 732 LINE",
"883 998 OFFCURVE",
"852 1191 OFFCURVE",
"791 1310 CURVE SMOOTH",
"730 1429 OFFCURVE",
"637 1488 OFFCURVE",
"512 1488 CURVE SMOOTH",
"264 1488 OFFCURVE",
"140 1254 OFFCURVE",
"140 741 CURVE SMOOTH",
"140 230 OFFCURVE",
"264 -26 OFFCURVE",
"512 -26 CURVE SMOOTH"
);
},
{
closed = 1;
nodes = (
"398 94 OFFCURVE",
"334 183 OFFCURVE",
"303 357 CURVE SMOOTH",
"288 444 OFFCURVE",
"280 572 OFFCURVE",
"280 741 CURVE SMOOTH",
"280 906 OFFCURVE",
"288 1030 OFFCURVE",
"303 1115 CURVE SMOOTH",
"333 1283 OFFCURVE",
"397 1368 OFFCURVE",
"510 1368 CURVE SMOOTH",
"585 1368 OFFCURVE",
"642 1329 OFFCURVE",
"679 1252 CURVE SMOOTH",
"716 1175 OFFCURVE",
"736 1042 OFFCURVE",
"741 855 CURVE",
"463 1097 LINE",
"463 373 LINE",
"593 373 LINE",
"593 816 LINE",
"743 692 LINE",
"741 471 OFFCURVE",
"722 316 OFFCURVE",
"685 227 CURVE SMOOTH",
"648 138 OFFCURVE",
"590 94 OFFCURVE",
"510 94 CURVE SMOOTH"
);
}
);
width = 1273;
}
);
note = uniA19E;
unicode = A19E;
},
